<svg xmlns="http://www.w3.org/2000/svg" xmlns:xlink="http://www.w3.org/1999/xlink" width="375.01279pt" height="375pt" viewBox="0 0 375.01278 375"><defs><path id="g" d="M0 0Z"/><path id="h" d="M.5.436C.462.436.445.409.445.379.445.349.462.32.5.32s.055.028.055.058C.555.409.538.436.5.436z"/><path id="i" d="M.356.654C.396.654.43.642.46.617a.127.127 0 0 0 .046-.1.127.127 0 0 0-.046-.099A.152.152 0 0 0 .356.38a.153.153 0 0 0-.103.038.129.129 0 0 0-.046.1c0 .04.015.072.046.1.03.024.064.036.103.036m.266.004V.73H.405v.08H.31V.73H.093V.658H.19A.187.187 0 0 1 .125.514c0-.06.024-.112.072-.153a.243.243 0 0 1 .16-.056c.062 0 .115.019.16.056a.192.192 0 0 1 .006.297h.1M.997.471v.077H.88v.216H.793V.223H.88V.47h.118M.145.016c0-.024.003-.04.011-.05.008-.008.022-.012.042-.012h.689V.03H.23v.19H.145z"/><path id="j" d="M.88.469v.295H.12V.687h.673V.47H.88M.457.229h.084v.17h.382v.078H.09V.399h.367V.23m.336-.28H.88v.293H.12V.166h.673z"/><path id="l" d="M0 0Z"/><path id="m" d="M.26 0v.63H.022v.086h.568V.63H.354V0Z"/><path id="n" d="M.066 0v.716h.088V.459A.196.196 0 0 0 .309.53a.21.21 0 0 0 .1-.022A.133.133 0 0 0 .47.445.29.29 0 0 0 .488.329V0H.4v.328C.4.372.39.404.372.424a.106.106 0 0 1-.081.03.143.143 0 0 1-.073-.02.114.114 0 0 1-.05-.055.252.252 0 0 1-.014-.096V0Z"/><path id="o" d="M.42.168.513.156a.222.222 0 0 0-.08-.124.239.239 0 0 0-.148-.044.237.237 0 0 0-.18.07.274.274 0 0 0-.067.197c0 .087.022.155.067.203A.228.228 0 0 0 .279.53c.07 0 .126-.023.17-.07a.28.28 0 0 0 .066-.2V.238H.126a.2.2 0 0 1 .049-.13A.144.144 0 0 1 .284.06c.032 0 .06.008.083.025A.17.17 0 0 1 .42.168M.132.31h.29a.175.175 0 0 1-.033.097.135.135 0 0 1-.11.051.14.14 0 0 1-.101-.04A.16.16 0 0 1 .132.31Z"/><path id="p" d="M.073 0v.716h.095V.36l.355.355h.129l-.3-.29L.665 0H.54L.285.362.168.248V0Z"/><path id="q" d="M.048.349c0 .119.032.212.096.279.064.067.146.1.247.1A.343.343 0 0 0 .57.682.31.31 0 0 0 .69.55.428.428 0 0 0 .733.357.421.421 0 0 0 .689.162a.3.3 0 0 0-.125-.13.356.356 0 0 0-.354.005.314.314 0 0 0-.12.133.403.403 0 0 0-.042.179M.146.347c0-.086.023-.154.07-.203A.23.23 0 0 1 .39.069c.071 0 .13.025.176.075.046.05.07.121.07.213 0 .059-.01.11-.03.153a.227.227 0 0 1-.214.136.242.242 0 0 1-.173-.069C.17.532.146.455.146.347Z"/><path id="r" d="M.079 0v.716h.317a.423.423 0 0 0 .146-.02.159.159 0 0 0 .08-.067A.203.203 0 0 0 .65.52.18.18 0 0 0 .6.392.25.25 0 0 0 .45.326.246.246 0 0 0 .506.29.494.494 0 0 0 .585.195L.709 0H.59L.496.15C.468.191.446.224.427.247A.215.215 0 0 1 .38.296a.142.142 0 0 1-.043.019.285.285 0 0 1-.053.003h-.11V0H.08m.094.4h.204C.42.4.454.405.479.414a.108.108 0 0 1 .055.043c.013.02.02.04.02.064a.106.106 0 0 1-.038.083C.492.626.453.637.4.637H.173z"/><path id="s" d="M.08 0v.716h.517V.63H.174V.413H.57V.328H.174V.085h.44V0Z"/><path id="t" d="m-.001 0 .274.716h.102L.668 0H.561L.477.217h-.3L.1 0H0m.206.294h.243L.373.492c-.023.06-.04.11-.05.15a.906.906 0 0 0-.04-.138Z"/><path id="u" d="M.076 0v.716h.097L.55.154v.562H.64V0H.543L.167.562V0Z"/><path id="v" d="m.045.23.09.008A.197.197 0 0 1 .163.15.161.161 0 0 1 .236.094a.273.273 0 0 1 .11-.02c.036 0 .068.005.095.015C.47.1.49.115.503.134c.014.018.02.039.02.06a.092.092 0 0 1-.02.06.145.145 0 0 1-.064.041C.42.303.378.315.312.33a.647.647 0 0 0-.138.045.194.194 0 0 0-.077.067.164.164 0 0 0-.025.089c0 .036.01.07.031.101a.19.19 0 0 0 .09.072.34.34 0 0 0 .131.025c.053 0 .1-.009.14-.026a.202.202 0 0 0 .13-.188L.501.508a.144.144 0 0 1-.05.101C.426.632.384.644.329.644.271.644.23.634.203.612a.094.094 0 0 1-.04-.076c0-.025.01-.046.028-.063a.378.378 0 0 1 .143-.05.946.946 0 0 0 .159-.046.217.217 0 0 0 .092-.073c.02-.03.03-.063.03-.102A.194.194 0 0 0 .582.095.215.215 0 0 0 .488.016a.412.412 0 0 0-.3 0 .228.228 0 0 0-.104.086.242.242 0 0 0-.04.128z"/><path id="w" d="M.588.251.683.228A.319.319 0 0 0 .575.05a.295.295 0 0 0-.189-.062.34.34 0 0 0-.188.047.294.294 0 0 0-.11.137.487.487 0 0 0 .005.387.293.293 0 0 0 .121.126c.053.03.11.044.174.044a.293.293 0 0 0 .18-.055A.284.284 0 0 0 .67.52L.577.498a.221.221 0 0 1-.072.114.193.193 0 0 1-.12.035.231.231 0 0 1-.137-.04A.209.209 0 0 1 .17.503.428.428 0 0 1 .147.364c0-.06.01-.114.027-.16A.198.198 0 0 1 .257.104.232.232 0 0 1 .378.069c.053 0 .098.016.135.046.037.03.062.076.075.136z"/><path id="x" d="M.093 0v.716h.095V0Z"/><path id="y" d="M.279 0v.303L.003.716h.115L.26.5C.285.46.31.42.332.38L.41.505l.139.21h.11L.374.303V0Z"/><path id="z" d="M.087 0v.45H.009V.52h.078v.055c0 .034.003.06.01.077A.112.112 0 0 0 .14.706a.161.161 0 0 0 .09.022.428.428 0 0 0 .082-.01L.299.643a.297.297 0 0 1-.051.004C.22.646.202.641.19.63.18.618.174.597.174.566V.519h.101V.45h-.1V0Z"/><path id="A" d="M.033.26c0 .095.027.166.08.213A.241.241 0 0 0 .276.53C.348.53.406.507.451.46A.267.267 0 0 0 .52.267C.519.2.509.147.489.109A.213.213 0 0 0 .402.02a.254.254 0 0 0-.126-.032.233.233 0 0 0-.176.07C.056.105.033.172.033.26m.09 0C.124.193.139.143.168.11a.14.14 0 0 1 .11-.05c.043 0 .08.017.108.05.03.033.044.084.044.152 0 .064-.015.113-.044.146a.14.14 0 0 1-.109.049.14.14 0 0 1-.109-.05C.138.376.124.326.124.26z"/><path id="B" d="M.065 0v.519h.079v-.08C.164.478.183.502.2.514A.098.098 0 0 0 .256.53c.03 0 .06-.01.09-.028L.317.42a.126.126 0 0 1-.064.02A.084.084 0 0 1 .2.421.094.094 0 0 1 .167.374.342.342 0 0 1 .153.271V0Z"/><path id="C" d="M.547.716h.095V.303A.489.489 0 0 0 .617.13.209.209 0 0 0 .53.028a.312.312 0 0 0-.167-.04.344.344 0 0 0-.165.035.198.198 0 0 0-.091.1.478.478 0 0 0-.027.18v.413h.094V.303C.173.241.18.196.191.166A.132.132 0 0 1 .25.098.207.207 0 0 1 .353.074c.07 0 .119.016.148.048.03.031.045.092.045.181Z"/><path id="D" d="M.073 0v.716h.095V.085h.353V0Z"/><path id="E" d="M.404.065a.267.267 0 0 0-.19-.077C.155-.012.112.002.081.03a.138.138 0 0 0-.046.107.142.142 0 0 0 .063.12c.019.013.04.022.063.029A.628.628 0 0 0 .24.299a.803.803 0 0 1 .157.03v.023c0 .036-.008.06-.024.075-.023.02-.056.03-.1.03C.23.457.2.45.18.435.16.421.147.395.137.358L.051.37C.06.407.071.437.09.46.108.482.134.5.167.512A.345.345 0 0 0 .285.53.31.31 0 0 0 .393.515a.142.142 0 0 0 .061-.04.139.139 0 0 0 .027-.06.495.495 0 0 0 .005-.08V.216C.486.136.488.084.49.063A.197.197 0 0 1 .514 0H.422a.194.194 0 0 0-.018.065M.397.26A.647.647 0 0 0 .253.227.333.333 0 0 1 .177.209.074.074 0 0 1 .13.14C.13.116.139.096.156.081.174.065.2.058.234.058s.064.007.09.022a.137.137 0 0 1 .059.06.21.21 0 0 1 .014.088z"/><path id="F" d="M.066 0v.519h.079V.445A.186.186 0 0 0 .31.53C.341.53.37.525.396.513A.136.136 0 0 0 .482.404.503.503 0 0 0 .487.32V0H.4v.315a.237.237 0 0 1-.01.08.084.084 0 0 1-.036.043.142.142 0 0 1-.158-.02C.167.395.154.35.154.283V0Z"/><path id="G" d="M.402 0v.065a.161.161 0 0 0-.145-.077.203.203 0 0 0-.114.034.225.225 0 0 0-.08.096.33.33 0 0 0-.029.14c0 .053.009.1.026.142a.204.204 0 0 0 .193.13A.172.172 0 0 0 .396.46v.257h.088V0H.402M.125.259c0-.067.014-.116.042-.15A.124.124 0 0 1 .364.108c.026.032.04.08.04.144C.404.322.39.374.363.407a.126.126 0 0 1-.2.002C.139.377.126.327.126.26Z"/><path id="H" d="M.077 0v.716h.27a.652.652 0 0 0 .11-.007.216.216 0 0 0 .087-.033.175.175 0 0 0 .058-.07A.22.22 0 0 0 .624.51.22.22 0 0 0 .565.354C.527.312.457.291.355.291H.172V0H.077m.095.376h.185c.061 0 .105.011.13.034a.121.121 0 0 1 .039.096c0 .03-.008.055-.023.076a.106.106 0 0 1-.06.043.407.407 0 0 1-.088.006H.172Z"/><clipPath id="a"><path d="M608.44 565.156h217.598v-41.621H608.44Z"/></clipPath><clipPath id="b"><path d="M608.44 565.156h217.598v-41.621H608.44Z"/></clipPath><clipPath id="c"><path d="M387.265 487.28a6.854 6.854 0 0 0 6.855 6.853 6.854 6.854 0 1 0-6.855-6.853"/></clipPath><clipPath id="d"><path d="M387.043 494.484h14.209v-14.24h-14.209z"/></clipPath><clipPath id="e"><path d="M608.44 565.156h217.598v-41.621H608.44Z"/></clipPath><clipPath id="f"><path d="M703.417 53.008h32.174v-31.18h-32.174z"/></clipPath><clipPath id="k"><path d="M703.417 53.008h32.174v-31.18h-32.174z"/></clipPath></defs><path fill="#fff" d="M188.127 372.94c102.188 0 185.036-82.835 185.036-185.036 0-102.187-82.848-185.023-185.036-185.023S3.091 85.717 3.091 187.904c0 102.201 82.848 185.037 185.036 185.037" style="stroke-width:12.7991"/><g fill="#fff" clip-path="url(#a)" transform="translate(-705.447 -22.206)"><path d="M408.277 486.445v2.59h-.757v-5.54h.757v2.21h.955v.74Zm-2.788.1c-.17-.124-.42-.185-.75-.185-.332 0-.583.06-.755.185a.566.566 0 0 0-.255.475c0 .188.084.342.252.465.168.12.42.183.757.183.33 0 .581-.062.751-.18a.572.572 0 0 0 0-.944m-1.882-3.082h2.24v.673h-2.24zm-.03 7.338v-2.062h.808v1.358h4.09v.704zm-.188-2.871c-.333-.261-.502-.56-.502-.9 0-.361.17-.663.504-.91.338-.242.783-.364 1.34-.364.58 0 1.03.122 1.35.365.323.246.484.548.484.909 0 .345-.16.647-.487.905-.322.258-.775.386-1.356.386-.555 0-.999-.131-1.333-.391m-.793-3.26h4.26v.68h-4.26ZM413.039 487.182v1.385h2.23v2.402h-.785v-1.689h-4.297v-.713h2.059v-1.385H409.4v-.711h4.799c.037-.167.09-.446.164-.843.067-.396.12-.767.15-1.113h-4.34v-.713h5.22c-.011.215-.054.628-.135 1.237-.08.607-.174 1.085-.287 1.432h1.156v.711ZM422.343 486.077v2.106h-.758v-4.687h.758v1.867h.955v.714Zm-1.174 3.097c-.298-.129-.702-.19-1.212-.19-.52 0-.931.061-1.231.184-.3.126-.45.307-.45.545 0 .226.15.408.455.548.3.14.714.206 1.233.206.5 0 .9-.066 1.2-.202.303-.137.452-.318.452-.542 0-.239-.15-.422-.447-.549m-1.601-2.808c-.19-.1-.445-.152-.767-.152-.32 0-.576.051-.77.152-.194.104-.29.245-.29.425 0 .175.096.313.286.412.19.1.45.148.774.148.322 0 .578-.05.767-.15.186-.104.283-.243.283-.419 0-.175-.097-.312-.283-.416m-1.897-2.905h2.24v.673h-2.24zm.402 7.251c-.425-.272-.64-.6-.64-.999 0-.402.216-.73.644-.985.426-.255 1.057-.382 1.887-.382.838 0 1.463.131 1.88.392.419.258.628.59.628.992 0 .403-.21.733-.631.994-.421.261-1.047.391-1.884.391-.831 0-1.46-.137-1.884-.403m-.613-3.078c-.35-.228-.521-.509-.521-.843 0-.333.175-.613.527-.832.35-.22.797-.33 1.335-.33.563 0 1.009.11 1.343.324.334.22.502.496.502.83 0 .338-.17.623-.507.851-.334.225-.786.337-1.352.337-.535 0-.977-.112-1.327-.337m-.796-3.027h4.256v.671h-4.256ZM425.5 488.966c-.342.142-.512.344-.512.603 0 .276.17.488.512.632.34.145.784.217 1.329.217.54 0 .983-.072 1.327-.217.344-.144.515-.356.515-.632 0-.26-.171-.461-.515-.603-.344-.14-.786-.212-1.327-.212-.545 0-.99.072-1.33.212m3.814-3.898c-.09.526-.188.963-.29 1.307h-.78c.01-.027.062-.257.154-.69a12.3 12.3 0 0 0 .19-1.17h-4.35v-.713h5.222a8.52 8.52 0 0 1-.146 1.266m-.5 5.598c-.462.28-1.122.424-1.984.424-.856 0-1.515-.143-1.98-.424-.464-.284-.695-.647-.695-1.09 0-.434.23-.795.695-1.076.465-.284 1.12-.425 1.973-.425.862 0 1.522.14 1.986.425.464.28.698.642.698 1.077 0 .442-.234.805-.692 1.089m-5.348-3.135v-.705h2.514v-1.428h.78v1.428h3.432v.705ZM432.546 484.486c-.336.178-.503.413-.503.709 0 .289.169.524.51.703.342.183.776.272 1.302.272.517 0 .947-.088 1.287-.267.339-.177.508-.408.508-.692 0-.294-.166-.533-.501-.716-.333-.184-.764-.278-1.294-.278-.537 0-.973.091-1.31.269m3.25 1.897c-.454.312-1.098.467-1.933.467-.832 0-1.48-.155-1.94-.467-.46-.31-.69-.707-.69-1.188 0-.477.23-.87.689-1.187.458-.313 1.103-.469 1.934-.469.834 0 1.48.156 1.935.469.458.317.685.71.685 1.187 0 .481-.225.878-.68 1.188m-1.558 2.039v2.548h-.765v-2.548h-2.981v-.712h6.727v.712zM441.93 485.461c.368.418 1.006.744 1.915.984l-.513.601a4.778 4.778 0 0 1-1.412-.645c-.475-.312-.818-.642-1.025-.995-.205.335-.519.654-.94.96a4.382 4.382 0 0 1-1.498.68l-.514-.6c.896-.218 1.534-.54 1.91-.968.373-.426.584-.753.635-.98h-2.162v-.714h5.136v.714h-2.164c.051.227.262.548.631.963m-.652 2.91v2.598h-.766v-2.598h-2.98v-.703h6.728v.703ZM450.474 486.282v1.97h-.758v-4.756h.758v2.046h.954v.74Zm-2.79.135c-.165-.107-.415-.161-.751-.161-.337 0-.59.055-.761.165-.171.112-.256.257-.256.439s.085.329.256.445c.17.118.424.174.76.174.337 0 .587-.058.752-.177a.53.53 0 0 0 .25-.452.49.49 0 0 0-.25-.433m-1.883-2.955h2.24v.654h-2.24zm3.899 7.507v-1.587h-4.19v-.672h4.969v2.259zm-4.108-3.228c-.334-.237-.502-.529-.502-.881s.168-.644.502-.874c.333-.234.78-.351 1.34-.351.583 0 1.03.117 1.346.351.315.23.473.522.473.874s-.16.644-.48.881c-.321.24-.773.358-1.353.358-.552 0-.993-.118-1.326-.358m-.8-3.133h4.259v.655h-4.258ZM457.016 483.496h.764v7.474h-.764zm-2.045 3.267c-.191-.118-.43-.175-.717-.175-.274 0-.506.057-.694.175-.19.115-.283.254-.283.419 0 .17.093.308.283.416.188.108.422.16.703.16.286 0 .522-.052.712-.16.188-.108.282-.242.282-.408 0-.17-.094-.312-.286-.427m-1.855-3.036h2.217v.688h-2.217zm-.94 1.195h4.111v.697h-4.111zm3.381 4.863a43.39 43.39 0 0 1-1.607.055l-2.148.008v-.719h2.077v-.766c-.4-.064-.729-.2-.985-.412-.254-.213-.381-.467-.381-.769 0-.34.166-.625.501-.859.333-.231.748-.346 1.24-.346.502 0 .918.117 1.255.35.336.237.505.523.505.863 0 .283-.123.531-.371.744-.249.212-.564.349-.951.412v.773c.382 0 .747-.015 1.091-.047.349-.032.656-.066.926-.106v.722c-.3.039-.683.07-1.152.097"/></g><g clip-path="url(#b)" transform="translate(-705.447 -22.206)"><g clip-path="url(#c)"><g clip-path="url(#d)"><image width="60" height="60" transform="matrix(.23682 0 0 .23733 387.043 480.244)"/></g></g></g><g clip-path="url(#e)" transform="translate(-705.447 -22.206)"><path fill="#fff" d="m364.764 486.336-.75.811c-1.364-.32-2.965-1.257-3.569-2.204-.605.902-1.879 1.804-3.569 2.204l-.749-.81c2.618-.572 3.58-1.999 3.725-2.615h-3.166v-.959h7.518v.96h-3.166c.145.615 1.063 1.973 3.726 2.613m-3.76 2.592v3.492h-1.119v-3.492h-4.363v-.949h9.846v.95z"/><path fill="none" stroke="#fff" stroke-miterlimit="10" stroke-width="0.419" d="m364.764 486.336-.75.811c-1.364-.32-2.965-1.257-3.569-2.204-.605.902-1.879 1.804-3.569 2.204l-.749-.81c2.618-.572 3.58-1.999 3.725-2.615h-3.166v-.959h7.518v.96h-3.166c.145.615 1.063 1.973 3.726 2.613Zm-3.76 2.592v3.492h-1.119v-3.492h-4.363v-.949h9.846v.95z"/><path fill="#fff" d="M373.492 482.374h1.118v10.046h-1.118Zm-5.629.218h3.156v.97h-3.156zm3.995 5.616c-.851-.194-1.858-.97-2.395-1.678-.291.708-1.679 1.644-2.619 1.803l-.692-.821c2.013-.48 2.64-1.712 2.718-2.215h-2.215v-.982h5.628v.982h-2.226c.1.445.693 1.529 2.449 2.066zm-2.988 2.569h-2.999v-.982h3.032v-1.792h1.141v1.77c.437 0 2.094-.092 2.943-.207v.972c-.682.079-2.774.239-4.117.239"/><path fill="none" stroke="#fff" stroke-miterlimit="10" stroke-width="0.419" d="M373.492 482.374h1.118v10.046h-1.118Zm-5.63.217h3.157v.971h-3.156zm3.996 5.617c-.851-.194-1.858-.97-2.395-1.678-.29.708-1.68 1.644-2.618 1.803l-.693-.82c2.013-.48 2.64-1.713 2.718-2.216h-2.215v-.982h5.628v.982h-2.226c.1.445.693 1.53 2.449 2.066zm-2.988 2.57h-3v-.983h3.034v-1.792h1.14v1.77c.438 0 2.094-.092 2.944-.207v.971c-.683.08-2.775.24-4.118.24z"/><path fill="#fff" d="m364.764 510.71-.75.81c-1.364-.32-2.966-1.257-3.568-2.204-.606.902-1.88 1.804-3.57 2.204l-.75-.81c2.62-.572 3.581-1.999 3.725-2.615h-3.167v-.959h7.52v.96h-3.166c.145.615 1.063 1.973 3.726 2.613m-3.76 2.592v3.492h-1.119v-3.492h-4.364v-.949h9.847v.95z"/><path fill="none" stroke="#fff" stroke-miterlimit="10" stroke-width="0.419" d="m364.764 510.71-.75.81c-1.364-.32-2.966-1.257-3.568-2.204-.606.902-1.88 1.804-3.57 2.204l-.75-.81c2.62-.572 3.581-1.999 3.725-2.615h-3.167v-.959h7.52v.96h-3.166c.145.615 1.063 1.973 3.726 2.613Zm-3.76 2.591v3.492h-1.119v-3.492h-4.364v-.949h9.847v.95z"/><path fill="#fff" d="M374.106 510.937v3.23h-1.119v-7.42h1.12v3.22h1.375v.97Zm-6.892 5.629v-2.957h1.107v1.998h6.121v.959zm3.983-5.686h-1.107c.022-.08.336-1.495.402-2.614h-4.307v-.96h5.514c-.02.708-.21 2.706-.502 3.574m-4.375 1.975h-1.298v-.958h1.925v-2.193h1.118v2.193c.783 0 3.101-.15 4.04-.297v.936c-1.399.17-3.324.319-5.785.319"/><path fill="none" stroke="#fff" stroke-miterlimit="10" stroke-width="0.419" d="M374.106 510.937v3.23h-1.119v-7.42h1.12v3.22h1.375v.97Zm-6.892 5.629v-2.957h1.107v1.998h6.121v.959zm3.983-5.686h-1.107c.022-.08.336-1.495.402-2.614h-4.307v-.96h5.514c-.02.708-.21 2.706-.502 3.574Zm-4.375 1.975h-1.298v-.958h1.925v-2.193h1.118v2.193c.783 0 3.101-.15 4.04-.297v.936c-1.399.17-3.324.319-5.785.319Z"/><path fill="#fff" d="M409.819 513.286h-1.12l-.752-2.47h-.012l.042 2.47h-.78V510.2h1.166l.696 2.374h.015l-.043-2.374h.788Zm-3.47-.855c.004.06-.004.176-.007.206-.045.514-.415.777-1.09.777s-1.043-.263-1.093-.777a2.444 2.444 0 0 1-.005-.206v-2.233h.803v2.305c0 .051.002.09.007.117.01.051.062.217.288.217.227 0 .279-.166.29-.217a.703.703 0 0 0 .009-.117v-2.305h.799zm-2.911.284c-.09.603-.68.71-1.095.71-.696 0-1.127-.297-1.127-.9v-.248h.84l.003.306c0 .168.116.27.298.27.16 0 .259-.065.292-.2a.359.359 0 0 0-.01-.219c-.153-.39-1.244-.578-1.38-1.209a1.085 1.085 0 0 1-.006-.418c.093-.567.639-.688 1.082-.688.394 0 .68.087.853.26.129.127.19.305.19.522v.227h-.785v-.199c0-.17-.107-.27-.274-.27-.152 0-.24.068-.271.2a.34.34 0 0 0 .005.156c.083.344 1.253.558 1.38 1.192.016.081.039.256.005.508m-3.752.603-.022-2.707h-.013l-.503 2.707h-.803l-.504-2.707h-.013l-.02 2.707h-.795l.07-3.119h1.28l.373 2.32h.02l.373-2.32h1.28l.07 3.12zm-4.121 0-.41-2.762h-.011l-.42 2.762h-.854l.576-3.119h1.397l.574 3.12zm21.009-4.065c-.4-2.293-7.292-3.007-15.393-1.596-3.404.59-6.475 1.465-8.871 2.447.368.011.642.094.806.26.13.13.197.306.197.53v.227h-.795v-.2c0-.169-.1-.273-.28-.273-.147 0-.241.067-.271.202a.351.351 0 0 0 .004.157c.085.348 1.265.563 1.393 1.203.017.084.04.26.006.514-.074.517-.53.717-1.107.717-.81 0-1.137-.383-1.137-.91v-.25h.852v.311c0 .173.127.274.3.274.163 0 .26-.068.292-.202a.402.402 0 0 0-.004-.225c-.16-.398-1.26-.58-1.396-1.218a1.02 1.02 0 0 1-.005-.423.627.627 0 0 1 .07-.219c-2.657 1.238-4.213 2.606-4.007 3.783.4 2.295 7.295 3.011 15.398 1.601 3.56-.62 6.762-1.548 9.202-2.59a.75.75 0 0 1-.105.007c-.555 0-1.051-.208-1.101-.775a1.733 1.733 0 0 1-.014-.206v-1.303c0-.056.008-.155.014-.205.063-.548.497-.772 1.1-.772.466 0 1.036.132 1.097.772.007.08.007.166.007.196v.122h-.802v-.183c0-.003 0-.072-.012-.115-.01-.066-.068-.218-.295-.218-.23 0-.284.152-.301.218-.005.037-.013.086-.013.142v1.417c0 .05.004.088.008.117.005.021.044.217.309.217.259 0 .299-.196.304-.217.004-.04.006-.084.006-.117v-.438h-.315v-.472h1.115v.841c0 .057 0 .1-.01.204a.762.762 0 0 1-.134.381c2.587-1.225 4.09-2.569 3.888-3.733M421.185 510.36v.496h1.443v2.474h.735v-2.455h1.462v-.534s-2.038-.256-3.64.018M426.115 510.34v2.974l.68.137.006-1.374h2.13v1.34l.644-.12.007-2.956-.651-.05v1.204l-2.097-.02-.023-1.195zM430.7 513.33l1.7-2.97h.735l1.704 2.953-.721.088-1.324-2.422-1.34 2.422Z"/><path fill="#fff" d="M432.794 511.905s-.516.034-.516.636c0 0 .053.412.555.412 0 0 .428-.069.44-.534 0 0 .054-.429-.48-.514M435.938 510.34l.007 2.978s1.573.33 3.067 0l.015-.556h-2.335v-2.421ZM440.169 510.36v2.953s2.088.395 3.255-.017v-.498l-2.541-.036v-.685h1.443v-.602h-1.408v-.549h2.474v-.567s-1.627-.359-3.223 0M447.959 510.34v.516h-2.696v.639h2.129s.567-.07.619.566v.79s.19.513-.962.55c0 0-1.665.22-2.404-.104v-.551h2.696v-.67h-2.078s-.601.054-.634-.48v-.688s-.171-.515.858-.653c0 0 2.198-.084 2.472.086M419.139 506.906v9.826h.207v-9.827Z"/></g><g clip-path="url(#f)" transform="translate(-705.447 -22.206)"><path fill="none" stroke="#eb088c" stroke-miterlimit="10" stroke-width="0.272" d="M663.251 36.856c0 8.015-6.498 14.513-14.514 14.513-8.016 0-14.514-6.498-14.514-14.513 0-8.016 6.498-14.514 14.514-14.514 8.016 0 14.514 6.498 14.514 14.514Z"/><path fill="none" stroke="#eb088c" stroke-miterlimit="10" stroke-width="0.213" d="M660.094 37.294c0 6.287-5.098 11.385-11.386 11.385-6.288 0-11.386-5.098-11.386-11.385 0-6.288 5.098-11.385 11.386-11.385 6.288 0 11.386 5.097 11.386 11.385Z"/><use xlink:href="#g" width="100%" height="100%" fill="#030404" transform="scale(4.3457 -4.3457) rotate(70.982 78.893 98.94)"/><use xlink:href="#h" width="100%" height="100%" fill="#030404" transform="scale(4.3456 -4.3456) rotate(60.424 80 122.134)"/><use xlink:href="#i" width="100%" height="100%" fill="#221f1f" transform="matrix(1.4044 -1.5898 -2.2391 -1.978 639.1 30.267)"/><path fill="none" stroke="#221f1f" stroke-miterlimit="10" stroke-width="0.136" d="M638.073 28.644a.46.46 0 0 0 .16.27.46.46 0 0 0 .286.124.277.277 0 0 0 .231-.09c.055-.061.074-.141.06-.238a.46.46 0 0 0-.16-.27.464.464 0 0 0-.288-.124.28.28 0 0 0-.227.09.282.282 0 0 0-.062.238Zm.288-.511a.63.63 0 0 1 .416.177.69.69 0 0 1 .241.419.438.438 0 0 1-.099.367.437.437 0 0 1-.35.143.694.694 0 0 1-.446-.19.759.759 0 0 1-.157-.187.604.604 0 0 1-.073-.2l-.137.155-.162-.142.305-.345-.179-.158.134-.153.18.159.304-.345.162.143Zm.92-.196.556.49-.122.139-1.212-1.07.122-.138.484.426.166-.187.172.152Zm-.47 1.665.122-.138.424.375.92-1.042.171.15-.967 1.095c-.028.033-.058.046-.087.042-.03-.004-.072-.03-.126-.078Z"/><use xlink:href="#j" width="100%" height="100%" fill="#221f1f" transform="matrix(1.746 -1.2046 -1.6965 -2.4592 641.097 28.15)"/></g><path fill="none" stroke="#221f1f" stroke-miterlimit="10" stroke-width="3.48135" d="M373.272 187.506c0 102.585-83.168 185.753-185.766 185.753-102.597 0-185.765-83.168-185.765-185.753C1.74 84.91 84.909 1.741 187.506 1.741c102.598 0 185.766 83.168 185.766 185.765z"/><path fill="none" stroke="#221f1f" stroke-miterlimit="10" stroke-width="3.48135" d="M332.863 193.105c0 80.468-65.25 145.718-145.73 145.718-80.494 0-145.73-65.25-145.73-145.718 0-80.48 65.236-145.717 145.73-145.717 80.48 0 145.73 65.237 145.73 145.717z"/><path d="M45.27 151.046Z" style="fill:#030404;stroke-width:55.6209"/><path d="M38.28 105.843c-1.044 1.839-.204 3.402 1.247 4.226 1.452.823 3.273.77 4.316-1.069 1.043-1.838.155-3.429-1.296-4.252-1.451-.824-3.224-.743-4.267 1.095z" style="fill:#030404;stroke-width:55.621"/><path d="M53.504 77.394c.703-.795 1.639-1.206 2.81-1.232 1.248-.007 2.388.446 3.424 1.361 1.035.915 1.626 1.991 1.772 3.229.136 1.181-.147 2.169-.85 2.964-.714.808-1.665 1.217-2.854 1.229-1.263-.007-2.404-.461-3.422-1.361-1.036-.915-1.627-1.991-1.773-3.23-.115-1.165.18-2.152.893-2.96m4.673-5.495-1.885-1.665-3.897 4.411-2.088-1.845-1.72 1.948 2.088 1.845-3.897 4.411 1.885 1.665 1.755-1.987c.103.844.357 1.648.77 2.413.436.809 1.035 1.55 1.799 2.225 1.596 1.41 3.361 2.098 5.297 2.062 1.804-.057 3.256-.709 4.356-1.954s1.567-2.766 1.402-4.564c-.192-1.938-1.086-3.612-2.682-5.022a7.97 7.97 0 0 0-2.473-1.512 7.252 7.252 0 0 0-2.482-.424l1.773-2.007m11.648-3.331-2.012-1.777-2.124 2.404-5.629-4.972L58.5 65.99l14.11 12.465 1.562-1.769-6.47-5.715 2.125-2.404M66.352 96.42c.628.555 1.122.85 1.484.886.36.036.723-.151 1.085-.562l12.376-14.01-1.987-1.754-11.778 13.334-4.941-4.365-1.562 1.768z" style="fill:#221f1f;stroke-width:30.7372"/><path fill="none" stroke="#221f1f" stroke-miterlimit="10" stroke-width="2.08625" d="M52.61 80.356c.141 1.241.743 2.316 1.767 3.225 1.024.909 2.163 1.357 3.43 1.37 1.19-.013 2.137-.423 2.854-1.23.704-.806.986-1.791.845-2.969-.14-1.241-.73-2.316-1.766-3.225-1.037-.922-2.176-1.37-3.43-1.37-1.165.026-2.1.448-2.803 1.242-.717.806-1.012 1.792-.896 2.957zm3.79-6.451c.857 0 1.676.14 2.482.422a8.032 8.032 0 0 1 2.47 1.51c1.6 1.408 2.496 3.085 2.688 5.03.167 1.792-.307 3.315-1.395 4.557-1.1 1.254-2.56 1.907-4.364 1.958-1.933.039-3.7-.652-5.3-2.06-.754-.679-1.356-1.421-1.791-2.227-.41-.768-.678-1.575-.768-2.407l-1.754 1.984-1.894-1.664 3.904-4.415-2.086-1.843 1.715-1.946 2.086 1.843 3.904-4.415 1.881 1.663zm11.3-2.931 6.464 5.708-1.561 1.78-14.105-12.467 1.562-1.766 5.631 4.966 2.125-2.406 2.01 1.779zM61.033 91.72l1.562-1.766 4.94 4.364L79.31 80.983l1.984 1.753-12.376 14.015c-.359.41-.717.589-1.088.55-.359-.025-.845-.332-1.485-.883z"/><path d="M100.126 45.644 94.3 37.196 77.32 48.91l1.505 2.182 15.036-10.373 4.323 6.266 1.942-1.34m-4.703 13.4 1.877-1.295-3.377-4.895 8.533-5.887-1.524-2.21L82.317 57.6l1.524 2.21 8.206-5.661 3.376 4.895m13.026 2.82 1.943-1.34-5.79-8.39-16.978 11.712 1.505 2.182 15.037-10.373z" style="fill:#221f1f;stroke-width:30.7361"/><path fill="none" stroke="#221f1f" stroke-miterlimit="10" stroke-width="2.08625" d="m98.184 46.985-4.326-6.272-15.039 10.38-1.497-2.189 16.971-11.71 5.837 8.447zm-6.13 7.167-8.218 5.657-1.523-2.214 18.623-12.837 1.523 2.214-8.537 5.887 3.38 4.89-1.882 1.292zm12.107 1.51L89.135 66.03l-1.51-2.19 16.984-11.71 5.786 8.396-1.946 1.344z"/><path d="M122.113 27.844c.778-.292 1.575-.228 2.393.191.86.428 1.48 1.152 1.861 2.17.382 1.018.394 1.981.039 2.89-.325.896-.876 1.49-1.654 1.781-.779.292-1.584.207-2.418-.255-.859-.477-1.474-1.214-1.848-2.21-.381-1.019-.398-1.968-.051-2.85.34-.853.9-1.425 1.678-1.717m6.11-2.508-.87-2.323-4.817 1.805-.978-2.609-2.433.912.978 2.61-5.09 1.907.87 2.323 2.21-.828c-.172.645-.239 1.3-.198 1.962.038.71.19 1.416.453 2.116.652 1.74 1.719 2.973 3.2 3.7 1.374.694 2.731.79 4.072.288 1.34-.503 2.3-1.467 2.88-2.894.636-1.522.63-3.152-.027-4.891a6.724 6.724 0 0 0-1.086-1.916 6.792 6.792 0 0 0-1.453-1.306l2.284-.856m11.467-.307-.93-2.482-3.005 1.127-1.658-4.423-2.21.828 4.355 11.614 2.21-.828-1.766-4.71 3.004-1.126m-6.68 11.94c1.258-.471 2.52-.4 3.789.213 1.39.688 2.4 1.87 3.028 3.546.597 1.59.6 3.113.013 4.568-.545 1.365-1.438 2.28-2.68 2.746-1.191.447-2.441.335-3.75-.336-1.39-.737-2.38-1.89-2.968-3.46-.628-1.676-.653-3.227-.077-4.654.536-1.29 1.417-2.164 2.641-2.623m-.956-2.4c-1.837.69-3.139 1.976-3.905 3.86-.825 2.027-.79 4.239.115 6.636.891 2.376 2.318 4.067 4.28 5.073 1.825.937 3.655 1.061 5.492.373 1.87-.701 3.21-2.014 4.018-3.938.85-2.06.83-4.279-.064-6.655-.899-2.397-2.342-4.082-4.33-5.054-1.866-.897-3.734-.996-5.604-.295z" style="fill:#221f1f;stroke-width:30.7368"/><path fill="none" stroke="#221f1f" stroke-miterlimit="10" stroke-width="2.08625" d="M120.435 29.56c-.345.884-.332 1.831.052 2.855.37.998.985 1.728 1.843 2.201.832.461 1.638.55 2.419.256.78-.294 1.33-.883 1.65-1.779.36-.908.346-1.868-.025-2.892-.384-1.011-1.01-1.74-1.868-2.163-.82-.423-1.613-.487-2.394-.192-.78.294-1.331.857-1.677 1.715zm5.504-3.365c.55.37 1.037.806 1.446 1.305.461.55.82 1.19 1.088 1.907.653 1.74.666 3.38.026 4.902-.576 1.421-1.536 2.38-2.88 2.893-1.344.499-2.7.397-4.07-.295-1.485-.73-2.547-1.958-3.2-3.698a6.933 6.933 0 0 1-.448-2.112 5.714 5.714 0 0 1 .192-1.971l-2.214.832-.87-2.317 5.094-1.907-.973-2.611 2.432-.909.972 2.598 4.813-1.804.87 2.33zm10.751-.039 1.767 4.71-2.215.832-4.351-11.621 2.201-.832 1.664 4.428 3.008-1.126.921 2.483zm-6.323 13.44c-.575 1.42-.55 2.969.077 4.645.589 1.575 1.575 2.727 2.97 3.469 1.305.665 2.56.78 3.75.333 1.241-.461 2.124-1.383 2.675-2.752.589-1.446.589-2.97-.013-4.57-.627-1.663-1.638-2.854-3.033-3.545-1.267-.614-2.522-.678-3.789-.205-1.216.461-2.099 1.332-2.636 2.624zm7.296-4.736c1.984.972 3.43 2.662 4.326 5.055.883 2.38.909 4.595.064 6.656-.82 1.92-2.15 3.238-4.019 3.942-1.843.691-3.673.563-5.49-.371-1.972-1.011-3.392-2.7-4.288-5.082-.896-2.393-.935-4.607-.103-6.63.755-1.88 2.06-3.174 3.904-3.865 1.869-.69 3.737-.601 5.606.295z"/><path d="m178.495 23.754-1.382-12.223-20.497 2.318.298 2.634 18.152-2.053 1.086 9.59 2.344-.266m-10.537-4.93-2.345.266.585 5.166-9.115 1.031.294 2.6 22.473-2.542-.294-2.6-11.013 1.246-.585-5.166m.337 5.81c-2.02.228-3.721 1.15-5.104 2.765-1.568 1.865-2.2 4.136-1.897 6.815.316 2.792 1.392 4.995 3.23 6.611 1.718 1.516 3.658 2.151 5.818 1.907 2.108-.238 3.83-1.288 5.167-3.15 1.43-1.985 1.987-4.373 1.671-7.165-.303-2.678-1.427-4.751-3.372-6.219-1.708-1.265-3.546-1.787-5.513-1.565m.229 2.026c1.422-.16 2.77.348 4.042 1.527 1.309 1.197 2.066 2.696 2.27 4.497.208 1.845-.189 3.52-1.194 5.025-.971 1.478-2.168 2.297-3.59 2.458-1.476.167-2.852-.362-4.129-1.585-1.297-1.244-2.05-2.79-2.259-4.635-.203-1.8.191-3.43 1.182-4.887.976-1.433 2.202-2.233 3.677-2.4z" style="fill:#221f1f;stroke-width:30.7366"/><path fill="none" stroke="#221f1f" stroke-miterlimit="10" stroke-width="2.08625" d="m176.151 24.017-1.088-9.586-18.149 2.048-.294-2.637 20.491-2.316 1.382 12.223zm-7.603-.025 11.008-1.254.294 2.61-22.475 2.535-.295-2.598 9.113-1.037-.576-5.158 2.343-.269zm5.26 2.201c1.946 1.472 3.073 3.546 3.38 6.22.307 2.79-.243 5.184-1.677 7.168-1.344 1.869-3.059 2.918-5.17 3.149-2.151.243-4.096-.384-5.812-1.907-1.843-1.613-2.918-3.814-3.238-6.605-.294-2.687.333-4.953 1.895-6.822 1.395-1.612 3.084-2.534 5.106-2.764 1.971-.218 3.815.294 5.517 1.561zm-8.959 2.867c-.998 1.46-1.382 3.085-1.177 4.89.205 1.843.96 3.391 2.253 4.633 1.28 1.216 2.649 1.753 4.134 1.587 1.42-.167 2.61-.986 3.583-2.458 1.012-1.51 1.408-3.187 1.19-5.03-.204-1.804-.96-3.302-2.265-4.492-1.267-1.178-2.623-1.69-4.044-1.536-1.472.166-2.7.973-3.674 2.406z"/><path d="M210.237 13.993c1.157.151 2.122.746 2.896 1.783.832 1.137 1.145 2.492.94 4.064-.2 1.528-.848 2.745-1.947 3.653-1.018.827-2.104 1.165-3.26 1.014-1.192-.156-2.165-.763-2.918-1.82-.83-1.16-1.145-2.503-.945-4.03.205-1.573.856-2.802 1.952-3.687.997-.807 2.09-1.132 3.282-.977m.34-2.594c-1.788-.234-3.446.247-4.975 1.441-1.65 1.315-2.63 3.152-2.938 5.511-.305 2.336.171 4.352 1.43 6.047 1.167 1.569 2.645 2.47 4.433 2.703 1.753.229 3.395-.265 4.926-1.482 1.669-1.313 2.656-3.137 2.96-5.474.31-2.358-.176-4.386-1.451-6.084-1.171-1.546-2.633-2.434-4.385-2.662m-2.714 30.215 1.113-8.526 9.912 1.294.348-2.662-22.084-2.882-.348 2.662 9.885 1.29-1.112 8.525z" style="fill:#221f1f;stroke-width:30.7368"/><path fill="none" stroke="#221f1f" stroke-miterlimit="10" stroke-width="2.08625" d="M206.953 14.97c-1.1.883-1.753 2.112-1.945 3.686-.205 1.523.102 2.867.934 4.032.755 1.062 1.728 1.663 2.918 1.817 1.165.154 2.253-.192 3.264-1.011 1.1-.909 1.754-2.125 1.946-3.648.204-1.574-.103-2.93-.935-4.07-.78-1.037-1.74-1.638-2.905-1.779-1.19-.154-2.278.166-3.277.973zm8-.909c1.28 1.702 1.766 3.724 1.459 6.08-.307 2.342-1.293 4.172-2.957 5.478-1.536 1.215-3.174 1.715-4.927 1.484-1.792-.23-3.264-1.139-4.442-2.7-1.254-1.703-1.728-3.712-1.42-6.054.307-2.355 1.28-4.198 2.93-5.504 1.536-1.203 3.188-1.677 4.98-1.446 1.753.23 3.212 1.113 4.377 2.662zm-9.382 27.25 1.114-8.525-9.881-1.28.345-2.662 22.079 2.88-.346 2.662-9.906-1.293-1.114 8.524z"/><path d="m261.298 30.255.985-2.497-19.187-7.574-.985 2.497 8.04 3.174c-.906 2.053-2.389 3.21-4.448 3.468-1.54.196-3.486-.121-5.838-.952l-.961 2.434c2.006.694 3.808 1.064 5.405 1.11 2.445.064 4.465-.624 6.06-2.065.148 2.129 1.12 3.998 2.917 5.609 1.181 1.05 2.783 2.024 4.805 2.92l.973-2.466c-2.318-1.013-3.973-2.116-4.964-3.311-1.32-1.569-1.6-3.409-.842-5.52l8.04 3.173m-18.066 20.78 3.656-9.26 9.297 3.67.986-2.498-20.716-8.177-.986 2.497 9.273 3.66-3.655 9.262z" style="fill:#221f1f;stroke-width:30.7368"/><path fill="none" stroke="#221f1f" stroke-miterlimit="10" stroke-width="2.08625" d="M253.26 27.083c-.756 2.112-.474 3.955.844 5.516.985 1.203 2.65 2.304 4.966 3.315l-.973 2.47c-2.022-.895-3.635-1.868-4.812-2.918-1.792-1.612-2.765-3.481-2.919-5.619-1.587 1.447-3.609 2.138-6.053 2.074-1.6-.051-3.405-.422-5.414-1.114l.96-2.431c2.354.832 4.3 1.139 5.849.947 2.06-.256 3.532-1.408 4.44-3.469l-8.037-3.174.986-2.496 19.185 7.577-.985 2.496zm-12.173 23.102 3.66-9.254-9.279-3.66.986-2.496 20.722 8.179-.986 2.496-9.305-3.674-3.648 9.267z"/><path d="M285.635 45.557c.79.566 1.257 1.373 1.397 2.421.13 1.124-.167 2.193-.892 3.206-.711.995-1.62 1.612-2.726 1.851-1.051.223-1.972.051-2.762-.514-.777-.556-1.23-1.367-1.357-2.433-.115-1.114.182-2.168.895-3.163.724-1.013 1.633-1.645 2.725-1.894 1.038-.205 1.944-.03 2.72.526m5.409 3.787 1.443-2.017-4.182-2.994 1.621-2.266-2.113-1.512-1.621 2.266-4.42-3.163-1.444 2.017 1.703 1.22c-.715.24-1.364.569-1.946.988a7.846 7.846 0 0 0-1.706 1.746c-1.147 1.603-1.607 3.293-1.38 5.072.223 1.663.959 2.942 2.21 3.837 1.25.895 2.698 1.18 4.345.853 1.785-.338 3.25-1.308 4.398-2.911.5-.7.86-1.446 1.079-2.237a6.653 6.653 0 0 0 .266-2.149l1.746 1.25m6.643 9.35 1.543-2.155-2.609-1.867 2.749-3.841-1.919-1.373-7.633 10.667 1.918 1.373 3.343-4.67 2.608 1.867m-8.343 6.147-16.107-11.527-1.542 2.156 14.187 10.153-4.924 6.88 1.919 1.374z" style="fill:#221f1f;stroke-width:30.7365"/><path fill="none" stroke="#221f1f" stroke-miterlimit="10" stroke-width="2.08625" d="M282.913 45.028c-1.088.256-1.996.884-2.726 1.895-.717.998-1.011 2.048-.896 3.161.128 1.062.589 1.882 1.357 2.432.793.563 1.715.742 2.764.512 1.101-.23 2.01-.858 2.727-1.843.73-1.011 1.024-2.086.896-3.213-.141-1.05-.615-1.856-1.396-2.419-.78-.55-1.689-.73-2.726-.525zm6.387 3.06a6.89 6.89 0 0 1-.269 2.15 6.856 6.856 0 0 1-1.088 2.24c-1.139 1.6-2.61 2.572-4.39 2.918-1.65.32-3.097.038-4.352-.858-1.241-.896-1.983-2.176-2.2-3.84-.231-1.779.23-3.468 1.381-5.068a7.646 7.646 0 0 1 1.703-1.753 7.514 7.514 0 0 1 1.945-.986l-1.702-1.216 1.446-2.022 4.416 3.161 1.625-2.265 2.112 1.51-1.625 2.278 4.185 2.982-1.446 2.023zm5.772 8.741-3.34 4.672-1.92-1.382 7.641-10.662 1.92 1.37-2.752 3.84 2.611 1.868-1.549 2.163zm-12.197 17.049-1.92-1.37 4.928-6.886-14.195-10.15 1.55-2.163 16.1 11.532z"/><path d="M317.686 73.905c.689.807.944 1.821.764 3.043-.184 1.25-.785 2.308-1.801 3.175-1.017.868-2.166 1.302-3.446 1.302-1.268.015-2.247-.382-2.936-1.189-.711-.833-.966-1.882-.764-3.147.202-1.264.812-2.33 1.828-3.198 1.016-.867 2.156-1.294 3.42-1.28 1.245.03 2.224.46 2.935 1.294m4.561 5.24 1.99-1.698-3.648-4.276 2.12-1.809-1.687-1.976-2.12 1.809-3.717-4.357-1.99 1.699.723.847.894 1.049a6.652 6.652 0 0 0-2.55.363 7.6 7.6 0 0 0-2.446 1.425c-1.671 1.427-2.62 3.072-2.845 4.938-.219 1.767.251 3.33 1.41 4.687 1.135 1.332 2.587 2.021 4.356 2.069 1.848.072 3.617-.612 5.306-2.053.775-.662 1.376-1.407 1.8-2.234a6.495 6.495 0 0 0 .752-2.419l1.24 1.452.413.484m-15.592 19.579 1.532 1.795 21.558-18.397-1.531-1.795L311.8 94.334l-6.866-8.047 5.35-4.566-1.48-1.734-5.35 4.566-4.045-4.74-2.016 1.72 12.391 14.522z" style="fill:#221f1f;stroke-width:30.7366"/><path fill="none" stroke="#221f1f" stroke-miterlimit="10" stroke-width="2.08625" d="M314.75 72.612c-1.266-.013-2.405.41-3.416 1.28-1.024.87-1.626 1.932-1.83 3.2-.206 1.266.05 2.316.767 3.148.691.806 1.664 1.203 2.931 1.19 1.28 0 2.432-.435 3.443-1.305 1.024-.87 1.626-1.933 1.805-3.175.179-1.228-.077-2.24-.768-3.046-.704-.832-1.69-1.267-2.931-1.292zm7.079 6.054-1.229-1.46a6.59 6.59 0 0 1-.755 2.42c-.422.831-1.024 1.574-1.805 2.24-1.69 1.433-3.456 2.124-5.299 2.047-1.779-.051-3.225-.73-4.364-2.073-1.152-1.357-1.626-2.918-1.408-4.685.23-1.856 1.178-3.507 2.841-4.94.768-.64 1.575-1.114 2.458-1.42a6.613 6.613 0 0 1 2.547-.36l-.896-1.049-.73-.845 1.997-1.702 3.712 4.352 2.124-1.805 1.69 1.971-2.125 1.818 3.648 4.275-1.984 1.69zM309.785 96.06l-12.39-14.527 2.01-1.716 4.044 4.736 5.35-4.57 1.485 1.742-5.35 4.556 6.873 8.05 16.409-14.002 1.535 1.792-21.566 18.393-1.523-1.792z"/><path d="M339.368 112.1c-.966-1.88-2.734-2.034-4.218-1.272-1.485.762-2.438 2.315-1.472 4.195.966 1.88 2.783 2.01 4.267 1.247 1.484-.762 2.389-2.29 1.423-4.17z" style="fill:#030404;stroke-width:55.6214"/><g fill="#030404" clip-path="url(#k)" transform="translate(-705.447 -22.206)"><use xlink:href="#l" width="100%" height="100%" transform="matrix(-.3286 1.4835 1.6593 .3676 638.625 65.706)"/><use xlink:href="#m" width="100%" height="100%" transform="matrix(-.2661 1.4959 1.6732 .2976 638.526 66.129)"/><use xlink:href="#n" width="100%" height="100%" transform="matrix(-.1804 1.5087 1.6875 .2018 638.356 67.098)"/><use xlink:href="#o" width="100%" height="100%" transform="matrix(-.0991 1.5162 1.6959 .1109 638.251 67.99)"/><use xlink:href="#l" width="100%" height="100%" transform="matrix(-.039 1.5189 1.699 .0436 638.199 68.867)"/><use xlink:href="#p" width="100%" height="100%" transform="matrix(.0288 1.5191 1.6992 -.0322 638.181 69.33)"/><use xlink:href="#q" width="100%" height="100%" transform="matrix(.1342 1.5135 1.6929 -.1501 638.201 70.417)"/><use xlink:href="#r" width="100%" height="100%" transform="matrix(.2444 1.4996 1.6774 -.2734 638.316 71.667)"/><use xlink:href="#s" width="100%" height="100%" transform="matrix(.3471 1.4792 1.6546 -.3883 638.509 72.823)"/><use xlink:href="#t" width="100%" height="100%" transform="matrix(.4451 1.4528 1.6249 -.4979 638.758 73.874)"/><use xlink:href="#u" width="100%" height="100%" transform="matrix(.547 1.4176 1.5856 -.6118 639.078 74.916)"/><use xlink:href="#l" width="100%" height="100%" transform="matrix(.6189 1.3877 1.5522 -.6922 639.5 75.982)"/><use xlink:href="#v" width="100%" height="100%" transform="matrix(.6861 1.3557 1.5164 -.7673 639.685 76.412)"/><use xlink:href="#q" width="100%" height="100%" transform="matrix(.7879 1.2992 1.4532 -.8813 640.179 77.388)"/><use xlink:href="#w" width="100%" height="100%" transform="matrix(.891 1.2308 1.3767 -.9966 640.84 78.47)"/><use xlink:href="#x" width="100%" height="100%" transform="matrix(.9573 1.1799 1.3197 -1.0708 641.524 79.395)"/><use xlink:href="#s" width="100%" height="100%" transform="matrix(1.0186 1.1275 1.2611 -1.1393 641.818 79.768)"/><use xlink:href="#m" width="100%" height="100%" transform="matrix(1.099 1.0492 1.1736 -1.2292 642.553 80.576)"/><use xlink:href="#y" width="100%" height="100%" transform="matrix(1.1751 .9632 1.0774 -1.3144 643.282 81.27)"/><use xlink:href="#l" width="100%" height="100%" transform="matrix(1.2264 .897 1.0033 -1.3717 644.093 81.924)"/><use xlink:href="#z" width="100%" height="100%" transform="matrix(1.2558 .8553 .9567 -1.4047 644.455 82.188)"/><use xlink:href="#A" width="100%" height="100%" transform="matrix(1.2985 .789 .8825 -1.4524 644.843 82.457)"/><use xlink:href="#B" width="100%" height="100%" transform="matrix(1.341 .7144 .799 -1.5 645.617 82.92)"/><use xlink:href="#l" width="100%" height="100%" transform="matrix(1.3678 .6616 .7401 -1.5299 646.093 83.172)"/><use xlink:href="#t" width="100%" height="100%" transform="matrix(1.4018 .5861 .6556 -1.568 646.442 83.35)"/><use xlink:href="#s" width="100%" height="100%" transform="matrix(1.4486 .4585 .5128 -1.6203 647.47 83.775)"/><use xlink:href="#r" width="100%" height="100%" transform="matrix(1.4855 .3194 .3572 -1.6615 648.536 84.11)"/><use xlink:href="#q" width="100%" height="100%" transform="matrix(1.5105 .1648 .1844 -1.6895 649.721 84.361)"/><use xlink:href="#u" width="100%" height="100%" transform="matrix(1.5192 .0275 .0308 -1.6992 651 84.487)"/><use xlink:href="#t" width="100%" height="100%" transform="matrix(1.5135 -.1335 -.1494 -1.6929 652.207 84.495)"/><use xlink:href="#C" width="100%" height="100%" transform="matrix(1.494 -.2769 -.3097 -1.6711 653.32 84.394)"/><use xlink:href="#m" width="100%" height="100%" transform="matrix(1.4625 -.412 -.4609 -1.6358 654.498 84.167)"/><use xlink:href="#x" width="100%" height="100%" transform="matrix(1.4353 -.4986 -.5577 -1.6054 655.446 83.89)"/><use xlink:href="#w" width="100%" height="100%" transform="matrix(1.399 -.5928 -.6631 -1.5648 655.912 83.737)"/><use xlink:href="#t" width="100%" height="100%" transform="matrix(1.3393 -.7176 -.8026 -1.498 657.012 83.263)"/><use xlink:href="#D" width="100%" height="100%" transform="matrix(1.2796 -.8194 -.9165 -1.4312 657.974 82.741)"/><use xlink:href="#l" width="100%" height="100%" transform="matrix(1.24 -.8781 -.9822 -1.3869 658.67 82.29)"/><use xlink:href="#E" width="100%" height="100%" transform="matrix(1.1939 -.9398 -1.0512 -1.3354 659.057 82.02)"/><use xlink:href="#F" width="100%" height="100%" transform="matrix(1.1287 -1.0172 -1.1377 -1.2625 659.774 81.453)"/><use xlink:href="#G" width="100%" height="100%" transform="matrix(1.0605 -1.0882 -1.2171 -1.1861 660.45 80.84)"/><use xlink:href="#l" width="100%" height="100%" transform="matrix(1.0077 -1.1372 -1.272 -1.1271 661.067 80.199)"/><use xlink:href="#v" width="100%" height="100%" transform="matrix(.9465 -1.1886 -1.3295 -1.0587 661.384 79.851)"/><use xlink:href="#H" width="100%" height="100%" transform="matrix(.8564 -1.2551 -1.4039 -.9579 662.063 78.993)"/><use xlink:href="#t" width="100%" height="100%" transform="matrix(.7748 -1.307 -1.4619 -.8667 662.607 78.199)"/><use xlink:href="#w" width="100%" height="100%" transform="matrix(.6767 -1.3604 -1.5217 -.7569 663.162 77.259)"/><use xlink:href="#s" width="100%" height="100%" transform="matrix(.5769 -1.4057 -1.5723 -.6453 663.68 76.208)"/><use xlink:href="#l" width="100%" height="100%" transform="matrix(.5085 -1.4318 -1.6015 -.5688 664.075 75.224)"/><use xlink:href="#v" width="100%" height="100%" transform="matrix(.4395 -1.4545 -1.6269 -.4916 664.237 74.784)"/><use xlink:href="#w" width="100%" height="100%" transform="matrix(.3375 -1.4815 -1.6571 -.3775 664.55 73.747)"/><use xlink:href="#x" width="100%" height="100%" transform="matrix(.2639 -1.4963 -1.6737 -.2952 664.795 72.628)"/><use xlink:href="#s" width="100%" height="100%" transform="matrix(.195 -1.5069 -1.6855 -.2182 664.881 72.174)"/><use xlink:href="#u" width="100%" height="100%" transform="matrix(.0929 -1.5166 -1.6963 -.104 665.02 71.098)"/><use xlink:href="#w" width="100%" height="100%" transform="matrix(-.022 -1.5193 -1.6993 .0246 665.092 69.927)"/><use xlink:href="#s" width="100%" height="100%" transform="matrix(-.1123 -1.5153 -1.6949 .1256 665.076 68.771)"/><use xlink:href="#v" width="100%" height="100%" transform="matrix(-.2099 -1.5049 -1.6832 .2348 664.994 67.697)"/></g><path d="M26.722 120.935Z" style="fill:#030404;stroke-width:20.1524"/><path d="m23.464 130.766 11.872 3.579 1.194-3.961 2.418.728-3.199 10.61-2.417-.73 1.192-3.952-11.873-3.579z" style="fill:#030404;stroke-width:20.1528"/><path d="m34.716 145.873-5.338-1.306c.85 1.095 1.13 2.225.845 3.389a3.707 3.707 0 0 1-.751 1.53c-.355.422-.746.71-1.175.863-.429.152-.878.219-1.348.198-.47-.02-1.177-.145-2.12-.376l-6.16-1.507.634-2.596 5.541 1.355c1.1.27 1.81.39 2.13.365a1.4 1.4 0 0 0 .835-.35c.236-.206.4-.498.492-.873.102-.431.09-.844-.052-1.237-.14-.394-.417-.724-.83-.992-.412-.267-1.06-.509-1.943-.725l-5.255-1.285.635-2.596 14.498 3.546z" style="fill:#030404;stroke-width:20.153"/><path d="m20.261 158.24-.984 2.523c-.958-.534-1.635-1.215-2.03-2.043-.395-.829-.487-1.787-.277-2.877.332-1.725 1.181-2.885 2.547-3.48 1.093-.468 2.375-.56 3.848-.276 1.76.34 3.054 1.034 3.885 2.086.83 1.05 1.12 2.233.867 3.547-.285 1.476-1.03 2.54-2.238 3.191-1.207.652-2.884.752-5.03.3l1.268-6.575c-.837-.142-1.526-.055-2.067.26-.541.316-.87.776-.987 1.38-.076.41-.025.78.16 1.106.186.326.531.612 1.037.858m2.81.697c.813.137 1.467.06 1.96-.233.495-.292.793-.706.895-1.241.115-.573-.025-1.09-.393-1.548-.372-.46-.942-.76-1.706-.9zM16.206 161.405Z" style="fill:#030404;stroke-width:20.1529"/><path d="m15.002 168.79 14.85 1.49-.28 2.801-6.6-.662 6.031 6.322-.377 3.766-5.253-5.804-9.626 4.597.363-3.624 7.358-3.114-2.26-2.52-4.487-.451zM21.013 183.457c1.522.01 2.798.23 3.829.662.759.322 1.439.759 2.04 1.311.602.553 1.046 1.156 1.335 1.811.388.872.58 1.875.572 3.01-.013 2.054-.707 3.694-2.08 4.918-1.375 1.225-3.278 1.83-5.71 1.814-2.413-.016-4.297-.64-5.652-1.872-1.355-1.233-2.025-2.873-2.012-4.92.012-2.074.701-3.719 2.065-4.934 1.363-1.215 3.235-1.815 5.613-1.8m.09 2.902c-1.69-.01-2.973.345-3.85 1.07-.877.723-1.319 1.646-1.326 2.768-.007 1.122.42 2.046 1.28 2.771.862.726 2.157 1.094 3.887 1.105 1.71.01 2.989-.331 3.835-1.027.846-.695 1.273-1.623 1.28-2.783.007-1.16-.412-2.099-1.26-2.814-.847-.716-2.129-1.08-3.846-1.09z" style="fill:#030404;stroke-width:20.153"/><path d="M13.75 200.313 28.618 199l.52 5.902c.131 1.485.09 2.575-.114 3.271-.208.696-.635 1.277-1.283 1.741-.647.465-1.41.736-2.289.813-1.116.099-2.064-.126-2.845-.675-.78-.548-1.32-1.424-1.617-2.626-.325.64-.696 1.177-1.114 1.612-.419.434-1.177 1.037-2.273 1.809l-2.751 1.952-.296-3.354 3.058-2.313c1.091-.822 1.776-1.38 2.054-1.67.278-.293.46-.592.544-.899.09-.306.102-.782.038-1.426l-.051-.569-6.207.548-.247-2.804m8.828 2.047.183 2.075c.115 1.345.253 2.18.404 2.504.151.324.384.568.698.73.314.164.695.226 1.14.187.5-.045.893-.205 1.179-.482.285-.276.449-.646.49-1.108.013-.23-.026-.914-.13-2.05l-.193-2.19z" style="fill:#030404;stroke-width:20.1533"/><path d="m15.287 215.457 14.695-2.614 1.81 10.178-2.485.442-1.318-7.406-3.247.578 1.226 6.891-2.486.443-1.226-6.892-3.99.71 1.365 7.669-2.486.442z" style="fill:#030404;stroke-width:20.1528"/><path d="m21.164 241.419-.796-2.957 2.967-2.06-1.45-5.382-3.583-.227-.777-2.883 15.825 1.36.774 2.875-12.96 9.274m4.374-6.547 4.828-3.29-5.818-.383z" style="fill:#030404;stroke-width:20.1532"/><path d="m22.04 243.96 14.006-5.16.947 2.57-7.4 8.808 9.373-3.454.905 2.455-14.005 5.16-.977-2.65 7.215-8.65-9.158 3.376zM26.797 256.42ZM33.801 260.451l1.498 2.312c-.805.595-1.3 1.222-1.484 1.882-.183.66-.077 1.37.307 2.133.412.808.905 1.323 1.481 1.546.576.222 1.11.208 1.601-.043.315-.16.54-.383.673-.668.133-.285.173-.684.116-1.197-.039-.35-.189-1.118-.442-2.305-.328-1.527-.369-2.694-.128-3.502.344-1.137 1.044-1.973 2.098-2.51a4.045 4.045 0 0 1 2.179-.433c.774.058 1.487.346 2.14.863.653.518 1.223 1.254 1.71 2.209.794 1.56 1.024 2.92.69 4.083-.334 1.162-1.103 2.076-2.31 2.741l-1.38-2.453c.629-.455 1.004-.936 1.123-1.441.115-.506 0-1.112-.36-1.818-.372-.729-.824-1.218-1.354-1.467a1.112 1.112 0 0 0-1.03.023c-.314.16-.52.422-.617.785-.128.46-.026 1.38.284 2.758.312 1.378.453 2.443.42 3.196a4.093 4.093 0 0 1-.655 2.063c-.404.622-1.027 1.148-1.87 1.577a4.637 4.637 0 0 1-2.446.5 4.07 4.07 0 0 1-2.34-.92c-.693-.559-1.315-1.377-1.864-2.456-.8-1.571-1.026-2.976-.676-4.214.35-1.239 1.228-2.32 2.635-3.243z" style="fill:#030404;stroke-width:20.1529"/><path d="M42.267 271.394c1.291-.806 2.487-1.302 3.589-1.489a7.069 7.069 0 0 1 2.425.017c.804.145 1.503.417 2.096.816.795.528 1.492 1.274 2.093 2.237 1.088 1.742 1.379 3.498.873 5.268-.506 1.77-1.79 3.298-3.855 4.587-2.046 1.277-3.972 1.758-5.775 1.441-1.804-.316-3.248-1.343-4.333-3.08-1.098-1.76-1.395-3.517-.893-5.273.503-1.756 1.762-3.264 3.78-4.524m1.622 2.407c-1.433.895-2.327 1.883-2.68 2.963-.354 1.08-.234 2.097.36 3.049s1.45 1.504 2.564 1.656c1.115.153 2.407-.23 3.875-1.146 1.451-.906 2.348-1.878 2.691-2.918.343-1.04.208-2.053-.407-3.037-.614-.984-1.47-1.552-2.57-1.704-1.097-.15-2.376.228-3.832 1.137z" style="fill:#030404;stroke-width:20.1524"/><path d="m54.865 293.283.913 2.73c-1.56.654-2.95.833-4.173.536-1.22-.297-2.283-1.043-3.185-2.237-1.116-1.477-1.492-3.1-1.129-4.868.364-1.769 1.484-3.362 3.36-4.78 1.985-1.498 3.888-2.185 5.708-2.058 1.82.127 3.32.97 4.496 2.528 1.028 1.36 1.432 2.792 1.211 4.294-.128.892-.574 1.825-1.338 2.8l-2.249-1.795c.519-.598.799-1.24.841-1.928.039-.687-.162-1.33-.613-1.926-.623-.825-1.445-1.255-2.467-1.29-1.021-.034-2.241.484-3.66 1.555-1.506 1.138-2.387 2.2-2.644 3.19-.257.988-.077 1.887.532 2.697a2.71 2.71 0 0 0 1.775 1.079c.732.122 1.607-.054 2.623-.527z" style="fill:#030404;stroke-width:20.1532"/><path d="m54.146 301.074 11.362-9.678 1.825 2.143-11.361 9.678z" style="fill:#030404;stroke-width:20.1528"/><path d="m58.076 305.704 10.816-10.284 7.123 7.493-1.83 1.74-5.183-5.453-2.39 2.273 4.823 5.073-1.83 1.74-4.823-5.073-2.937 2.792 5.367 5.645-1.83 1.74z" style="fill:#030404;stroke-width:20.153"/><path d="m70.104 317.784 8.326-9.189-3.066-2.778 1.695-1.87 8.211 7.44-1.695 1.87-3.059-2.771-8.326 9.189z" style="fill:#030404;stroke-width:20.1529"/><path d="m80.245 326.444 3.86-4.956 1.28-9.957 2.604 2.027-1.044 6.682 6.17-2.69 2.558 1.992-9.368 3.686-3.847 4.94z" style="fill:#030404;stroke-width:20.1524"/><path d="M86.76 331.383Z" style="fill:#030404;stroke-width:20.1527"/><path d="m97.521 325.707 1.247.805.442-.686c.495-.766.94-1.288 1.335-1.568.396-.279.873-.406 1.434-.38.56.026 1.153.24 1.776.643.639.412 1.2.919 1.68 1.52l-1.387 1.48a4.957 4.957 0 0 0-.942-.802c-.325-.21-.61-.279-.857-.206-.247.071-.52.34-.82.804l-.416.644 1.679 1.084-1.227 1.898-1.678-1.083-4.638 7.185-2.246-1.45 4.639-7.184-1.247-.805z" style="fill:#030404;stroke-width:20.1528"/><path d="M100.866 334.144a6.17 6.17 0 0 1 1.936-2.073c.82-.556 1.694-.84 2.623-.85.93-.01 1.823.23 2.682.72 1.329.756 2.154 1.837 2.477 3.243.323 1.406.09 2.814-.72 4.223-.808 1.422-1.908 2.356-3.297 2.803-1.389.447-2.734.3-4.034-.44a5.549 5.549 0 0 1-1.97-1.894 4.46 4.46 0 0 1-.69-2.66c.05-.968.378-1.992.992-3.072m2.305 1.488c-.528.93-.727 1.758-.595 2.488.132.729.502 1.266 1.107 1.611.607.345 1.256.387 1.947.127.691-.26 1.305-.861 1.841-1.802.522-.917.72-1.74.59-2.467-.13-.728-.497-1.264-1.103-1.61-.607-.344-1.257-.388-1.951-.129-.695.259-1.307.853-1.836 1.782zM111.94 346.48l-2.397-1.182 4.783-9.697 2.226 1.098-.68 1.38c.703-.464 1.257-.724 1.663-.781a2.01 2.01 0 0 1 1.19.2c.546.27.991.69 1.339 1.263l-1.846 1.87c-.266-.479-.572-.804-.919-.975a1.421 1.421 0 0 0-1-.124c-.33.083-.69.35-1.078.801-.39.452-.991 1.503-1.804 3.152zM115.576 348.24Z" style="fill:#030404;stroke-width:20.1529"/><path d="m133.475 355.479-2.864-1.086.064-3.611-5.211-1.977-2.282 2.772-2.792-1.059 10.37-12.03 2.783 1.056-.077 15.935m-2.746-7.378.16-5.841-3.717 4.492z" style="fill:#030404;stroke-width:20.1527"/><path d="m135.981 356.224 4.073-14.36 9.946 2.821-.689 2.43-7.237-2.053-.9 3.173 6.734 1.91-.688 2.43-6.735-1.91-1.106 3.898 7.494 2.125-.688 2.429z" style="fill:#030404;stroke-width:20.1529"/><path d="m149.554 359.922 2.808-14.66 5.82 1.115c1.463.28 2.502.616 3.114 1.006.613.39 1.054.96 1.324 1.71s.321 1.558.155 2.425c-.211 1.1-.688 1.95-1.428 2.55-.741.602-1.731.88-2.969.837.526.488.94.992 1.245 1.513.304.522.676 1.415 1.12 2.682l1.123 3.18-3.307-.634-1.388-3.573c-.491-1.276-.84-2.087-1.044-2.433-.205-.347-.443-.603-.714-.77-.272-.165-.725-.31-1.36-.431l-.561-.108-1.172 6.12-2.765-.53m4.385-7.93 2.046.392c1.326.255 2.166.353 2.519.296a1.53 1.53 0 0 0 .895-.471c.243-.258.407-.606.491-1.046.09-.493.051-.915-.14-1.266-.188-.35-.497-.608-.931-.774-.218-.077-.887-.222-2.008-.437l-2.158-.413z" style="fill:#030404;stroke-width:20.153"/><path d="M164.744 355.244c.142-1.516.472-2.768.991-3.757a7.085 7.085 0 0 1 1.484-1.919c.603-.55 1.243-.942 1.92-1.172.903-.31 1.918-.413 3.048-.307 2.045.191 3.618 1.025 4.718 2.5 1.101 1.475 1.537 3.424 1.31 5.846-.225 2.402-1.011 4.225-2.356 5.467-1.346 1.242-3.038 1.768-5.077 1.577-2.064-.194-3.643-1.023-4.734-2.487-1.092-1.464-1.527-3.38-1.305-5.749m2.898.17c-.158 1.683.09 2.992.73 3.928.646.937 1.526 1.457 2.644 1.562 1.117.105 2.074-.24 2.872-1.034.797-.794 1.277-2.053 1.438-3.776.16-1.703-.064-3.006-.689-3.91-.62-.903-1.506-1.409-2.661-1.517-1.156-.11-2.126.228-2.913 1.01-.787.782-1.26 2.027-1.42 3.737z" style="fill:#030404;stroke-width:20.1524"/><path d="m180.864 363.942-.025-14.926 2.739-.005 5.724 9.979-.012-9.989 2.615-.005.026 14.926-2.825.005-5.639-9.75.013 9.76z" style="fill:#030404;stroke-width:20.1533"/><path d="m208.616 362.556-3.05.285-1.528-3.272-5.55.52-.829 3.493-2.973.278 4.015-15.367 2.964-.277 6.95 14.34m-5.713-5.417-2.427-5.315-1.36 5.67z" style="fill:#030404;stroke-width:20.1528"/><path d="m208.492 347.459 2.768-.514 1.475 7.948c.234 1.26.42 2.072.558 2.433.23.579.601 1.008 1.115 1.29.513.28 1.155.35 1.93.206.785-.146 1.345-.428 1.68-.846a2.1 2.1 0 0 0 .485-1.4c-.012-.515-.128-1.353-.342-2.515l-1.506-8.118 2.768-.513 1.431 7.713c.328 1.762.484 3.022.469 3.777-.013.756-.177 1.422-.485 1.997-.31.575-.773 1.074-1.391 1.496-.619.422-1.47.734-2.555.935-1.309.243-2.332.266-3.068.067-.736-.198-1.35-.52-1.838-.964a4.217 4.217 0 0 1-1.078-1.484c-.336-.808-.658-2.033-.962-3.676zM229.043 358.358l-3.25-11.967-3.992 1.084-.662-2.436 10.694-2.904.661 2.437-3.983 1.081 3.25 11.967zM237.94 355.76l-4.674-14.174 2.673-.882 4.674 14.174z" style="fill:#030404;stroke-width:20.1527"/><path d="m250.117 345.43 2.875-.157c.216 1.678.026 3.066-.591 4.165-.61 1.099-1.612 1.925-3.002 2.477-1.72.684-3.385.616-4.994-.203-1.609-.82-2.847-2.322-3.716-4.508-.918-2.311-1.075-4.328-.47-6.05.606-1.721 1.816-2.942 3.631-3.664 1.585-.63 3.072-.639 4.462-.027.826.36 1.607 1.038 2.343 2.034l-2.326 1.691c-.44-.658-.984-1.098-1.636-1.321-.651-.224-1.325-.197-2.02.079-.96.381-1.593 1.06-1.898 2.036-.305.976-.13 2.29.527 3.942.696 1.754 1.488 2.886 2.373 3.396.886.51 1.8.577 2.742.203a2.71 2.71 0 0 0 1.511-1.425c.313-.674.375-1.563.189-2.669z" style="fill:#030404;stroke-width:20.1533"/><path d="m269.1 342.464-2.738 1.37-2.61-2.496-4.985 2.493.492 3.556-2.671 1.336-1.82-15.778 2.662-1.332 11.67 10.851m-7.286-2.98-4.187-4.076.784 5.777z" style="fill:#030404;stroke-width:20.1532"/><path d="m271.292 341.146-7.637-12.68 2.411-1.453 6.335 10.517 5.997-3.611 1.302 2.163z" style="fill:#030404;stroke-width:20.153"/><path d="M280.352 335.59Z" style="fill:#030404;stroke-width:20.1528"/><path d="m283.546 324.317-2.225 1.072c-.414-1.012-.505-1.921-.274-2.727.23-.805.871-1.6 1.925-2.383.956-.712 1.758-1.12 2.407-1.227.648-.106 1.207-.043 1.674.188.469.231 1.073.845 1.815 1.842l1.97 2.696c.567.762 1.02 1.299 1.358 1.61a6.41 6.41 0 0 0 1.252.877l-2.121 1.578a11.558 11.558 0 0 1-.71-.524 5.31 5.31 0 0 0-.277-.213 4.684 4.684 0 0 1-.538 1.732 3.95 3.95 0 0 1-1.122 1.28c-.835.62-1.671.868-2.511.743-.84-.126-1.534-.556-2.083-1.294-.363-.488-.577-1.004-.642-1.55a2.774 2.774 0 0 1 .266-1.562c.243-.497.68-1.097 1.309-1.802.852-.946 1.408-1.65 1.665-2.11l-.171-.232c-.332-.446-.67-.688-1.015-.727-.344-.038-.8.152-1.364.572-.382.284-.618.588-.71.911-.089.323-.05.74.129 1.25m4.254-.272c-.202.301-.551.74-1.046 1.318-.496.577-.786.999-.873 1.264-.128.418-.064.789.175 1.111.237.318.552.51.948.574.396.065.767-.032 1.113-.289.386-.287.655-.696.806-1.227a1.79 1.79 0 0 0-.051-1.13c-.09-.236-.334-.625-.739-1.169z" style="fill:#030404;stroke-width:20.1527"/><path d="m302.692 318.476-2.03 1.738-3.585-4.188c-.757-.886-1.292-1.422-1.6-1.608a1.583 1.583 0 0 0-.943-.244 1.516 1.516 0 0 0-.89.386c-.351.301-.578.674-.682 1.12-.102.445-.064.881.128 1.31.187.429.674 1.101 1.458 2.018l3.18 3.717-2.03 1.737-7.03-8.214 1.886-1.614 1.033 1.206c-.128-1.501.321-2.687 1.338-3.556a3.783 3.783 0 0 1 1.45-.793c.518-.144.988-.164 1.408-.058.42.104.812.296 1.179.572.366.277.82.732 1.363 1.366z" style="fill:#030404;stroke-width:20.1529"/><path d="m311.918 309.536-1.766 1.745-1.116-1.13c.141.73.116 1.398-.064 2.008-.187.609-.483 1.114-.89 1.515-.825.816-1.883 1.158-3.176 1.027-1.292-.13-2.568-.833-3.827-2.108-1.288-1.303-1.98-2.577-2.078-3.822-.102-1.244.292-2.298 1.166-3.163.803-.793 1.85-1.122 3.143-.987l-3.778-3.824 1.901-1.878 10.49 10.617m-9.035 1.005c.81.82 1.502 1.308 2.076 1.465.83.227 1.52.07 2.071-.474.438-.433.613-1 .528-1.7-.09-.7-.52-1.447-1.302-2.237-.871-.883-1.648-1.37-2.329-1.465-.68-.093-1.254.089-1.718.548-.45.446-.64 1.01-.566 1.694.077.684.488 1.407 1.24 2.17zM313.127 308.205Z" style="fill:#030404;stroke-width:20.1528"/><path d="m313.964 300.178 1.51-2.304c.87.497 1.643.696 2.32.597.677-.098 1.287-.479 1.827-1.142.574-.703.845-1.363.816-1.98-.026-.616-.258-1.099-.685-1.447a1.426 1.426 0 0 0-.885-.346c-.315-.007-.696.118-1.143.376-.303.178-.945.623-1.93 1.335-1.264.916-2.315 1.425-3.153 1.528-1.179.144-2.227-.158-3.144-.906a4.05 4.05 0 0 1-1.275-1.818c-.26-.73-.285-1.5-.077-2.306.21-.807.653-1.625 1.33-2.456 1.106-1.357 2.257-2.117 3.455-2.282 1.198-.165 2.346.17 3.441 1.006l-1.683 2.26c-.671-.39-1.261-.539-1.772-.444-.511.095-1.017.45-1.518 1.064-.517.634-.782 1.244-.794 1.83-.01.377.135.688.436.932.274.223.596.306.968.249.472-.075 1.274-.532 2.408-1.375s2.052-1.401 2.754-1.676a4.036 4.036 0 0 1 2.152-.234c.732.117 1.464.476 2.197 1.073a4.64 4.64 0 0 1 1.446 2.036c.3.817.334 1.655.102 2.514-.23.859-.728 1.758-1.493 2.696-1.114 1.367-2.307 2.14-3.582 2.32-1.274.181-2.617-.186-4.03-1.1z" style="fill:#030404;stroke-width:20.1525"/><path d="m326.9 291.73-12.287-8.471 2.564-3.72c.971-1.41 1.666-2.286 2.084-2.63.638-.53 1.418-.805 2.34-.823.923-.018 1.873.308 2.85.982.754.52 1.299 1.084 1.636 1.694.337.61.517 1.213.538 1.809a3.928 3.928 0 0 1-.247 1.603c-.265.634-.758 1.476-1.482 2.525l-1.042 1.512 4.644 3.2-1.598 2.319m-8.611-9.356 3.486 2.404.875-1.269c.63-.914.986-1.569 1.07-1.965.09-.397.05-.777-.103-1.14a2.117 2.117 0 0 0-.774-.922c-.447-.308-.9-.44-1.36-.394-.46.044-.855.23-1.187.556-.247.238-.658.775-1.234 1.61zM340.247 270.598l-1.544 2.645-3.55-.663-2.81 4.813 2.356 2.709-1.506 2.579-10.15-12.216 1.5-2.57 15.704 2.703m-7.73 1.49-5.734-1.124 3.816 4.409z" style="fill:#030404;stroke-width:20.1528"/><path d="m340.246 257.809 1.99-2.081c1.306 1.076 2.112 2.223 2.418 3.443.306 1.219.141 2.506-.495 3.86-.787 1.676-2.048 2.765-3.782 3.267-1.734.502-3.665.254-5.793-.746-2.252-1.058-3.745-2.422-4.481-4.091-.736-1.67-.689-3.389.142-5.157.725-1.543 1.804-2.567 3.236-3.071.848-.302 1.882-.342 3.1-.12l-.54 2.825c-.77-.18-1.47-.129-2.098.154-.627.283-1.1.763-1.419 1.44-.439.936-.436 1.864.01 2.784.446.92 1.473 1.758 3.082 2.514 1.708.803 3.06 1.087 4.054.854.994-.234 1.707-.81 2.138-1.728.32-.677.361-1.368.128-2.073-.233-.705-.796-1.396-1.688-2.075z" style="fill:#030404;stroke-width:20.1525"/><path d="m347.71 254.392-14.007-5.152 3.568-9.703 2.37.872-2.597 7.06 3.096 1.139 2.416-6.57 2.37.872-2.417 6.57 3.803 1.398 2.689-7.31 2.37.871z" style="fill:#030404;stroke-width:20.1524"/><path d="M351.812 242.862ZM349.114 235.248l.36-2.73c1 .069 1.782-.087 2.35-.47.567-.382.951-.99 1.15-1.822.21-.882.169-1.594-.128-2.137-.295-.543-.71-.879-1.246-1.007-.344-.082-.66-.059-.946.072-.286.13-.576.408-.866.834-.196.292-.582.972-1.16 2.04-.74 1.375-1.467 2.29-2.177 2.746-1 .64-2.075.824-3.226.548a4.043 4.043 0 0 1-1.938-1.084c-.551-.546-.907-1.228-1.069-2.045-.16-.818-.115-1.748.132-2.79.407-1.702 1.115-2.887 2.123-3.555 1.009-.669 2.187-.864 3.537-.587l-.537 2.766c-.774-.061-1.37.062-1.789.37-.418.307-.72.846-.905 1.617-.19.795-.164 1.46.077 1.994.155.343.421.56.798.65.343.082.669.017.979-.196.393-.271.917-1.033 1.573-2.284.655-1.251 1.24-2.153 1.754-2.705a4.037 4.037 0 0 1 1.836-1.145c.712-.211 1.527-.207 2.446.013.833.2 1.562.602 2.186 1.207a4.066 4.066 0 0 1 1.184 2.22c.165.873.103 1.9-.175 3.077-.41 1.715-1.15 2.93-2.22 3.645-1.07.716-2.44.968-4.11.758z" style="fill:#030404;stroke-width:20.1528"/><path d="m353 212.317 1.309-2.565c1.56.655 2.661 1.522 3.305 2.602.644 1.08.855 2.36.635 3.84-.272 1.831-1.167 3.236-2.683 4.216-1.516.98-3.438 1.296-5.763.95-2.46-.366-4.283-1.243-5.468-2.63-1.185-1.388-1.634-3.048-1.347-4.98.251-1.687.99-2.977 2.217-3.872.725-.533 1.704-.868 2.935-1.006l.294 2.862c-.79.048-1.444.3-1.964.75-.52.452-.835 1.048-.945 1.788-.152 1.022.115 1.91.808 2.663.69.754 1.915 1.261 3.674 1.523 1.866.278 3.242.162 4.128-.347.885-.51 1.403-1.266 1.552-2.27a2.701 2.701 0 0 0-.474-2.022c-.426-.608-1.163-1.109-2.214-1.502z" style="fill:#030404;stroke-width:20.1525"/><path d="m359.053 207.366-14.871-1.279.24-2.804 14.871 1.279z" style="fill:#030404;stroke-width:20.1532"/><path d="m359.59 201.214-14.92-.418.29-10.335 2.524.07-.211 7.521 3.297.092.196-6.997 2.524.07-.196 6.998 4.05.114.218-7.787 2.524.07z" style="fill:#030404;stroke-width:20.1529"/><path d="m359.834 187.431-14.913.597-.116-2.737 9.753-6.102-9.98.4-.103-2.614 14.914-.596.115 2.822-9.528 6.007 9.752-.39z" style="fill:#030404;stroke-width:20.1534"/><path d="m352.734 164.335.627-2.81c1.674.246 2.957.811 3.85 1.696.892.886 1.416 2.073 1.572 3.56.192 1.842-.324 3.426-1.548 4.753-1.225 1.326-3.007 2.112-5.345 2.356-2.474.258-4.458-.137-5.95-1.186-1.494-1.048-2.342-2.544-2.545-4.486-.178-1.697.216-3.13 1.181-4.303.57-.697 1.434-1.265 2.592-1.705l.998 2.698c-.752.244-1.324.65-1.715 1.216-.392.567-.548 1.223-.47 1.967.103 1.028.589 1.82 1.446 2.378s2.17.744 3.938.56c1.877-.197 3.18-.652 3.911-1.366.73-.714 1.043-1.575.938-2.584a2.705 2.705 0 0 0-.962-1.84c-.565-.484-1.404-.785-2.518-.904z" style="fill:#030404;stroke-width:20.1524"/><path d="m357.469 157.955-14.719 2.473-1.713-10.195 2.49-.418 1.246 7.419 3.253-.547-1.16-6.903 2.49-.419 1.16 6.903 3.996-.671-1.29-7.682 2.49-.419z" style="fill:#030404;stroke-width:20.1525"/><path d="m350.517 146.188-.896-2.604c.926-.384 1.556-.874 1.894-1.47.338-.595.41-1.31.216-2.144-.205-.883-.56-1.502-1.065-1.857-.505-.355-1.026-.47-1.564-.345-.344.08-.616.242-.815.486-.198.245-.333.623-.403 1.134-.051.349-.09 1.13-.128 2.343-.051 1.56-.292 2.704-.724 3.429-.608 1.02-1.49 1.663-2.642 1.93a4.04 4.04 0 0 1-2.218-.106c-.738-.242-1.36-.693-1.87-1.353-.509-.66-.884-1.512-1.126-2.556-.395-1.705-.29-3.081.314-4.13.604-1.047 1.571-1.748 2.903-2.103l.755 2.715c-.72.291-1.2.667-1.437 1.13-.238.461-.267 1.078-.09 1.85.185.797.505 1.38.96 1.75.292.238.628.314 1.004.226.344-.08.607-.284.788-.612.23-.418.361-1.334.39-2.746.025-1.413.15-2.48.362-3.204a4.03 4.03 0 0 1 1.132-1.844c.542-.506 1.274-.866 2.195-1.08a4.638 4.638 0 0 1 2.495.105c.83.264 1.512.75 2.05 1.458.538.709.943 1.653 1.217 2.833.398 1.717.278 3.134-.36 4.252-.637 1.118-1.75 1.955-3.339 2.512z" style="fill:#030404;stroke-width:20.1533"/><path fill="#353b92" d="m95.297 100.599 11.007-22.885v117.905s1.075 81.914 91.257 92.41h77.345l8.985 5.503h-84.307s-90.387.576-99.078-98.207v-94.726z" style="stroke-width:12.7991"/><path fill="#353b92" d="M110.07 77.712v117.61s1.741 79.086 87.777 88.647h71.265l-7.539-5.785h-63.432s-75.322-2.317-81.696-84.59v-92.421h5.209zM100.8 301.065h5.797v-61.41s-4.633-10.43-5.798-14.488zM110.862 301.065h5.798v-44.732s-4.634-5.632-5.798-9.69z" style="stroke-width:12.7991"/><path fill="#353b92" d="M121.513 139.417v-9.855s26.801-38.09 77.204-39.972h41.136v-5.503l23.461 11.442h-65.326s-46.052 0-76.475 43.888" style="stroke-width:12.7991"/><path fill="#353b92" d="m263.318 99.296-23.18 11.877v-5.939h-41.417s-55.625 1.306-77.204 57.353v-14.501s21.144-45.027 76.91-48.79z" style="stroke-width:12.7991"/><path fill="#bfdff5" d="M203.03 188.466c0 21.221-17.996 38.423-40.177 38.423-22.194 0-40.19-17.202-40.19-38.423m80.366 0c0-21.22 17.996-38.422 40.176-38.422 21.503 0 39.063 16.14 40.138 36.439-1.1-41.52-36.63-74.875-80.327-74.875-44.387 0-80.378 34.417-80.378 76.858" style="stroke-width:12.7991"/><path fill="none" stroke="#3d5da8" stroke-miterlimit="10" stroke-width="3.48135" d="M203.03 188.466c0 21.221-17.996 38.423-40.177 38.423-22.194 0-40.19-17.202-40.19-38.423m80.366 0c0-21.22 17.996-38.422 40.176-38.422 21.503 0 39.063 16.14 40.138 36.439-1.1-41.52-36.63-74.875-80.327-74.875-44.387 0-80.378 34.417-80.378 76.858"/><path fill="#bfdff5" d="M203.03 188.466c0 21.221-17.996 38.423-40.177 38.423-22.194 0-40.19-17.202-40.19-38.423" style="stroke-width:12.7991"/><path fill="none" stroke="#3d5da8" stroke-miterlimit="10" stroke-width="3.48135" d="M203.03 188.466c0 21.221-17.996 38.423-40.177 38.423-22.194 0-40.19-17.202-40.19-38.423"/><path fill="#bfdff5" d="M283.393 188.466c0-.665-.038-1.318-.051-1.983.038.652.051 1.318.051 1.983" style="stroke-width:12.7991"/><path fill="none" stroke="#3d5da8" stroke-miterlimit="10" stroke-width="3.48135" d="M283.393 188.466c0-.665-.038-1.318-.051-1.983.038.652.051 1.318.051 1.983zM239.272 148.978s25.01 81.594-34.532 123.357M203.03 196.009h79.93"/><path fill="#3c5da8" d="M133.028 229.699H273.32" style="stroke-width:12.7991"/><path fill="none" stroke="#3c5da8" stroke-miterlimit="10" stroke-width="3.48135" d="M133.028 229.699H273.32"/><path fill="none" stroke="#3d5da8" stroke-miterlimit="10" stroke-width="3.48135" d="M167.574 225.164s12.403 34.596 37.156 46.204v-93.996"/><path fill="none" stroke="#3d5da8" stroke-miterlimit="10" stroke-width="3.50695" d="M150.55 252.874h104.94"/><path fill="none" stroke="#3c5da8" stroke-miterlimit="10" stroke-width="3.48135" d="M283.393 191.987c0 44.388-35.99 80.378-80.378 80.378-44.387 0-80.378-35.99-80.378-80.378 0-44.387 35.99-80.378 80.378-80.378 44.387 0 80.378 35.991 80.378 80.378z"/></svg>