<?xml version="1.0" encoding="UTF-8"?>
<svg version="1.1" xmlns="http://www.w3.org/2000/svg" width="600" height="600">
<path d="M0 0 C3.19843024 0.00314949 6.39592206 -0.02036437 9.59423828 -0.0456543 C28.26039518 -0.10304868 46.67503207 1.74789007 64.97314453 5.50317383 C65.99021484 5.71111572 67.00728516 5.91905762 68.05517578 6.13330078 C119.41792826 17.11546825 166.79467474 42.12599447 205.59814453 77.31567383 C206.53279541 78.15775391 206.53279541 78.15775391 207.48632812 79.0168457 C219.7115844 90.06063014 219.7115844 90.06063014 224.98486328 96.39379883 C226.82520562 98.5861679 228.77249072 100.65841766 230.72314453 102.75317383 C266.37944755 142.35778979 289.11552836 192.60055657 299.34814453 244.56567383 C299.54698242 245.56977295 299.74582031 246.57387207 299.95068359 247.60839844 C303.22164971 265.04747294 303.97255794 282.17143426 303.91064453 299.87817383 C303.90848938 300.98573029 303.90633423 302.09328674 303.90411377 303.23440552 C303.85451451 319.10373249 303.6380319 334.68887883 300.59814453 350.31567383 C300.38883301 351.40203125 300.17952148 352.48838867 299.96386719 353.60766602 C289.48973166 406.4601687 267.32062652 455.67990548 231.59814453 496.31567383 C230.98712891 497.02594727 230.37611328 497.7362207 229.74658203 498.46801758 C228.049223 500.43486253 226.32930798 502.37850554 224.59814453 504.31567383 C223.74349609 505.27473633 222.88884766 506.23379883 222.00830078 507.22192383 C217.43727035 512.30789936 212.84315045 517.23363574 207.59033203 521.63208008 C205.37910276 523.5007856 203.27955752 525.46801577 201.16064453 527.44067383 C161.55602857 563.09697684 111.31326179 585.83305766 59.34814453 596.06567383 C57.84199585 596.36393066 57.84199585 596.36393066 56.30541992 596.66821289 C38.86634542 599.93917901 21.7423841 600.69008724 4.03564453 600.62817383 C2.92808807 600.62601868 1.82053162 600.62386353 0.67941284 600.62164307 C-15.18991413 600.5720438 -30.77506047 600.35556119 -46.40185547 597.31567383 C-47.48821289 597.1063623 -48.57457031 596.89705078 -49.69384766 596.68139648 C-105.817125 585.55906957 -157.43185734 561.12204119 -199.48779297 522.00708008 C-202.15313384 519.54539125 -204.86270882 517.14637608 -207.58935547 514.75317383 C-212.58560602 510.25734265 -217.00564496 505.39207978 -221.40185547 500.31567383 C-222.32565969 499.27731254 -223.25017259 498.23958142 -224.17529297 497.20239258 C-259.39616965 457.37323161 -281.92547153 407.99914145 -292.15185547 356.06567383 C-292.4501123 354.55952515 -292.4501123 354.55952515 -292.75439453 353.02294922 C-295.82685036 336.6422274 -296.7516103 320.55292123 -296.7175293 303.91381836 C-296.7143798 300.71538812 -296.73789367 297.5178963 -296.76318359 294.31958008 C-296.82057797 275.65342318 -294.96963922 257.23878629 -291.21435547 238.94067383 C-291.00641357 237.92360352 -290.79847168 236.9065332 -290.58422852 235.85864258 C-279.60206104 184.4958901 -254.59153483 137.11914362 -219.40185547 98.31567383 C-218.84046875 97.69257324 -218.27908203 97.06947266 -217.70068359 96.42749023 C-206.68387114 84.23209143 -206.68387114 84.23209143 -200.39404297 78.99926758 C-197.98036053 76.95946928 -195.70536029 74.79155447 -193.40185547 72.62817383 C-154.35162923 37.08383807 -103.52786617 14.68228716 -52.15185547 4.56567383 C-51.14775635 4.36683594 -50.14365723 4.16799805 -49.10913086 3.96313477 C-32.72840904 0.89067894 -16.63910287 -0.034081 0 0 Z " fill="#FEFEFE" transform="translate(296.40185546875,-0.315673828125)"/>
<path d="M0 0 C3.19843024 0.00314949 6.39592206 -0.02036437 9.59423828 -0.0456543 C28.26039518 -0.10304868 46.67503207 1.74789007 64.97314453 5.50317383 C65.99021484 5.71111572 67.00728516 5.91905762 68.05517578 6.13330078 C119.41792826 17.11546825 166.79467474 42.12599447 205.59814453 77.31567383 C206.53279541 78.15775391 206.53279541 78.15775391 207.48632812 79.0168457 C219.7115844 90.06063014 219.7115844 90.06063014 224.98486328 96.39379883 C226.82520562 98.5861679 228.77249072 100.65841766 230.72314453 102.75317383 C266.37944755 142.35778979 289.11552836 192.60055657 299.34814453 244.56567383 C299.54698242 245.56977295 299.74582031 246.57387207 299.95068359 247.60839844 C303.22164971 265.04747294 303.97255794 282.17143426 303.91064453 299.87817383 C303.90848938 300.98573029 303.90633423 302.09328674 303.90411377 303.23440552 C303.85451451 319.10373249 303.6380319 334.68887883 300.59814453 350.31567383 C300.38883301 351.40203125 300.17952148 352.48838867 299.96386719 353.60766602 C289.48973166 406.4601687 267.32062652 455.67990548 231.59814453 496.31567383 C230.98712891 497.02594727 230.37611328 497.7362207 229.74658203 498.46801758 C228.049223 500.43486253 226.32930798 502.37850554 224.59814453 504.31567383 C223.74349609 505.27473633 222.88884766 506.23379883 222.00830078 507.22192383 C217.43727035 512.30789936 212.84315045 517.23363574 207.59033203 521.63208008 C205.37910276 523.5007856 203.27955752 525.46801577 201.16064453 527.44067383 C161.55602857 563.09697684 111.31326179 585.83305766 59.34814453 596.06567383 C57.84199585 596.36393066 57.84199585 596.36393066 56.30541992 596.66821289 C38.86634542 599.93917901 21.7423841 600.69008724 4.03564453 600.62817383 C2.92808807 600.62601868 1.82053162 600.62386353 0.67941284 600.62164307 C-15.18991413 600.5720438 -30.77506047 600.35556119 -46.40185547 597.31567383 C-47.48821289 597.1063623 -48.57457031 596.89705078 -49.69384766 596.68139648 C-105.817125 585.55906957 -157.43185734 561.12204119 -199.48779297 522.00708008 C-202.15313384 519.54539125 -204.86270882 517.14637608 -207.58935547 514.75317383 C-212.58560602 510.25734265 -217.00564496 505.39207978 -221.40185547 500.31567383 C-222.32565969 499.27731254 -223.25017259 498.23958142 -224.17529297 497.20239258 C-259.39616965 457.37323161 -281.92547153 407.99914145 -292.15185547 356.06567383 C-292.4501123 354.55952515 -292.4501123 354.55952515 -292.75439453 353.02294922 C-295.82685036 336.6422274 -296.7516103 320.55292123 -296.7175293 303.91381836 C-296.7143798 300.71538812 -296.73789367 297.5178963 -296.76318359 294.31958008 C-296.82057797 275.65342318 -294.96963922 257.23878629 -291.21435547 238.94067383 C-291.00641357 237.92360352 -290.79847168 236.9065332 -290.58422852 235.85864258 C-279.60206104 184.4958901 -254.59153483 137.11914362 -219.40185547 98.31567383 C-218.84046875 97.69257324 -218.27908203 97.06947266 -217.70068359 96.42749023 C-206.68387114 84.23209143 -206.68387114 84.23209143 -200.39404297 78.99926758 C-197.98036053 76.95946928 -195.70536029 74.79155447 -193.40185547 72.62817383 C-154.35162923 37.08383807 -103.52786617 14.68228716 -52.15185547 4.56567383 C-51.14775635 4.36683594 -50.14365723 4.16799805 -49.10913086 3.96313477 C-32.72840904 0.89067894 -16.63910287 -0.034081 0 0 Z M-49.77685547 93.00317383 C-50.73543457 93.26026123 -51.69401367 93.51734863 -52.68164062 93.78222656 C-82.84181639 102.13416082 -110.7345399 116.82865378 -134.40185547 137.31567383 C-135.20623047 138.00918945 -136.01060547 138.70270508 -136.83935547 139.41723633 C-148.55513353 149.74364328 -159.24182541 160.65043142 -168.40185547 173.31567383 C-168.87977539 173.97631836 -169.35769531 174.63696289 -169.85009766 175.31762695 C-187.60392113 200.19872695 -200.40609723 228.29487033 -206.40185547 258.31567383 C-206.56411621 259.09330078 -206.72637695 259.87092773 -206.89355469 260.67211914 C-217.47159665 313.66057701 -205.43706997 371.91711559 -175.79638672 416.81567383 C-161.50173388 437.90935405 -144.18120078 457.43603283 -123.40185547 472.31567383 C-122.74556152 472.78924316 -122.08926758 473.2628125 -121.41308594 473.75073242 C-96.64093234 491.43182066 -68.38902943 504.57711403 -38.40185547 510.31567383 C-37.7603656 510.43922241 -37.11887573 510.562771 -36.45794678 510.69006348 C-23.81957158 513.06482528 -11.49832374 513.88533842 1.34814453 513.81567383 C2.2787973 513.81291443 3.20945007 513.81015503 4.16830444 513.80731201 C63.73135756 513.48364461 116.95276349 489.5134188 158.78759766 447.42626953 C164.94445638 441.1050792 170.46781022 434.49030075 175.59814453 427.31567383 C176.31647461 426.31528076 176.31647461 426.31528076 177.04931641 425.29467773 C209.74508021 379.23786871 223.8331382 321.72412658 215.07739258 265.72192383 C214.63106664 263.24075402 214.13126474 260.77961845 213.59814453 258.31567383 C213.39946777 257.39657227 213.20079102 256.4774707 212.99609375 255.53051758 C205.25656516 221.0707738 189.74760453 189.05873231 166.59814453 162.31567383 C165.90462891 161.51129883 165.21111328 160.70692383 164.49658203 159.87817383 C128.60988492 119.16308474 78.1103149 91.82189004 23.59814453 87.31567383 C16.18583867 86.88550309 8.77110334 86.82181585 1.34814453 86.81567383 C0.45456238 86.81136353 -0.43901978 86.80705322 -1.35968018 86.8026123 C-17.85898771 86.76846246 -33.8224807 88.70776524 -49.77685547 93.00317383 Z " fill="#22284E" transform="translate(296.40185546875,-0.315673828125)"/>
<path d="M0 0 C2.43043203 1.43751163 4.14627523 1.34249597 6.921875 1.13671875 C7.5728009 -0.11063692 8.21739169 -1.36129957 8.859375 -2.61328125 C9.21902344 -3.309375 9.57867187 -4.00546875 9.94921875 -4.72265625 C10.87745682 -6.76552558 11.45354078 -8.67443501 11.921875 -10.86328125 C13.241875 -10.86328125 14.561875 -10.86328125 15.921875 -10.86328125 C15.921875 12.89671875 15.921875 36.65671875 15.921875 61.13671875 C14.601875 61.13671875 13.281875 61.13671875 11.921875 61.13671875 C11.71433594 60.12996094 11.50679688 59.12320313 11.29296875 58.0859375 C8.00069769 42.80170706 3.37318507 27.42380516 -5.078125 14.13671875 C-5.56023437 13.37875 -6.04234375 12.62078125 -6.5390625 11.83984375 C-9.81207071 7.09484773 -12.88834285 4.63180632 -18.078125 2.13671875 C-19.068125 1.64171875 -19.068125 1.64171875 -20.078125 1.13671875 C-25.52295205 0.9814691 -30.19385408 1.91510181 -34.45703125 5.390625 C-43.94775656 15.61316528 -47.53850431 32.66877462 -49.078125 46.13671875 C-49.21130127 47.1743335 -49.21130127 47.1743335 -49.34716797 48.23291016 C-54.28744843 87.98009075 -60.12664928 156.13148064 -34.99609375 189.9375 C-32.17233617 193.17533201 -29.9872362 194.82629416 -25.67578125 195.52734375 C-22.98983272 195.70088521 -20.71468315 195.68544405 -18.078125 195.13671875 C-12.65243532 189.43974459 -11.77848756 182.42308723 -11.78759766 174.83984375 C-11.78088043 174.02930542 -11.77416321 173.21876709 -11.76724243 172.38366699 C-11.74832325 169.71795439 -11.74434179 167.05249421 -11.7421875 164.38671875 C-11.73575699 162.52636615 -11.72902844 160.66601456 -11.72201538 158.80566406 C-11.71005903 154.91208551 -11.70633303 151.0185956 -11.70751953 147.125 C-11.707723 142.14155024 -11.68038432 137.15866893 -11.64597511 132.175354 C-11.62371847 128.33542275 -11.61968156 124.4956288 -11.62073898 120.65563965 C-11.61838258 118.81846146 -11.60955679 116.9812795 -11.59407425 115.14416504 C-11.57443239 112.57357062 -11.58024398 110.0042089 -11.59228516 107.43359375 C-11.58104614 106.67912964 -11.56980713 105.92466553 -11.55822754 105.14733887 C-11.61926042 100.00826781 -12.85799053 97.10723318 -16.078125 93.13671875 C-19.55812776 90.52671668 -23.86607199 90.55792405 -28.078125 90.13671875 C-28.078125 88.15671875 -28.078125 86.17671875 -28.078125 84.13671875 C-4.648125 84.13671875 18.781875 84.13671875 42.921875 84.13671875 C42.921875 86.11671875 42.921875 88.09671875 42.921875 90.13671875 C41.95765625 90.22308594 40.9934375 90.30945313 40 90.3984375 C38.73671875 90.53894531 37.4734375 90.67945313 36.171875 90.82421875 C34.91890625 90.95183594 33.6659375 91.07945312 32.375 91.2109375 C28.22717945 92.32296631 27.11153847 93.50676694 24.921875 97.13671875 C23.92745343 100.23235044 23.79414808 103.06625469 23.78816223 106.30697632 C23.78389725 107.35242615 23.77963226 108.39787598 23.77523804 109.4750061 C23.77569122 110.61682343 23.77614441 111.75864075 23.77661133 112.93505859 C23.77325272 114.14210449 23.7698941 115.34915039 23.76643372 116.59277344 C23.75855868 119.90330759 23.75525576 123.21377901 23.75461793 126.52431822 C23.75390606 128.59822195 23.75176896 130.67211916 23.74912071 132.74602127 C23.73986486 139.99816554 23.73578546 147.25029143 23.73657227 154.50244141 C23.73717068 161.23238515 23.72666621 167.96224811 23.7108286 174.69217145 C23.69767861 180.48945436 23.69239159 186.28671114 23.69302768 192.08400881 C23.69328081 195.53739231 23.69053387 198.99070425 23.67984962 202.44407272 C23.66996812 206.31092602 23.67296062 210.17757649 23.67895508 214.04443359 C23.67333557 215.16600861 23.66771606 216.28758362 23.66192627 217.44314575 C23.7150868 231.05045466 24.49850753 245.18622123 34.1640625 255.62890625 C39.1868561 259.93734699 45.07641203 261.84943372 51.65625 261.52734375 C57.9406131 260.44383287 63.25520451 257.41017217 67.921875 253.13671875 C77.33362038 238.65711047 80.06311753 221.5641552 80.08300781 204.58081055 C80.08797272 203.5536795 80.09293762 202.52654846 80.09805298 201.46829224 C80.11258551 198.0908337 80.11946108 194.71342209 80.125 191.3359375 C80.12782738 190.17651957 80.13065475 189.01710163 80.13356781 187.82254982 C80.14852313 181.68907063 80.15777615 175.55561475 80.16210938 169.42211914 C80.1675939 163.10760817 80.19163228 156.79331282 80.22008133 150.47886944 C80.2387606 145.60335171 80.24391609 140.72788545 80.24544525 135.85233498 C80.24845947 133.52527498 80.25644606 131.19821562 80.26963043 128.87119102 C80.28680443 125.60756645 80.28478312 122.34446274 80.27832031 119.08081055 C80.29214249 117.6581916 80.29214249 117.6581916 80.3062439 116.20683289 C80.26177482 108.98949428 79.91539114 100.50197346 74.92717361 94.89431286 C70.85640318 91.32638433 67.27791003 90.75472279 61.921875 90.13671875 C61.921875 88.15671875 61.921875 86.17671875 61.921875 84.13671875 C78.421875 84.13671875 94.921875 84.13671875 111.921875 84.13671875 C111.921875 86.11671875 111.921875 88.09671875 111.921875 90.13671875 C111.25800781 90.22308594 110.59414063 90.30945313 109.91015625 90.3984375 C105.6712321 91.07295244 102.56904719 91.69609087 98.984375 94.13671875 C94.21935577 101.06765582 93.47702027 108.95310998 93.50537109 117.16601562 C93.49249306 118.5878717 93.49249306 118.5878717 93.47935486 120.03845215 C93.45445091 123.14420192 93.44992613 126.2496285 93.4453125 129.35546875 C93.43097451 131.54008938 93.41521255 133.72470108 93.39810181 135.90930176 C93.35636487 141.64964 93.33130953 147.38992299 93.31060791 153.13037109 C93.27474502 162.28704409 93.21305666 171.44357913 93.15211868 180.60011292 C93.13332427 183.76917517 93.12137997 186.93820115 93.11068726 190.1072998 C92.96140377 223.23674316 92.96140377 223.23674316 90.171875 234.51171875 C89.99487061 235.25301025 89.81786621 235.99430176 89.63549805 236.75805664 C86.14929526 250.73167939 80.05363595 263.19643052 67.3203125 270.92578125 C53.95509237 277.67369369 38.36222503 279.63826758 23.859375 275.51171875 C11.13511977 270.91374446 1.93542083 262.21100207 -3.953125 250.01171875 C-10.09311161 236.37591795 -10.61423783 221.8531393 -11.078125 207.13671875 C-12.21121094 207.62398437 -13.34429687 208.11125 -14.51171875 208.61328125 C-19.12738916 210.33844267 -23.25211966 210.58635242 -28.140625 210.51171875 C-28.90439453 210.52332031 -29.66816406 210.53492188 -30.45507812 210.546875 C-31.20853516 210.54300781 -31.96199219 210.53914062 -32.73828125 210.53515625 C-33.40480713 210.53177246 -34.07133301 210.52838867 -34.75805664 210.52490234 C-38.14476885 209.95825261 -40.95744697 208.56243797 -44.078125 207.13671875 C-44.03644258 214.43286884 -43.96410261 221.72825696 -43.87060547 229.02392578 C-43.84240804 231.50497556 -43.82118745 233.98611497 -43.80712891 236.46728516 C-43.78568338 240.03725022 -43.73902158 243.60613903 -43.6875 247.17578125 C-43.68627136 248.28225006 -43.68504272 249.38871887 -43.68377686 250.52871704 C-43.55577109 257.28406112 -42.96284609 261.25199766 -38.078125 266.13671875 C-35.74994536 266.50432606 -33.4162865 266.83913456 -31.078125 267.13671875 C-31.078125 268.78671875 -31.078125 270.43671875 -31.078125 272.13671875 C-47.578125 272.13671875 -64.078125 272.13671875 -81.078125 272.13671875 C-81.078125 270.48671875 -81.078125 268.83671875 -81.078125 267.13671875 C-79.469375 267.04390625 -79.469375 267.04390625 -77.828125 266.94921875 C-73.9832226 266.47037686 -73.9832226 266.47037686 -71.703125 263.76171875 C-69.01835203 259.42477779 -68.92662352 256.08125176 -68.85351562 251.05761719 C-68.84212555 250.34000214 -68.83073547 249.62238708 -68.81900024 248.88302612 C-68.70792355 241.34378369 -68.66082952 233.80356051 -68.61816406 226.26367188 C-68.59600347 222.70002277 -68.5544084 219.13743989 -68.49511719 215.57421875 C-68.42335913 211.2523015 -68.38723317 206.93137668 -68.37504578 202.60889435 C-68.36475019 200.97442799 -68.34258174 199.33998512 -68.30744934 197.70586395 C-68.06385656 185.74548916 -70.38250142 177.60524924 -76.078125 167.13671875 C-77.27527972 164.31846306 -78.31448129 161.4837699 -79.265625 158.57421875 C-79.50627686 157.84299805 -79.74692871 157.11177734 -79.99487305 156.35839844 C-89.96293647 124.54840225 -89.71390569 88.55187098 -83.078125 56.13671875 C-82.90684082 55.27159668 -82.73555664 54.40647461 -82.55908203 53.51513672 C-79.07552859 36.54578079 -72.21663804 18.77801044 -60.078125 6.13671875 C-59.39363281 5.35296875 -58.70914062 4.56921875 -58.00390625 3.76171875 C-41.66337095 -14.07498765 -17.99852871 -15.26798269 0 0 Z " fill="#174280" transform="translate(330.078125,161.86328125)"/>
<path d="M0 0 C23.1 0 46.2 0 70 0 C70 1.98 70 3.96 70 6 C69.34773438 6.01417969 68.69546875 6.02835938 68.0234375 6.04296875 C61.62021592 6.3924071 58.35731923 7.20694884 54 12 C52.08168001 15.83902069 51.74898417 18.9694598 51.74603271 23.23529053 C51.73757324 25.11927551 51.73757324 25.11927551 51.72894287 27.0413208 C51.73283122 28.42565976 51.73692754 29.80999815 51.74121094 31.19433594 C51.73849957 32.65828627 51.73493782 34.12223525 51.73059082 35.58618164 C51.72147861 39.55747165 51.72500711 43.52865764 51.73134899 47.49994946 C51.73641885 51.66242436 51.73171444 55.82489046 51.72857666 59.98736572 C51.72493827 66.98150222 51.72973108 73.97559648 51.73925781 80.96972656 C51.75012511 89.0409274 51.74662884 97.11202704 51.735605 105.18322539 C51.72650815 112.12269635 51.72525906 119.06213695 51.73048234 126.00161195 C51.73359107 130.14171393 51.734042 134.28176849 51.72740936 138.42186737 C51.72160221 142.31905308 51.72569404 146.21610941 51.73719788 150.11328125 C51.73982726 151.53822872 51.73910904 152.9631872 51.73467255 154.38813019 C51.69344415 166.99528246 51.69344415 166.99528246 55.375 178.9375 C59.64745438 182.29442844 64.70400127 182.44208818 70 183 C70 184.65 70 186.3 70 188 C46.9 188 23.8 188 0 188 C0 186.35 0 184.7 0 183 C0.66386719 182.96261719 1.32773438 182.92523438 2.01171875 182.88671875 C9.045006 182.46060404 9.045006 182.46060404 15 179 C17.58880851 174.64367374 18.37592935 171.44565074 18.38095093 166.4032135 C18.3894104 165.0924736 18.39786987 163.7817337 18.40658569 162.43127441 C18.40075355 160.9907214 18.39460909 159.55016963 18.38818359 158.10961914 C18.39225146 156.58316167 18.39759455 155.05670715 18.40411377 153.53025818 C18.4177688 149.39383806 18.41249595 145.25764288 18.40297651 141.12121892 C18.39536913 136.78697822 18.40242865 132.45275649 18.40713501 128.11851501 C18.41259 120.83947297 18.40540829 113.5605223 18.39111328 106.28149414 C18.37479337 97.87448264 18.38007148 89.4676895 18.3965925 81.06068331 C18.410222 73.83501606 18.41211969 66.60941441 18.40427649 59.38373846 C18.39960723 55.07155019 18.39895441 50.75946442 18.40888596 46.44728279 C18.41757446 42.39162454 18.41149949 38.33624674 18.39420319 34.28061867 C18.39024811 32.7951682 18.39135559 31.30969399 18.39799118 29.82425308 C18.62361766 19.45472587 18.62361766 19.45472587 15 10 C10.3827375 6.70195535 5.51082867 6.35514229 0 6 C0 4.02 0 2.04 0 0 Z " fill="#174281" transform="translate(165,246)"/>
<path d="M0 0 C6.99732287 3.43504941 10.39802512 8.8135932 13 16 C13.6875 19.25 13.6875 19.25 14 23 C14.07605469 23.83660156 14.15210938 24.67320313 14.23046875 25.53515625 C14.60144002 32.66382041 13.38618507 38.24780109 9 44 C4.51994024 47.84430848 -0.81663739 48.78430614 -6.609375 48.5 C-10.90625359 47.60130644 -13.3520654 45.41603777 -16 42 C-21.50114312 33.04099548 -23.54315557 23.89804033 -21.50390625 13.4609375 C-18.25761045 2.49322625 -10.94421976 -1.27003123 0 0 Z " fill="#F5F4F6" transform="translate(269,24)"/>
<path d="M0 0 C6.20037112 3.93356878 12.67915578 8.56857554 14.90625 15.84375 C15.72712844 21.47413415 15.06440197 26.15260319 12.22265625 31.11328125 C9.38395446 34.84486847 6.24136481 36.3299412 1.72265625 37.32421875 C-7.13202881 38.09482353 -15.52126256 33.29439196 -22.40234375 28.1015625 C-27.40958056 23.42814148 -30.49365275 18.14428489 -31.71875 11.40625 C-30.63268828 5.21569819 -27.34699031 0.53368023 -22.34375 -3.21875 C-13.8244762 -5.67623283 -7.72610591 -4.22148055 0 0 Z " fill="#F7F6F8" transform="translate(95.09375,144.15625)"/>
<path d="M0 0 C3.88446678 2.58964452 6.69907021 5.64814041 8.8125 9.875 C9.73044221 18.38361814 7.6370209 24.6326833 2.6875 31.5 C-1.57151146 36.73767792 -6.75310871 40.7302029 -13.1875 42.875 C-18.40085806 43.37423837 -22.80997649 43.50114705 -27.625 41.3125 C-31.84894115 37.29460476 -33.83333478 33.96457482 -34.8125 28.1875 C-34.38484258 20.06200906 -28.89204489 11.44688105 -23.1875 5.875 C-15.83525875 0.37057867 -9.2170157 -3.25306436 0 0 Z " fill="#F7F6F8" transform="translate(146.1875,472.125)"/>
<path d="M0 0 C14.76155949 1.75416579 14.76155949 1.75416579 19.7109375 6.71484375 C24.06685297 12.6696068 24.69417016 17.86547333 24 25 C22.21975531 32.62409139 19.76838797 40.56470974 13.18359375 45.30859375 C5.38772174 49.71760943 -1.5186225 48.09625907 -9.77734375 45.94921875 C-10.51082031 45.63597656 -11.24429688 45.32273437 -12 45 C-13.10441192 41.68676423 -12.92836232 41.00137766 -11.92016602 37.80395508 C-11.65982071 36.96331009 -11.3994754 36.1226651 -11.13124084 35.25654602 C-10.84172043 34.35333115 -10.55220001 33.45011627 -10.25390625 32.51953125 C-9.96394272 31.59154221 -9.67397919 30.66355316 -9.37522888 29.70744324 C-8.44586748 26.73980893 -7.50434828 23.77619219 -6.5625 20.8125 C-5.93083703 18.8029868 -5.29996753 16.79322399 -4.66992188 14.78320312 C-3.1224785 9.85252372 -1.56411958 4.92541349 0 0 Z " fill="#F8F7F9" transform="translate(218,518)"/>
<path d="M0 0 C6.37718812 3.50258876 11.73265149 7.25767885 14.4375 14.25 C15.59428544 21.7048395 12.87932597 28.64751131 9.4375 35.25 C5.98114271 36.4021191 5.58470945 36.15645227 2.42504883 34.71118164 C1.62444534 34.35073257 0.82384186 33.99028351 -0.00102234 33.61891174 C-0.86048965 33.22002243 -1.71995697 32.82113312 -2.60546875 32.41015625 C-3.4890657 32.00921249 -4.37266266 31.60826874 -5.28303528 31.19517517 C-8.10960573 29.9100439 -10.929767 28.61147136 -13.75 27.3125 C-15.66300527 26.43986421 -17.57641204 25.56810802 -19.49023438 24.69726562 C-24.18571262 22.55836303 -28.87548623 20.40738397 -33.5625 18.25 C-32.45265454 11.10729025 -30.20711017 4.08530549 -24.625 -0.875 C-17.11099729 -5.43240599 -7.4611027 -3.62001649 0 0 Z " fill="#F6F5F7" transform="translate(75.5625,180.75)"/>
<path d="M0 0 C3.59375 -0.0625 3.59375 -0.0625 7.1875 -0.125 C7.92508545 -0.14320801 8.6626709 -0.16141602 9.42260742 -0.18017578 C14.84670649 -0.22559025 18.34897505 0.43821964 22.3125 4.1875 C24.49127399 7.81878998 24.58645035 9.82154127 24 14 C22.50254139 16.60847629 21.12971098 18.87028902 19 21 C19.78375 21.4125 20.5675 21.825 21.375 22.25 C24.1944427 24.12962847 24.80494534 24.92778186 26 28 C26.56216815 32.49004431 26.53058095 36.64407091 24.875 40.875 C22.04811962 44.07879776 19.19009913 46.67603247 14.82470703 47.32177734 C12.41301232 47.39248829 10.03552663 47.34995804 7.625 47.25 C6.79355469 47.23195312 5.96210938 47.21390625 5.10546875 47.1953125 C3.06980926 47.14851573 1.0347491 47.07678298 -1 47 C-1.02517599 42.71737012 -1.04307876 38.43478221 -1.05493164 34.15209961 C-1.05988546 32.70254768 -1.06665038 31.25300054 -1.07543945 29.8034668 C-1.13435597 19.81885063 -0.80267972 9.95521938 0 0 Z " fill="#F5F4F6" transform="translate(291,22)"/>
<path d="M0 0 C4.00281113 2.65311769 5.35930993 7.85245996 6.85864258 12.23193359 C7.71889754 16.54791362 7.19743119 19.54132604 5.23364258 23.54443359 C2.18207945 26.99751818 -0.46945273 28.90122633 -5.12963867 29.47802734 C-9.51130541 29.61830669 -11.97421166 28.8987919 -16.14135742 27.23193359 C-22.57635742 36.14193359 -22.57635742 36.14193359 -29.14135742 45.23193359 C-32.14135742 42.23193359 -32.14135742 42.23193359 -32.18041992 39.52099609 C-30.56048717 34.39323905 -27.25592976 30.76230615 -23.91479492 26.62255859 C-23.41979492 25.98576172 -22.92479492 25.34896484 -22.41479492 24.69287109 C-21.95508301 24.12358887 -21.49537109 23.55430664 -21.02172852 22.96777344 C-19.92039597 21.2184676 -19.92039597 21.2184676 -20.49926758 19.015625 C-20.71115723 18.42700684 -20.92304687 17.83838867 -21.14135742 17.23193359 C-25.92778349 17.80659569 -29.67924529 19.21439002 -34.01635742 21.29443359 C-35.74499023 22.11621094 -35.74499023 22.11621094 -37.50854492 22.95458984 C-38.81178711 23.586875 -38.81178711 23.586875 -40.14135742 24.23193359 C-40.80135742 22.25193359 -41.46135742 20.27193359 -42.14135742 18.23193359 C-37.89219976 16.16703718 -33.64208308 14.10413197 -29.39111328 12.04296875 C-27.94879865 11.34330368 -26.50673544 10.64312005 -25.06494141 9.94238281 C-21.0116308 7.97262841 -16.95240246 6.01614466 -12.88580322 4.07397461 C-11.33905814 3.32736339 -9.80350584 2.55766186 -8.26977539 1.78466797 C-2.65729902 -0.95312538 -2.65729902 -0.95312538 0 0 Z " fill="#F6F6F8" transform="translate(546.141357421875,171.76806640625)"/>
<path d="M0 0 C6.71200371 0.99437092 11.71485928 4.7719878 16.5 9.4375 C18.5027878 12.85892916 19.06758255 15.01262968 19 19 C17.12910812 23.30463683 14.36827128 28.00307599 10 30 C7.36 30 4.72 30 2 30 C2 38.25 2 46.5 2 55 C0 54 -2 53 -4 52 C-4 44.08 -4 36.16 -4 28 C-5.32 27.34 -6.64 26.68 -8 26 C-11.3 31.28 -14.6 36.56 -18 42 C-19.65 41.34 -21.3 40.68 -23 40 C-22.43170933 35.92481769 -21.15331904 33.30416605 -18.8671875 29.90234375 C-18.2285376 28.94078369 -17.5898877 27.97922363 -16.93188477 26.98852539 C-16.25311279 25.98168701 -15.57434082 24.97484863 -14.875 23.9375 C-13.50434783 21.87383055 -12.13583416 19.80873905 -10.76953125 17.7421875 C-9.78847412 16.2586377 -9.78847412 16.2586377 -8.78759766 14.74511719 C-5.66018415 9.94251716 -2.77234844 5.01611683 0 0 Z " fill="#F7F7F8" transform="translate(165,490)"/>
<path d="M0 0 C1.32 0.66 2.64 1.32 4 2 C4 6.41152952 3.5676867 7.06209533 1.0078125 10.40625 C0.38519531 11.23253906 -0.23742187 12.05882812 -0.87890625 12.91015625 C-1.86697266 14.19212891 -1.86697266 14.19212891 -2.875 15.5 C-4.16673625 17.19588343 -5.45590064 18.89372963 -6.7421875 20.59375 C-7.3182373 21.34333984 -7.89428711 22.09292969 -8.48779297 22.86523438 C-9.89386778 24.85017434 -10.98205947 26.7956064 -12 29 C-11.22809326 28.66677734 -10.45618652 28.33355469 -9.66088867 27.99023438 C-6.79456175 26.75592059 -3.92621012 25.52647573 -1.05639648 24.30029297 C0.18499721 23.76870727 1.4255663 23.23519155 2.6652832 22.69970703 C4.44784809 21.93014157 6.23365229 21.1680931 8.01953125 20.40625 C9.09307861 19.94541016 10.16662598 19.48457031 11.27270508 19.00976562 C14 18 14 18 17 18 C15.70896574 21.50721326 14.19104176 24.43343738 12.06640625 27.50390625 C11.49986328 28.32697266 10.93332031 29.15003906 10.34960938 29.99804688 C9.46499023 31.26745117 9.46499023 31.26745117 8.5625 32.5625 C7.97662109 33.41263672 7.39074219 34.26277344 6.78710938 35.13867188 C4.25148981 38.80826887 1.69397406 42.44439662 -1 46 C-0.410979 45.71278076 0.17804199 45.42556152 0.78491211 45.12963867 C3.49970213 43.80987152 6.21854068 42.49865476 8.9375 41.1875 C9.86369141 40.73568359 10.78988281 40.28386719 11.74414062 39.81835938 C17.40810658 37.095681 22.99410899 34.85412635 29 33 C29.99 34.65 30.98 36.3 32 38 C20.81504475 43.14148443 9.60814225 48.23065215 -1.6875 53.125 C-3.02204224 53.70979126 -3.02204224 53.70979126 -4.38354492 54.30639648 C-5.62261597 54.83922241 -5.62261597 54.83922241 -6.88671875 55.3828125 C-7.61076904 55.69621582 -8.33481934 56.00961914 -9.08081055 56.33251953 C-11 57 -11 57 -14 57 C-12.41809115 52.37799816 -9.92816317 48.67942323 -7.1875 44.6875 C-3.67411591 39.52638661 -0.27448747 34.31654663 3 29 C2.16227051 29.36351562 1.32454102 29.72703125 0.46142578 30.1015625 C-2.64215314 31.44625994 -5.74709528 32.78770498 -8.85302734 34.12695312 C-10.19799169 34.70768151 -11.54239653 35.28970745 -12.88623047 35.87304688 C-14.81593154 36.71043745 -16.74758484 37.54316833 -18.6796875 38.375 C-19.84226074 38.87773437 -21.00483398 39.38046875 -22.20263672 39.8984375 C-25 41 -25 41 -27 41 C-26.37932195 37.82715398 -25.30725628 35.6717302 -23.48046875 33.015625 C-22.69687988 31.87081665 -22.69687988 31.87081665 -21.89746094 30.70288086 C-21.33317383 29.89343018 -20.76888672 29.08397949 -20.1875 28.25 C-19.61161133 27.4154126 -19.03572266 26.5808252 -18.44238281 25.72094727 C-13.55732956 18.68985521 -8.4595874 11.8320639 -3.265625 5.02734375 C-1.0585392 2.26530253 -1.0585392 2.26530253 0 0 Z " fill="#F7F6F8" transform="translate(103,427)"/>
<path d="M0 0 C0.99 0 1.98 0 3 0 C3.97965033 5.85309585 4.95821372 11.70637201 5.93579102 17.55981445 C6.2681779 19.54912165 6.60085647 21.53838013 6.93383789 23.52758789 C7.41369968 26.39456484 7.89249596 29.26171806 8.37109375 32.12890625 C8.51904892 33.01147598 8.66700409 33.89404572 8.81944275 34.80335999 C9.60705092 39.52858428 10.34458714 44.25458583 11 49 C9.02 49 7.04 49 5 49 C3.56331706 45.1389146 2.88814792 42.103573 3 38 C2.18015625 37.93941406 1.3603125 37.87882812 0.515625 37.81640625 C-0.56203125 37.73261719 -1.6396875 37.64882813 -2.75 37.5625 C-3.81734375 37.48128906 -4.8846875 37.40007813 -5.984375 37.31640625 C-8.43679962 37.05909227 -10.63921291 36.68187782 -13 36 C-13.12375 36.7425 -13.2475 37.485 -13.375 38.25 C-13.95486701 40.80141485 -14.73708739 42.7267573 -16 45 C-17.98 45 -19.96 45 -22 45 C-22.33 44.34 -22.66 43.68 -23 43 C-21.94006842 40.65559292 -20.82160861 38.44428834 -19.58984375 36.19140625 C-19.22532608 35.51005112 -18.86080841 34.82869598 -18.48524475 34.12669373 C-17.31012172 31.9345258 -16.12396385 29.74854702 -14.9375 27.5625 C-14.16398899 26.12343609 -13.39119419 24.68398697 -12.61914062 23.24414062 C-8.44818717 15.47692806 -4.23276923 7.73368034 0 0 Z " fill="#F4F4F6" transform="translate(341,25)"/>
<path d="M0 0 C1.98 0 3.96 0 6 0 C7.20673247 3.62019742 7.44945816 7.14516689 7.75390625 10.921875 C7.85166603 12.08919159 7.85166603 12.08919159 7.95140076 13.28009033 C8.08846194 14.92746335 8.22367444 16.57499108 8.35717773 18.22265625 C8.56063154 20.72700088 8.77106831 23.23068611 8.98242188 25.734375 C9.11500396 27.33850696 9.24717838 28.94267267 9.37890625 30.546875 C9.44139053 31.28879089 9.50387482 32.03070679 9.56825256 32.79510498 C9.92103852 37.20557015 10.14787881 41.571475 10 46 C9 47 9 47 6.4375 47.0625 C5.633125 47.041875 4.82875 47.02125 4 47 C3.66304138 44.27123692 3.33031571 41.54206837 3 38.8125 C2.90460938 38.04357422 2.80921875 37.27464844 2.7109375 36.48242188 C2.62070312 35.73154297 2.53046875 34.98066406 2.4375 34.20703125 C2.35371094 33.5210083 2.26992188 32.83498535 2.18359375 32.12817383 C1.97930627 29.76012333 2 27.37684592 2 25 C-3.94 25.33 -9.88 25.66 -16 26 C-15.67 26.99 -15.34 27.98 -15 29 C-14.65798547 32.19893064 -14.53563375 35.41232499 -14.375 38.625 C-14.3234375 39.50929688 -14.271875 40.39359375 -14.21875 41.3046875 C-14.17492187 42.14515625 -14.13109375 42.985625 -14.0859375 43.8515625 C-14.0451709 44.62322754 -14.0044043 45.39489258 -13.96240234 46.18994141 C-14 48 -14 48 -15 49 C-16.66617115 49.04063832 -18.33388095 49.042721 -20 49 C-21.26167136 39.12138167 -22.29091089 29.23679803 -23.125 19.3125 C-23.21249512 18.28576172 -23.29999023 17.25902344 -23.39013672 16.20117188 C-23.77891086 11.45452904 -24.11370522 6.76749729 -24 2 C-22.02 2 -20.04 2 -18 2 C-16.7937748 5.61867559 -16.89183082 8.92506251 -16.9375 12.6875 C-16.94201172 13.38939453 -16.94652344 14.09128906 -16.95117188 14.81445312 C-16.96293073 16.54300538 -16.98086546 18.27151365 -17 20 C-15.96746094 19.83628906 -14.93492187 19.67257812 -13.87109375 19.50390625 C-8.85809305 18.85135621 -4.05248144 18.93762369 1 19 C0.505 9.595 0.505 9.595 0 0 Z " fill="#EEEDF1" transform="translate(328,530)"/>
<path d="M0 0 C2.875 2.4375 2.875 2.4375 5 5 C5.33 5.33 5.66 5.66 6 6 C6.7308074 12.94267033 5.10229476 16.48271081 1 22 C0.401875 22.886875 -0.19625 23.77375 -0.8125 24.6875 C-4.80880823 28.9121687 -9.21580772 32.24641799 -15.1875 32.5625 C-19.50066066 31.92613203 -21.1892696 31.32177229 -24 28 C-25.77214451 22.68356648 -24.76169158 19.10322599 -22.36328125 14.2734375 C-17.45759302 6.09260498 -10.34730707 -1.72455118 0 0 Z " fill="#24294F" transform="translate(143,477)"/>
<path d="M0 0 C8.52306117 3.12974197 15.83719147 7.67438295 20 16 C20.39447548 20.18144011 20.45035186 22.30946048 18.125 25.875 C15.50475583 28.49524417 14.63498473 28.93520564 10.9375 29.3125 C2.81959195 28.66822158 -4.04249128 24.40613658 -10 19 C-12.57644562 15.90826525 -13.82341673 13.94177746 -14.5625 10 C-13.76917613 5.76893936 -11.99780451 4.0691808 -9 1 C-5.91211007 -0.54394497 -3.32844335 -0.59313091 0 0 Z " fill="#24294F" transform="translate(84,146)"/>
<path d="M0 0 C0.99 0 1.98 0 3 0 C3.06864258 8.43159734 2.86795327 16.8268535 2.5 25.25 C2.45230469 26.38824219 2.40460938 27.52648437 2.35546875 28.69921875 C2.239207 31.46624834 2.12068812 34.23316055 2 37 C3.89721196 34.48020165 5.79251002 31.95896967 7.6875 29.4375 C8.21794922 28.73302734 8.74839844 28.02855469 9.29492188 27.30273438 C12.59344332 22.91145123 15.82558874 18.48186822 19 14 C20.9375 14.3125 20.9375 14.3125 23 15 C23.495 16.485 23.495 16.485 24 18 C23.03466797 19.81494141 23.03466797 19.81494141 21.4921875 21.8515625 C20.92338867 22.61299561 20.35458984 23.37442871 19.76855469 24.15893555 C19.14368164 24.97273682 18.51880859 25.78653809 17.875 26.625 C16.92995605 27.8776062 16.92995605 27.8776062 15.96582031 29.15551758 C14.64739256 30.89988627 13.32437908 32.64079738 11.99707031 34.37841797 C10.06203299 36.91856843 8.14930864 39.47400652 6.2421875 42.03515625 C5.07880095 43.58644465 3.91476643 45.13724739 2.75 46.6875 C2.2019873 47.42371582 1.65397461 48.15993164 1.08935547 48.91845703 C-0.2257402 50.64985395 -1.60663044 52.33094842 -3 54 C-3.66 54 -4.32 54 -5 54 C-5.10837938 45.96788364 -4.91980145 38.06884765 -4.22265625 30.06640625 C-3.90592719 25.70443586 -3.92944106 21.36965392 -4 17 C-13.16909979 28.36869234 -13.16909979 28.36869234 -22 40 C-23.65 39.01 -25.3 38.02 -27 37 C-22.97628606 30.77000014 -18.67069935 24.87045605 -14.0625 19.0625 C-9.5675649 13.36502688 -5.23787048 7.67624027 -1.33203125 1.5546875 C-0.89246094 1.04164062 -0.45289063 0.52859375 0 0 Z " fill="#F4F3F5" transform="translate(454,70)"/>
<path d="M0 0 C3.67689348 1.50719507 5.6763138 3.63470991 8.25 6.625 C11.12013139 9.89977286 14.01572983 13.07622147 17.125 16.125 C20.39021732 19.33828544 23.41129453 22.69761792 26.390625 26.17578125 C27.84536251 27.82471916 29.35053206 29.35489869 30.9375 30.875 C33 33 33 33 33 35 C24.7615125 34.35792249 16.93960698 32.42994133 8.9375 30.4375 C7.58150769 30.10429849 6.22538867 29.77161218 4.86914062 29.43945312 C1.57814899 28.63134486 -1.7114728 27.81806854 -5 27 C-4.53529297 27.45890625 -4.07058594 27.9178125 -3.59179688 28.390625 C-0.45032323 31.50916818 2.64129057 34.61622149 5.5 38 C8.82158717 41.85635518 12.35280293 45.45257428 16 49 C15.1875 50.9375 15.1875 50.9375 14 53 C13.01 53.33 12.02 53.66 11 54 C10.5875 53.5153125 10.175 53.030625 9.75 52.53125 C6.61414682 48.89142041 3.42462183 45.37111211 0 42 C-2.59982183 39.44009866 -5.06268398 36.8322046 -7.4375 34.0625 C-11.38435854 29.46696795 -15.67483483 25.23689649 -20 21 C-19.505 19.515 -19.505 19.515 -19 18 C-15.06669657 18.83472034 -11.13500784 19.67669664 -7.20458984 20.52490234 C-5.6869468 20.8519603 -4.16902632 21.17773268 -2.65087891 21.50244141 C-0.24543184 22.01799867 2.15862164 22.5396823 4.5625 23.0625 C5.32353027 23.22459961 6.08456055 23.38669922 6.86865234 23.55371094 C10.75093302 24.40417278 14.35109806 25.37425161 18 27 C18 26.34 18 25.68 18 25 C17.01 24.67 16.02 24.34 15 24 C13.4921875 22.46875 13.4921875 22.46875 11.875 20.5 C8.44789365 16.43716176 4.75639414 12.75138579 0.91796875 9.078125 C-0.89359704 7.11528794 -1.96062858 5.44169794 -3 3 C-2.01 2.01 -1.02 1.02 0 0 Z " fill="#F4F4F6" transform="translate(468,459)"/>
<path d="M0 0 C0.99 0 1.98 0 3 0 C4.34350586 1.6262207 4.34350586 1.6262207 5.71484375 3.92578125 C6.23087158 4.7768042 6.74689941 5.62782715 7.27856445 6.50463867 C8.09973755 7.89453003 8.09973755 7.89453003 8.9375 9.3125 C10.09525864 11.23243189 11.25413942 13.15168748 12.4140625 15.0703125 C13.00477539 16.05290039 13.59548828 17.03548828 14.20410156 18.04785156 C17.50282412 23.47038462 20.94742191 28.80154313 24.39233398 34.13208008 C24.86743408 34.87611084 25.34253418 35.6201416 25.83203125 36.38671875 C26.25202393 37.03858154 26.6720166 37.69044434 27.10473633 38.36206055 C28 40 28 40 28 42 C25.03 42.495 25.03 42.495 22 43 C18 37.25 18 37.25 18 35 C17.18015625 35.2165625 16.3603125 35.433125 15.515625 35.65625 C14.43796875 35.9346875 13.3603125 36.213125 12.25 36.5 C11.18265625 36.7784375 10.1153125 37.056875 9.015625 37.34375 C6 38 6 38 2 38 C1.67 41.63 1.34 45.26 1 49 C-1.97 49.495 -1.97 49.495 -5 50 C-4.41860108 38.60108698 -3.32712014 27.32680717 -1.9375 16 C-1.74893339 14.43494585 -1.56078057 12.86984178 -1.37304688 11.3046875 C-0.92010505 7.53586918 -0.46166599 3.76775916 0 0 Z " fill="#F5F4F6" transform="translate(352,525)"/>
<path d="M0 0 C5.14423943 3.61191279 9.62956292 7.50262386 14.01171875 12.00390625 C16.4903789 14.49230573 19.1135116 16.77088427 21.76953125 19.06640625 C24.53179347 21.46101185 27.27407755 23.87671828 30 26.3125 C30.94875 27.15425781 31.8975 27.99601562 32.875 28.86328125 C35 31 35 31 35 33 C22.1937914 32.49080682 9.61539909 30.12198238 -3 28 C-0.46098715 30.3986586 2.08168768 32.79340128 4.625 35.1875 C5.33785156 35.86103516 6.05070312 36.53457031 6.78515625 37.22851562 C10.75439797 40.96105945 14.77065976 44.56449491 19 48 C18.34 49.32 17.68 50.64 17 52 C13.09628659 52 12.43752382 50.88498909 9.625 48.25 C8.74070312 47.43015625 7.85640625 46.6103125 6.9453125 45.765625 C6.4699707 45.31896484 5.99462891 44.87230469 5.50488281 44.41210938 C3.40131037 42.43821855 1.2793944 40.48448112 -0.84155273 38.52929688 C-1.94612911 37.51073859 -3.04981007 36.49120841 -4.15258789 35.47070312 C-9.05859762 30.93196872 -14.01708558 26.45425307 -19 22 C-18.67 21.34 -18.34 20.68 -18 20 C-15.64572401 20.29080413 -13.29156874 20.58252561 -10.9375 20.875 C-9.86278442 21.00817627 -9.86278442 21.00817627 -8.76635742 21.14404297 C-5.09901753 21.60150573 -1.43441554 22.07209419 2.2265625 22.578125 C4.18722656 22.84882812 4.18722656 22.84882812 6.1875 23.125 C7.37730469 23.29257813 8.56710938 23.46015625 9.79296875 23.6328125 C12.57007402 23.95077583 15.20971496 24.07356684 18 24 C11.05310721 17.60556738 4.08388048 11.24311688 -3 5 C-1.125 1.125 -1.125 1.125 0 0 Z " fill="#F5F4F6" transform="translate(104,102)"/>
<path d="M0 0 C4.61534743 1.71733858 6.11786283 4.48876874 8.15551758 8.71777344 C9.56172063 12.51805853 9.58120465 16.11213687 9.5 20.125 C9.51546875 20.89714844 9.5309375 21.66929688 9.546875 22.46484375 C9.51087606 27.7476887 8.48999269 30.81982219 5 35 C1.71393428 36.64303286 -1.47486652 36.77461034 -5 36 C-9.95884269 32.57630015 -12.08333903 27.28345988 -13.53125 21.62109375 C-14.74172904 14.85249847 -15.01394435 8.87756137 -11 3 C-7.68862338 -0.54790352 -4.70154676 -0.49489966 0 0 Z " fill="#23294E" transform="translate(267,30)"/>
<path d="M0 0 C0 1.98 0 3.96 0 6 C-3.87684087 7.19287411 -6.91621923 8 -11 8 C-11.66 13.28 -12.32 18.56 -13 24 C-10.03 24.99 -7.06 25.98 -4 27 C-4 29.31 -4 31.62 -4 34 C-8.13849179 32.70430218 -11.94251398 31.15213935 -15.81640625 29.20703125 C-17.44956787 28.38948364 -17.44956787 28.38948364 -19.11572266 27.55541992 C-20.25315918 26.98025635 -21.3905957 26.40509277 -22.5625 25.8125 C-23.72313965 25.22895752 -24.8837793 24.64541504 -26.07958984 24.04418945 C-33.78950941 20.15460266 -41.45443047 16.20046887 -49 12 C-49 11.34 -49 10.68 -49 10 C-39.96837495 7.63088712 -30.87762661 5.65428993 -21.7331543 3.78295898 C-19.40912531 3.30668504 -17.08638393 2.82444782 -14.76367188 2.34179688 C-13.27871876 2.03610386 -11.79369529 1.73075237 -10.30859375 1.42578125 C-9.61801376 1.28207596 -8.92743378 1.13837067 -8.21592712 0.99031067 C-5.41455439 0.42081303 -2.868122 0 0 0 Z " fill="#F7F6F8" transform="translate(73,254)"/>
<path d="M0 0 C1.61964446 3.89109233 3.23694771 7.7831478 4.85229492 11.67602539 C5.39953897 12.99398614 5.94736906 14.31170374 6.49584961 15.62915039 C9.35056965 22.48728167 12.17384809 29.3569807 14.89453125 36.26953125 C15.3016333 37.30311768 15.70873535 38.3367041 16.12817383 39.40161133 C17 42 17 42 17 45 C12.05486164 43.41526454 8.42624315 40.50690777 4.375 37.375 C2.95622279 36.29362289 1.53694929 35.21289661 0.1171875 34.1328125 C-0.57793945 33.60204102 -1.27306641 33.07126953 -1.98925781 32.52441406 C-6.27279592 29.27691383 -10.63855621 26.14171799 -15 23 C-14.27706872 26.25104911 -13.17661098 29.22892921 -11.93359375 32.31640625 C-11.53076172 33.32767578 -11.12792969 34.33894531 -10.71289062 35.38085938 C-9.86073996 37.50666862 -9.0065636 39.63166693 -8.15039062 41.75585938 C-7.54807617 43.27083008 -7.54807617 43.27083008 -6.93359375 44.81640625 C-6.56290771 45.73881104 -6.19222168 46.66121582 -5.81030273 47.61157227 C-5 50 -5 50 -5 53 C-7.475 53.495 -7.475 53.495 -10 54 C-13.9097306 45.66452288 -17.39219095 37.19601125 -20.75 28.625 C-21.24853741 27.36842589 -21.7472346 26.11191516 -22.24609375 24.85546875 C-22.71660156 23.65792969 -23.18710937 22.46039062 -23.671875 21.2265625 C-24.0956543 20.14971191 -24.51943359 19.07286133 -24.95605469 17.96337891 C-25.8936772 15.30181155 -26.53348964 12.77785715 -27 10 C-24.05918932 10.59837636 -22.01649168 11.46515927 -19.56640625 13.1875 C-18.92316406 13.63504639 -18.27992188 14.08259277 -17.6171875 14.54370117 C-16.93914062 15.02427979 -16.26109375 15.5048584 -15.5625 16 C-14.86253906 16.48895752 -14.16257812 16.97791504 -13.44140625 17.48168945 C-11.99985679 18.48891338 -10.55992077 19.49845029 -9.12158203 20.51025391 C-6.54878209 22.31683909 -3.96396003 24.10555705 -1.37670898 25.89135742 C1.08437415 27.59109599 3.54211183 29.29564578 6 31 C5.66154053 30.19780029 5.32308105 29.39560059 4.97436523 28.5690918 C3.72371223 25.59224002 2.48166592 22.61198655 1.24536133 19.62915039 C0.70842598 18.33865574 0.16807852 17.04957528 -0.37573242 15.76196289 C-1.1565773 13.91146749 -1.92418332 12.05540326 -2.69140625 10.19921875 C-3.15748291 9.08377686 -3.62355957 7.96833496 -4.10375977 6.8190918 C-5 4 -5 4 -4 1 C-2 0 -2 0 0 0 Z " fill="#F6F6F8" transform="translate(399,510)"/>
<path d="M0 0 C0.33 1.98 0.66 3.96 1 6 C-0.2375 6.226875 -1.475 6.45375 -2.75 6.6875 C-6.93684756 7.7175386 -8.67957898 9.28732637 -11 13 C-12.76993457 16.53986914 -11.86550966 20.24344765 -11 24 C-8.51617663 29.72314302 -4.4274361 34.84753711 1 38 C5.7554548 39.55195471 8.89781339 39.52103367 13.4375 37.375 C16.87130833 34.28223083 16.87130833 34.28223083 18 30 C16.61742741 27.41776326 14.90451199 25.21767 13 23 C11.02 23.66 9.04 24.32 7 25 C5.5 23.625 5.5 23.625 4 22 C4 21.34 4 20.68 4 20 C5.75 18.4921875 5.75 18.4921875 8 16.875 C8.7425 16.33617188 9.485 15.79734375 10.25 15.2421875 C11.11625 14.62730469 11.11625 14.62730469 12 14 C16.29402302 15.5587203 18.61498915 18.81543917 21.3125 22.3125 C21.77978516 22.88162109 22.24707031 23.45074219 22.72851562 24.03710938 C24.7507979 26.63889351 26.01220101 28.30657587 25.953125 31.6640625 C23.40419406 37.91103259 19.39850137 42.70330608 13.13671875 45.375 C7.77202971 46.94419606 2.98701524 46.71718247 -2.125 44.4375 C-10.70741854 39.51623222 -15.60000604 32.20281052 -19 23 C-20.15923385 17.35426568 -19.07466058 12.7803557 -16.27734375 7.79296875 C-12.00187346 1.79162055 -7.26586873 -0.16146375 0 0 Z " fill="#F6F5F7" transform="translate(140,77)"/>
<path d="M0 0 C0 1.98 0 3.96 0 6 C-7.26 6 -14.52 6 -22 6 C-22 11.94 -22 17.88 -22 24 C-14.74 24 -7.48 24 0 24 C0 25.98 0 27.96 0 30 C-15.33755339 30.61625562 -30.64862389 31.18275448 -46 31 C-46 29.02 -46 27.04 -46 25 C-40.06 25 -34.12 25 -28 25 C-28 19.06 -28 13.12 -28 7 C-34.27 7 -40.54 7 -47 7 C-47 5.02 -47 3.04 -47 1 C-31.32190062 0.26035566 -15.69543984 -0.14027702 0 0 Z " fill="#F6F5F7" transform="translate(69,291)"/>
<path d="M0 0 C0 1.98 0 3.96 0 6 C-0.66386719 6.01417969 -1.32773438 6.02835938 -2.01171875 6.04296875 C-8.02162804 6.35365929 -8.02162804 6.35365929 -13.0625 9.5 C-13.701875 10.325 -14.34125 11.15 -15 12 C-15.33 12.33 -15.66 12.66 -16 13 C-16.93524998 21.44791378 -15.76108067 29.11839012 -10.4921875 35.95703125 C-7.3352552 39.09193844 -4.84935412 40.36599272 -0.375 40.5 C3.05491669 40.26547578 5.91625267 39.59161152 9 38 C9.23509196 33.18061476 8.45184478 29.53701494 7 25 C4.69 25.33 2.38 25.66 0 26 C-0.495 23.525 -0.495 23.525 -1 21 C0.4562545 20.32880451 1.91507867 19.66318193 3.375 19 C4.18710938 18.62875 4.99921875 18.2575 5.8359375 17.875 C8 17 8 17 10 17 C11.17818551 19.55774456 12.34265655 22.12034242 13.5 24.6875 C13.83386719 25.40873047 14.16773438 26.12996094 14.51171875 26.87304688 C17.78245754 34.18214683 17.78245754 34.18214683 17 38 C15.390625 39.94921875 15.390625 39.94921875 13.25 41.6875 C12.55390625 42.26886719 11.8578125 42.85023437 11.140625 43.44921875 C5.36711874 47.63185011 0.02192976 48.00184345 -7 47 C-14.40058849 43.76685254 -19.2291206 36.44241225 -22.13671875 29.1484375 C-23.85859568 22.86865104 -24.26186087 15.67291646 -22.125 9.453125 C-16.90580332 0.31953081 -9.89917148 -0.64443069 0 0 Z " fill="#F6F6F8" transform="translate(200,44)"/>
<path d="M0 0 C10.37290676 2.44826371 20.62677077 5.26316452 30.875 8.1875 C32.12958008 8.54457031 33.38416016 8.90164062 34.67675781 9.26953125 C35.85334961 9.60726562 37.02994141 9.945 38.2421875 10.29296875 C39.3029248 10.5974292 40.36366211 10.90188965 41.45654297 11.21557617 C44 12 44 12 46 13 C46 13.66 46 14.32 46 15 C33.79 18.63 21.58 22.26 9 26 C12.650625 27.11375 16.30125 28.2275 20.0625 29.375 C21.76805054 29.89586182 21.76805054 29.89586182 23.50805664 30.42724609 C28.66000313 31.99706117 33.81476462 33.54372113 39 35 C38.67 36.65 38.34 38.3 38 40 C31.11666276 39.39070938 24.84694389 37.63565544 18.25 35.625 C10.21174331 33.19913225 2.16369296 30.96735191 -6 29 C-6 27.68 -6 26.36 -6 25 C-4.20369141 24.43732422 -4.20369141 24.43732422 -2.37109375 23.86328125 C7.7873507 20.67299134 17.90876112 17.39705071 28 14 C18.43 11.36 8.86 8.72 -1 6 C-0.67 4.02 -0.34 2.04 0 0 Z " fill="#F8F7F9" transform="translate(36,211)"/>
<path d="M0 0 C1 1 1 1 1.0625 3.5625 C1.041875 4.366875 1.02125 5.17125 1 6 C0.40832031 6.08636719 -0.18335938 6.17273438 -0.79296875 6.26171875 C-6.34144055 7.24831488 -9.34749222 8.43436527 -13 13 C-14.82863305 16.6572661 -14.50747024 20.35579641 -13.31640625 24.21484375 C-10.90584772 30.06619953 -7.60583305 35.86928047 -2.0234375 39.16796875 C1.14277758 40.46990661 3.61355452 40.35032195 7 40 C10.09772317 38.39377317 12.26926727 37.17729162 14.125 34.1875 C13.9170801 30.54890181 11.93281427 28.04564672 10 25 C8.02 25.33 6.04 25.66 4 26 C3.34 24.35 2.68 22.7 2 21 C3.26239712 20.13341385 4.53527501 19.28207941 5.8125 18.4375 C6.52019531 17.96183594 7.22789062 17.48617187 7.95703125 16.99609375 C10 16 10 16 13 17 C14.71463101 19.39115208 16.2470729 21.73247858 17.75 24.25 C18.17410156 24.91902344 18.59820312 25.58804688 19.03515625 26.27734375 C22.03424283 31.24977069 22.03424283 31.24977069 21.87109375 34.82421875 C19.71344435 40.21350448 15.87691304 43.094605 11 46 C5.75541421 47.74819526 -0.18669591 48.34424086 -5.2890625 45.90625 C-7.36785695 44.39731812 -9.17620908 42.80775759 -11 41 C-11.55558594 40.47019531 -12.11117188 39.94039062 -12.68359375 39.39453125 C-18.11035612 33.69710742 -21.1157025 26.7362209 -21.5625 18.875 C-21.28598934 12.80130025 -18.63351034 8.70759886 -14.47265625 4.4296875 C-9.71074019 0.18879533 -6.21635009 -0.27628223 0 0 Z " fill="#F7F6F8" transform="translate(431,495)"/>
<path d="M0 0 C0.99 0.33 1.98 0.66 3 1 C3.33 2.65 3.66 4.3 4 6 C2.2421875 6.94401042 0.484375 7.88802083 -1.2734375 8.83203125 C-3.30502365 10.04763493 -3.30502365 10.04763493 -5 13 C-5.89199834 17.76045433 -5.42653733 21.94853651 -3.0625 26.1875 C0.58804453 31.41750648 5.9917257 34.9972419 12 37 C16.25160217 37.40109454 18.5006973 37.26378256 22.3125 35.25 C24.82329461 33.14793939 26.03948354 32.07365268 27 29 C27.46763849 25.12802131 27.46763849 25.12802131 25.5390625 23.515625 C24.90742187 23.09796875 24.27578125 22.6803125 23.625 22.25 C22.99851562 21.82203125 22.37203125 21.3940625 21.7265625 20.953125 C20.03687476 19.83890441 20.03687476 19.83890441 18 20 C17.34 20.99 16.68 21.98 16 23 C14.68 22.34 13.36 21.68 12 21 C12 17.60406522 12.52165948 16.93380119 14.5 14.3125 C14.9640625 13.68988281 15.428125 13.06726563 15.90625 12.42578125 C16.2671875 11.95527344 16.628125 11.48476563 17 11 C21.28444545 11.5726734 24.38135901 14.11517737 27.75 16.625 C28.35199219 17.03878906 28.95398438 17.45257813 29.57421875 17.87890625 C31.296875 19.1640625 31.296875 19.1640625 34 22 C34.81487643 27.97793347 33.37400128 32.15477723 30 37 C26.49995787 40.67504424 23.25442334 43.66621299 18.01953125 44.203125 C9.00537078 44.3945762 3.01623433 41.63885383 -3.94921875 35.97265625 C-9.05774082 31.05874454 -12.10234056 25.37329888 -12.3125 18.25 C-12.23527614 12.35524559 -10.77052761 8.7210539 -6.46875 4.49609375 C-4.42737295 2.73990908 -2.41308235 1.20654118 0 0 Z " fill="#F8F8F9" transform="translate(492,433)"/>
<path d="M0 0 C1.65 0.66 3.3 1.32 5 2 C4.40017008 6.21817442 2.93442228 9.27182456 0.83984375 12.96484375 C0.21142578 14.09470703 -0.41699219 15.22457031 -1.06445312 16.38867188 C-2.06272602 18.16640803 -3.06490005 19.94171646 -4.07348633 21.71362305 C-5.05092236 23.43697824 -6.01198761 25.16958581 -6.97265625 26.90234375 C-7.55281494 27.92835693 -8.13297363 28.95437012 -8.73071289 30.01147461 C-10.13363998 33.31465416 -10.4086219 35.44879994 -10 39 C-7.54405875 42.32274404 -6.0743356 43.77618008 -2 44.625 C1.89789729 43.81293806 3.64963213 42.06681228 6 39 C8.20116138 35.25589288 10.13239416 31.38934535 12.0625 27.5 C13.08984705 25.4453059 14.12224538 23.39312816 15.16015625 21.34375 C15.61011963 20.43818359 16.06008301 19.53261719 16.52368164 18.59960938 C18.10561038 15.81403352 19.94034749 13.44785493 22 11 C23.32 11.66 24.64 12.32 26 13 C25.09646707 19.31516544 21.76782326 24.58135332 18.79052734 30.12036133 C17.75485044 32.05344667 16.73837171 33.99582134 15.72265625 35.93945312 C15.0610445 37.18030065 14.39832013 38.42055569 13.734375 39.66015625 C13.13850586 40.78043213 12.54263672 41.90070801 11.92871094 43.05493164 C9.53319054 46.71280032 7.00903234 49.35043654 2.7890625 50.71484375 C-2.61789272 51.27115503 -6.15317816 50.79624337 -11 48 C-15.17131111 44.37277294 -16.68473104 42.15139536 -17.48828125 36.66796875 C-17.39743365 29.93446791 -13.33422021 24.07287259 -10.1875 18.3125 C-9.53692993 17.09128288 -8.8878286 15.86928215 -8.24023438 14.64648438 C-5.60477541 9.69497141 -2.9190567 4.79145068 0 0 Z " fill="#F7F6F8" transform="translate(417,48)"/>
<path d="M0 0 C1.22680664 1.3894043 1.22680664 1.3894043 2.41015625 3.32421875 C2.84263672 4.02353516 3.27511719 4.72285156 3.72070312 5.44335938 C4.38489258 6.55420898 4.38489258 6.55420898 5.0625 7.6875 C5.50916016 8.40873047 5.95582031 9.12996094 6.41601562 9.87304688 C8.62404943 13.48709323 10.5973961 16.98237187 12 21 C10.625 22.5 10.625 22.5 9 24 C8.34 24 7.68 24 7 24 C5.3633245 21.73701547 3.85434489 19.48732888 2.375 17.125 C1.95476563 16.47402344 1.53453125 15.82304687 1.1015625 15.15234375 C-2 10.26838981 -2 10.26838981 -2 8 C-5.3 9.98 -8.6 11.96 -12 14 C-10.26073202 18.84602862 -10.26073202 18.84602862 -7.875 22.1875 C-6 25 -6 25 -6 27 C-7.65 27.66 -9.3 28.32 -11 29 C-13.31 25.7 -15.62 22.4 -18 19 C-21.68312622 20.47325049 -23.72886233 21.3511706 -26.6875 23.625 C-29.78323699 26 -29.78323699 26 -32 26 C-28.7 31.28 -25.4 36.56 -22 42 C-23.32 43.32 -24.64 44.64 -26 46 C-29.95089168 42.47373687 -32.50136542 38.3415312 -35.25 33.875 C-35.70890625 33.14667969 -36.1678125 32.41835937 -36.640625 31.66796875 C-40 26.25897507 -40 26.25897507 -40 24 C-38.54150391 22.86181641 -38.54150391 22.86181641 -36.4765625 21.6015625 C-35.71085937 21.12750977 -34.94515625 20.65345703 -34.15625 20.16503906 C-33.3209375 19.65682617 -32.485625 19.14861328 -31.625 18.625 C-23.84853277 13.82379968 -16.21604716 8.86145054 -8.70166016 3.65869141 C-7.9957373 3.17835449 -7.28981445 2.69801758 -6.5625 2.203125 C-5.94503906 1.77676758 -5.32757812 1.35041016 -4.69140625 0.91113281 C-3 0 -3 0 0 0 Z " fill="#F7F7F9" transform="translate(528,140)"/>
<path d="M0 0 C6.25604109 0.661268 8.60959786 1.71413124 13 6 C15.2106863 10.42137261 14.47663018 15.95079379 13.38671875 20.63671875 C11.19787481 26.933261 7.89933272 31.69295996 2 35 C-1.92318184 35.82519689 -5.1964398 35.2678534 -9 34 C-8.41427597 26.48785688 -6.21423288 19.65656968 -3.9375 12.5 C-3.37192383 10.69402344 -3.37192383 10.69402344 -2.79492188 8.8515625 C-1.86934066 5.8990756 -0.93755706 2.94870139 0 0 Z " fill="#262B51" transform="translate(222,525)"/>
<path d="M0 0 C7.50098347 2.64027154 13.43020673 5.73292085 17 13 C17.69636314 18.04863274 16.98764122 20.89199332 14 25 C7.43949606 23.96385211 1.72488839 20.84024239 -4.25 18.0625 C-5.47119565 17.50551169 -6.69254835 16.94886758 -7.9140625 16.39257812 C-9.63496094 15.5969043 -9.63496094 15.5969043 -11.390625 14.78515625 C-12.44282227 14.29926025 -13.49501953 13.81336426 -14.57910156 13.31274414 C-17 12 -17 12 -18 10 C-14.52100016 1.10922264 -9.17740409 -1.6605524 0 0 Z " fill="#24294F" transform="translate(67,184)"/>
<path d="M0 0 C1.32 0.99 2.64 1.98 4 3 C3.64646241 9.22226158 0.51297362 13.4509338 -2.8125 18.5 C-3.34681641 19.32886719 -3.88113281 20.15773438 -4.43164062 21.01171875 C-7.2470674 25.36818478 -10.11149151 29.69171615 -13 34 C-10.43592394 32.96208658 -7.8736264 31.92015257 -5.3125 30.875 C-4.54462158 30.56312744 -3.77674316 30.25125488 -2.9855957 29.92993164 C2.94116092 27.49883597 8.6628682 24.79793835 14.36328125 21.87109375 C17 21 17 21 19.35546875 21.84765625 C19.89816406 22.22792969 20.44085937 22.60820312 21 23 C21 24.32 21 25.64 21 27 C16.48397863 28.92194004 11.96735354 30.8424522 7.45019531 32.76171875 C5.91780737 33.4130319 4.38557693 34.06471575 2.85351562 34.71679688 C-1.46536476 36.55485824 -5.78759538 38.38456981 -10.11462402 40.20336914 C-11.81215828 40.92063094 -13.50456413 41.65000112 -15.19628906 42.38085938 C-16.52611816 42.94256836 -16.52611816 42.94256836 -17.8828125 43.515625 C-18.62160645 43.83305664 -19.36040039 44.15048828 -20.12158203 44.47753906 C-22 45 -22 45 -25 44 C-23.64945646 39.42668548 -21.79344855 35.69649606 -19.296875 31.640625 C-18.93660217 31.05134216 -18.57632935 30.46205933 -18.20513916 29.85491943 C-17.05907373 27.98307647 -15.90480591 26.11646049 -14.75 24.25 C-13.99031824 23.01336908 -13.23119897 21.77639243 -12.47265625 20.5390625 C-11.36108351 18.72647187 -10.24892808 16.91426225 -9.13415527 15.1036377 C-6.04919136 10.09297409 -3.0118527 5.05487814 0 0 Z " fill="#F6F6F8" transform="translate(499,106)"/>
<path d="M0 0 C3.43761572 2.12108204 5.77560839 4.1042085 7 8 C7.46931049 12.2237944 7.28387834 14.45327135 5.3125 18.25 C1.97439585 22.21963737 -0.25792104 23.77828086 -5.4375 24.4375 C-10.65512075 23.79673956 -13.59245374 21.73597372 -16.875 17.6875 C-18.35117243 14.16108808 -18.46618895 11.79611 -18 8 C-13.77365745 -0.1396227 -8.66866317 -2.32842495 0 0 Z " fill="#1B4482" transform="translate(244,324)"/>
<path d="M0 0 C1.01964844 -0.00515625 2.03929687 -0.0103125 3.08984375 -0.015625 C6.11582204 0.25476465 8.32075647 0.97758864 11.0625 2.25 C10.4025 4.23 9.7425 6.21 9.0625 8.25 C8.051875 7.899375 7.04125 7.54875 6 7.1875 C2.03336635 6.08966402 -0.92602633 6.06141521 -4.9375 7.25 C-9.32392173 11.53894569 -11.68766974 15.4759107 -12.23828125 21.58984375 C-12.24214844 22.77707031 -12.24601562 23.96429687 -12.25 25.1875 C-12.26675781 26.37214844 -12.28351563 27.55679688 -12.30078125 28.77734375 C-11.82103111 33.36334244 -10.33435887 36.69793459 -7.25 40.125 C-3.85229226 41.7779389 -0.60375574 41.81627316 3.0625 41.25 C5.9879644 39.8990712 5.9879644 39.8990712 8.0625 38.25 C8.7225 40.23 9.3825 42.21 10.0625 44.25 C4.44521349 48.15767758 -0.10218589 49.36850595 -6.9375 48.25 C-12.05607133 45.69071433 -15.46359678 42.19252363 -18.02734375 37.07421875 C-19.17049866 33.52700415 -19.28033679 30.18852065 -19.25 26.5 C-19.24436035 25.7891626 -19.2387207 25.0783252 -19.23291016 24.34594727 C-19.03504122 15.76411682 -17.21789812 10.07028908 -11.53515625 3.66015625 C-7.86714912 0.42262429 -4.83829589 -0.02440502 0 0 Z " fill="#F7F7F9" transform="translate(286.9375,530.75)"/>
<path d="M0 0 C3.75870899 2.7407253 5.84745279 5.49458819 7 10 C7.14562459 12.6915441 7.09152233 15.30009134 7 18 C5.02 18 3.04 18 1 18 C0.93941406 17.37351563 0.87882813 16.74703125 0.81640625 16.1015625 C0.73261719 15.28429687 0.64882813 14.46703125 0.5625 13.625 C0.48128906 12.81289062 0.40007813 12.00078125 0.31640625 11.1640625 C0.10909886 8.95727195 0.10909886 8.95727195 -1 7 C-2.258125 6.9175 -3.51625 6.835 -4.8125 6.75 C-5.87404297 6.68039063 -5.87404297 6.68039063 -6.95703125 6.609375 C-9.13105077 6.83238271 -9.13105077 6.83238271 -10.67578125 8.61328125 C-12.29698853 11.53528021 -12.79000423 14.15164714 -13.375 17.4375 C-14.50512788 22.68788576 -15.40455264 25.82695302 -20 29 C-24.00285895 31.21210626 -27.47013287 31.47682812 -32 31 C-35.9454715 29.1031387 -37.65184731 27.59185958 -39.875 23.8125 C-41.18350617 19.37811798 -41.28031048 15.57840459 -41 11 C-39.02 11 -37.04 11 -35 11 C-34.96261719 11.60328125 -34.92523437 12.2065625 -34.88671875 12.828125 C-34.59600793 16.3622565 -34.31291563 19.32476102 -32.8125 22.5625 C-30.98778257 24.26529276 -30.98778257 24.26529276 -28 24.375 C-24.82297795 24.2049729 -24.82297795 24.2049729 -22 22 C-20.86132439 18.45173986 -19.93323721 14.91872802 -19.0703125 11.296875 C-17.76618435 6.33775612 -16.55290867 3.81846727 -12 1 C-8.2781653 -0.86091735 -4.05280619 -0.5680311 0 0 Z " fill="#F7F6F8" transform="translate(559,207)"/>
<path d="M0 0 C1.98 0 3.96 0 6 0 C7.74178643 10.98749553 9.41152509 21.87985348 10 33 C8.02 33 6.04 33 4 33 C2.67770811 30.35541621 2.90322806 28.32238699 2.9375 25.375 C2.94652344 24.37210937 2.95554687 23.36921875 2.96484375 22.3359375 C2.97644531 21.56507813 2.98804688 20.79421875 3 20 C2.04746338 20.12117188 1.09492676 20.24234375 0.11352539 20.3671875 C-3.45853536 20.82007738 -7.03148678 21.26558019 -10.60473633 21.70898438 C-12.14404703 21.9010156 -13.68311732 22.09498513 -15.22192383 22.29101562 C-23.1632405 23.30140061 -30.97547066 24.29213304 -39 24 C-39 22.02 -39 20.04 -39 18 C-33.94660347 17.42751519 -28.89289164 16.85793023 -23.83886719 16.29101562 C-22.12002764 16.09780016 -20.40127653 15.90379627 -18.68261719 15.70898438 C-16.21051564 15.42890813 -13.73810866 15.15168015 -11.265625 14.875 C-10.49881409 14.78750488 -9.73200317 14.70000977 -8.94195557 14.60986328 C-5.59505805 14.23782983 -2.37310009 14 1 14 C0.67 9.38 0.34 4.76 0 0 Z " fill="#F1F0F3" transform="translate(568,252)"/>
<path d="M0 0 C0 1.98 0 3.96 0 6 C-9.405 10.455 -9.405 10.455 -19 15 C-13.65594541 18.34003412 -8.47179292 21.40237203 -2.90625 24.27734375 C-1 26 -1 26 -0.71875 29.19140625 C-0.85796875 30.58166016 -0.85796875 30.58166016 -1 32 C-3.48049079 30.77345057 -5.9593797 29.54382293 -8.4375 28.3125 C-9.12521484 27.97283203 -9.81292969 27.63316406 -10.52148438 27.28320312 C-11.21435547 26.93837891 -11.90722656 26.59355469 -12.62109375 26.23828125 C-13.34031006 25.8822583 -14.05952637 25.52623535 -14.80053711 25.15942383 C-17 24 -17 24 -19.15454102 22.64331055 C-25.14616476 18.91550093 -30.07027844 18.23129262 -37.0625 18.1875 C-38.02349609 18.16236328 -38.98449219 18.13722656 -39.97460938 18.11132812 C-42.31681926 18.0530642 -44.65718708 18.01634297 -47 18 C-47 16.02 -47 14.04 -47 12 C-46.45400146 12.02731201 -45.90800293 12.05462402 -45.34545898 12.08276367 C-29.32155547 12.66390701 -17.91023663 8.77513326 -3.98925781 0.99389648 C-2 0 -2 0 0 0 Z " fill="#F7F7F9" transform="translate(578,291)"/>
<path d="M0 0 C1.65 0.66 3.3 1.32 5 2 C4.44644289 6.68071076 3.1392454 10.09727746 0.9375 14.25 C-2.0701953 20.03556405 -4.8089592 25.90775745 -7.4375 31.875 C-7.79142822 32.6784082 -8.14535645 33.48181641 -8.51000977 34.30957031 C-9.34261123 36.20523832 -10.17170314 38.10244719 -11 40 C-10.13117188 40.27585937 -9.26234375 40.55171875 -8.3671875 40.8359375 C-5.18070558 41.9375287 -2.18220048 43.20824856 0.875 44.625 C2.32519531 45.29402344 2.32519531 45.29402344 3.8046875 45.9765625 C4.52914062 46.31429687 5.25359375 46.65203125 6 47 C5.34 48.98 4.68 50.96 4 53 C-1.2063297 51.41980408 -5.98373311 49.22115005 -10.875 46.875 C-11.65875 46.50246094 -12.4425 46.12992188 -13.25 45.74609375 C-15.16813499 44.83381003 -17.08427329 43.91733016 -19 43 C-17.43035255 37.89331892 -15.33100869 33.15385403 -13.0859375 28.3203125 C-12.71143463 27.50754852 -12.33693176 26.69478455 -11.95108032 25.85739136 C-10.76199684 23.27855706 -9.56856876 20.70176095 -8.375 18.125 C-7.56481582 16.36992475 -6.7549169 14.61471778 -5.9453125 12.859375 C-3.96684067 8.57138488 -1.98447166 4.28521651 0 0 Z " fill="#F6F5F7" transform="translate(193,506)"/>
<path d="M0 0 C2.97 0.495 2.97 0.495 6 1 C2.80979203 14.4741703 -1.05738802 27.72942071 -5 41 C-4.33178223 41.13132324 -3.66356445 41.26264648 -2.97509766 41.39794922 C-2.08870605 41.57342285 -1.20231445 41.74889648 -0.2890625 41.9296875 C0.58540527 42.10226074 1.45987305 42.27483398 2.36083984 42.45263672 C5.93824797 43.19459315 9.46367352 44.08317462 13 45 C12.67 46.65 12.34 48.3 12 50 C8.6252898 51.14184472 6.60566936 50.84408845 3.234375 49.78515625 C2.34492188 49.51123047 1.45546875 49.23730469 0.5390625 48.95507812 C-0.38132812 48.66052734 -1.30171875 48.36597656 -2.25 48.0625 C-3.18585938 47.77181641 -4.12171875 47.48113281 -5.0859375 47.18164062 C-7.3936145 46.46343503 -9.69793682 45.73596262 -12 45 C-11.41277416 37.71306117 -9.34743173 31.12961201 -7.125 24.1875 C-4.5851168 16.16314374 -2.14233485 8.1406678 0 0 Z " fill="#F7F7F9" transform="translate(367,31)"/>
<path d="M0 0 C0.19110352 0.69448242 0.38220703 1.38896484 0.57910156 2.10449219 C1.46611369 5.32057827 2.35803471 8.53528429 3.25 11.75 C3.55035156 12.84183594 3.85070312 13.93367188 4.16015625 15.05859375 C6.21700085 22.45448177 8.5016895 29.74143952 11 37 C14.98473311 36.58778623 18.40363191 36.21048286 22.1875 34.875 C25.27747326 33.91367498 26.93447141 34.09837394 30 35 C29.67 36.65 29.34 38.3 29 40 C18.11 42.97 18.11 42.97 7 46 C3.62431742 36.9981798 3.62431742 36.9981798 2.74145508 33.91064453 C2.54147415 33.21697784 2.34149323 32.52331116 2.13545227 31.80862427 C1.93219833 31.09060638 1.7289444 30.3725885 1.51953125 29.6328125 C1.30181564 28.87201385 1.08410004 28.11121521 0.85978699 27.32736206 C0.40532979 25.73627614 -0.04750955 24.14472727 -0.4987793 22.55273438 C-1.19193547 20.10936501 -1.89151399 17.66789772 -2.59179688 15.2265625 C-3.03423407 13.67458742 -3.47630475 12.1225078 -3.91796875 10.5703125 C-4.23195869 9.4750676 -4.23195869 9.4750676 -4.55229187 8.35769653 C-6 3.23055155 -6 3.23055155 -6 1 C-3 0 -3 0 0 0 Z " fill="#F8F7F9" transform="translate(219,35)"/>
<path d="M0 0 C3.49406769 1.66762322 4.82670681 2.74006022 7 6 C7.55248619 13.59668508 7.55248619 13.59668508 5 17 C2.27982477 19.11569184 0.41752096 19.93911153 -3 20.4375 C-6.72413693 19.8943967 -8.32854076 18.59513183 -11 16 C-12.75027469 12.49945062 -12.68972059 8.80988517 -12 5 C-9.08714969 0.60552686 -5.12968619 -0.87313807 0 0 Z " fill="#F9F9FA" transform="translate(544,376)"/>
<path d="M0 0 C2.75329021 1.79562405 4.52627461 3.05254922 6 6 C6.37340899 10.94766914 6.22237243 14.11092983 3 18 C0.11638977 19.71457905 -1.64475538 20.00740093 -5 19.9375 C-8.94700576 18.7040607 -10.57468391 17.35264284 -13 14 C-13.65174641 11.19465676 -13.6297057 8.80814702 -13 6 C-9.36990394 0.31284951 -6.66395172 -0.56474167 0 0 Z " fill="#F9F9FA" transform="translate(65,376)"/>
<path d="M0 0 C1.32 0.99 2.64 1.98 4 3 C0.40397548 11.22755349 -7.56580047 17.62944645 -13.8671875 23.83203125 C-15.92489383 25.92365581 -17.84507182 28.08183735 -19.75 30.3125 C-22.26810369 33.2532225 -24.85398388 35.71198828 -28 38 C-29.5625 36.75 -29.5625 36.75 -31 35 C-30.61387281 31.58202676 -29.30120591 29.95053334 -26.8671875 27.609375 C-26.22918213 26.98619385 -25.59117676 26.3630127 -24.93383789 25.72094727 C-23.91471313 24.74532837 -23.91471313 24.74532837 -22.875 23.75 C-21.49426379 22.4016109 -20.11533162 21.05137182 -18.73828125 19.69921875 C-18.0829541 19.05645996 -17.42762695 18.41370117 -16.75244141 17.75146484 C-14.21171613 15.21215541 -11.87756981 12.52827283 -9.5625 9.78515625 C-6.55633961 6.350618 -3.26387436 3.187576 0 0 Z " fill="#F5F4F6" transform="translate(488,96)"/>
<path d="M0 0 C4.90703124 4.55448725 8.79494168 9.78689017 12.8125 15.125 C13.52083984 16.06045654 14.22917969 16.99591309 14.95898438 17.9597168 C19.71390642 24.25277082 24.42526296 30.57430028 29 37 C27.68 38.32 26.36 39.64 25 41 C20.59141611 36.83173366 16.93886562 32.2456691 13.25 27.4375 C12.63745361 26.64335693 12.02490723 25.84921387 11.39379883 25.03100586 C9.59164174 22.69054519 7.79531319 20.34571237 6 18 C5.50226074 17.35321289 5.00452148 16.70642578 4.49169922 16.04003906 C3.21861024 14.3846152 1.95150156 12.72486797 0.6875 11.0625 C-0.35857422 9.68771484 -0.35857422 9.68771484 -1.42578125 8.28515625 C-3 6 -3 6 -4 3 C-2.68 2.01 -1.36 1.02 0 0 Z " fill="#F5F4F7" transform="translate(441,483)"/>
<path d="M0 0 C0 1.98 0 3.96 0 6 C-31.32040447 13.73801964 -31.32040447 13.73801964 -45 16 C-45.33 14.02 -45.66 12.04 -46 10 C-36.17406605 7.15916876 -26.24816046 4.89938765 -16.25 2.75 C-14.99993164 2.47978027 -13.74986328 2.20956055 -12.46191406 1.93115234 C-11.28338867 1.68059082 -10.10486328 1.4300293 -8.890625 1.171875 C-7.82875977 0.9459668 -6.76689453 0.72005859 -5.67285156 0.48730469 C-3 0 -3 0 0 0 Z " fill="#F5F5F7" transform="translate(571,237)"/>
<path d="M0 0 C9 -0.48 9 -0.48 13.125 1.5 C15.42666842 4.56889123 15.55067318 6.35440072 15.29296875 10.1015625 C14.92629481 12.47760965 14.47583974 14.08140834 13 16 C9 18 9 18 0 18 C0 12.06 0 6.12 0 0 Z " fill="#2A2E53" transform="translate(296,46)"/>
<path d="M0 0 C2.11223317 3.46406239 3 5.58803597 3 9.6875 C2 13 2 13 -0.125 15 C-3.99538856 16.34622211 -6.09738042 16.27722095 -10 15 C-12.61992786 11.99704175 -14 9.03793913 -14 5 C-12.23244474 4.15973604 -10.46082737 3.32801278 -8.6875 2.5 C-7.70136719 2.0359375 -6.71523438 1.571875 -5.69921875 1.09375 C-3 0 -3 0 0 0 Z " fill="#292D52" transform="translate(544,179)"/>
<path d="M0 0 C3.44480805 0.29526926 5.05494696 1.04061297 7.875 3.125 C10 6 10 6 10.0625 9.5625 C8.90966686 13.29225427 8.30261862 14.91413561 5 17 C0.17375254 16.91225005 -3.06242368 15.74437138 -7 13 C-5.35821735 8.22390502 -2.73453298 4.20617096 0 0 Z " fill="#272C51" transform="translate(167,498)"/>
<path d="M0 0 C7.15789474 -0.35789474 7.15789474 -0.35789474 10.5 1.0625 C12 3 12 3 12.5 6.4375 C12 10 12 10 10.5 12.4375 C6.86353539 14.71029038 4.24217465 14.28281164 0 14 C0 9.38 0 4.76 0 0 Z " fill="#2A2E53" transform="translate(297,27)"/>
<path d="M0 0 C0.33 0 0.66 0 1 0 C3.29612756 13.6332574 3.29612756 13.6332574 3 20 C-0.96 19.67 -4.92 19.34 -9 19 C-7.6077541 14.37324343 -5.70479016 10.35313769 -3.375 6.125 C-2.74335938 4.97257812 -2.11171875 3.82015625 -1.4609375 2.6328125 C-0.97882813 1.76398437 -0.49671875 0.89515625 0 0 Z " fill="#313458" transform="translate(340,38)"/>
<path d="M0 0 C3.87641915 4.32369829 10 11.95808443 10 18 C6.37 18.66 2.74 19.32 -1 20 C-1.02712351 17.60408962 -1.0468982 15.20849043 -1.0625 12.8125 C-1.07087891 12.13896484 -1.07925781 11.46542969 -1.08789062 10.77148438 C-1.10606538 7.04565869 -0.89299392 3.6211958 0 0 Z " fill="#2C3055" transform="translate(356,538)"/>
<path d="M0 0 C-0.33 3.96 -0.66 7.92 -1 12 C-7.72239529 9.93991112 -13.78592664 7.28217236 -20 4 C-20 3.67 -20 3.34 -20 3 C-17.04198778 2.49803429 -14.08362295 1.99834165 -11.125 1.5 C-10.28324219 1.35691406 -9.44148438 1.21382813 -8.57421875 1.06640625 C-7.36572266 0.86337891 -7.36572266 0.86337891 -6.1328125 0.65625 C-5.01737061 0.46772461 -5.01737061 0.46772461 -3.87939453 0.27539062 C-2 0 -2 0 0 0 Z " fill="#2C3055" transform="translate(57,263)"/>
<path d="M0 0 C0.66 0.33 1.32 0.66 2 1 C-6.91 9.91 -15.82 18.82 -25 28 C-25.66 27.67 -26.32 27.34 -27 27 C-26.57589844 26.5875 -26.15179688 26.175 -25.71484375 25.75 C-22.5618287 22.64549287 -19.54089879 19.50831571 -16.6875 16.125 C-13.18057682 12.04551793 -9.27399437 8.52454475 -5.234375 4.98046875 C-3.42021355 3.37246201 -1.68831926 1.73765326 0 0 Z " fill="#444366" transform="translate(102,73)"/>
</svg>
