<?xml version="1.0" encoding="UTF-8"?>
<svg version="1.1" xmlns="http://www.w3.org/2000/svg" width="740" height="746">
<path d="M0 0 C244.2 0 488.4 0 740 0 C740 246.18 740 492.36 740 746 C495.8 746 251.6 746 0 746 C0 499.82 0 253.64 0 0 Z " fill="#03A0DD" transform="translate(0,0)"/>
<path d="M0 0 C244.2 0 488.4 0 740 0 C740 246.18 740 492.36 740 746 C495.8 746 251.6 746 0 746 C0 499.82 0 253.64 0 0 Z M214.7578125 50.22265625 C211.58271885 51.77651083 208.38907289 52.97477889 205 54 C205 54.66 205 55.32 205 56 C204.22398437 56.04382812 203.44796875 56.08765625 202.6484375 56.1328125 C197.37514369 57.38620782 193.2304526 60.07771382 188.625 62.875 C187.16984985 63.74705078 187.16984985 63.74705078 185.68530273 64.63671875 C177.82816942 69.39178979 170.18365369 74.41828186 162.72314453 79.7734375 C161.49497728 80.64766706 160.25495328 81.50533921 159.00732422 82.3515625 C157.30398139 83.51927635 155.64732783 84.75451076 154 86 C154 86.66 154 87.32 154 88 C153.443125 88.061875 152.88625 88.12375 152.3125 88.1875 C149.04431937 89.33577968 147.43252985 91.53667864 145 94 C142.78392636 95.97724071 140.51316756 97.88949811 138.25 99.8125 C126.16517602 110.19832036 114.42445176 120.92848486 104 133 C103.31421875 133.73605469 102.6284375 134.47210938 101.921875 135.23046875 C95.25883964 142.38484305 89.38732235 150.09860833 83.54736328 157.92626953 C82.58634009 159.21420437 81.62181521 160.49954362 80.65185547 161.78076172 C24.73281783 235.749477 3.60323434 332.93559254 15.26611328 423.96630859 C18.21408217 445.11374638 23.43485838 465.70097899 30 486 C30.25330078 486.79116211 30.50660156 487.58232422 30.76757812 488.39746094 C45.33140366 533.3847165 69.46326788 575.77385684 101 611 C101.84433594 611.95519531 102.68867187 612.91039062 103.55859375 613.89453125 C115.13484332 626.77465063 127.23625622 639.44617527 141 650 C146.8372093 654.6744186 146.8372093 654.6744186 148 657 C148.61875 657.309375 149.2375 657.61875 149.875 657.9375 C152.06428203 659.03214101 153.28861062 660.28861062 155 662 C155.66 662 156.32 662 157 662 C157 662.66 157 663.32 157 664 C158.98322211 665.63149091 158.98322211 665.63149091 161.58203125 667.30859375 C162.56848633 667.96859375 163.55494141 668.62859375 164.57128906 669.30859375 C165.64088867 670.01113281 166.71048828 670.71367188 167.8125 671.4375 C169.43430176 672.50871094 169.43430176 672.50871094 171.08886719 673.6015625 C177.88585883 678.05428152 184.74194099 682.3868913 191.75 686.5 C192.52835205 686.96204834 193.3067041 687.42409668 194.10864258 687.90014648 C195.19181763 688.52191772 195.19181763 688.52191772 196.296875 689.15625 C196.91916992 689.51525391 197.54146484 689.87425781 198.18261719 690.24414062 C200.2875009 691.25601094 200.2875009 691.25601094 204 691 C204 691.66 204 692.32 204 693 C217.89387527 699.42688756 231.95216198 705.31131915 246.20629883 710.89282227 C247.97314528 711.59304499 249.73433241 712.30787609 251.48706055 713.04272461 C258.36277585 715.91056935 265.38052294 717.97619746 272.5625 719.9375 C274.46636475 720.45799927 274.46636475 720.45799927 276.40869141 720.98901367 C344.23331129 739.28945757 415.10620863 736.96210974 482 716 C483.33732178 715.58911133 483.33732178 715.58911133 484.70166016 715.16992188 C498.14309609 710.98895681 510.72639863 705.13163962 523.40625 699.0859375 C527.61693381 697.08146503 531.84478488 695.22230464 536.171875 693.484375 C542.01010514 691.0880434 547.35459694 688.13489635 552.75 684.875 C553.70028076 684.30587891 554.65056152 683.73675781 555.62963867 683.15039062 C570.12331504 674.38751072 583.74553944 664.5336706 597 654 C597.58426758 653.53577637 598.16853516 653.07155273 598.77050781 652.59326172 C613.38693361 640.83620085 626.79632771 627.2190787 639 613 C640.00929797 611.86632974 641.02096475 610.73476333 642.03515625 609.60546875 C654.62825438 595.45318586 665.58516081 580.18530118 675.64306641 564.14648438 C676.62821986 562.58810561 677.62713766 561.03840141 678.63427734 559.49414062 C695.51590548 533.4762971 710.0672687 502.75224525 716.125 472.22265625 C716.80092685 468.85724325 717.576553 465.52202021 718.375 462.18359375 C721.87550678 447.53904745 724.94533525 432.92200272 727 418 C727.11859375 417.14631836 727.2371875 416.29263672 727.359375 415.41308594 C733.13613009 371.14182299 729.43178619 323.36894628 717.2109375 280.5390625 C716.16120435 276.8131151 715.3943939 273.06043741 714.6328125 269.265625 C713.16179404 262.29808413 711.02693044 255.77411006 708.5 249.125 C708.06494141 247.9687915 707.62988281 246.81258301 707.18164062 245.62133789 C699.26523356 224.93111351 689.93849711 204.64504879 677.51538086 186.24780273 C676.0710444 184.10538196 674.65456351 181.9473689 673.24609375 179.78125 C657.89793911 156.3147937 640.18778997 134.79881823 620.15087891 115.1875 C616.10226097 111.20452194 616.10226097 111.20452194 615 109 C614.34 109 613.68 109 613 109 C613 108.34 613 107.68 613 107 C611.49212839 105.62508701 609.91460239 104.32635538 608.3125 103.0625 C605.15628263 100.54556742 602.01365692 98.03788936 598.97265625 95.3828125 C582.3390219 80.86850104 563.57740941 68.92952604 544.4375 58 C543.83156006 57.65042236 543.22562012 57.30084473 542.60131836 56.94067383 C538.45253334 54.61909442 534.20673524 52.85085166 529.77905273 51.12988281 C526.72505928 49.88821702 523.75325538 48.51921384 520.76953125 47.1171875 C434.69463269 6.82257963 332.15863236 2.78503038 214.7578125 50.22265625 Z " fill="#FEFEFE" transform="translate(0,0)"/>
<path d="M0 0 C0.33 0 0.66 0 1 0 C1.33 99.66 1.66 199.32 2 302 C26.09 277.91 50.18 253.82 75 229 C87.37188209 232.37414966 87.37188209 232.37414966 92.94921875 234.22070312 C94.81670776 234.83649231 94.81670776 234.83649231 96.72192383 235.46472168 C97.36787506 235.67918442 98.01382629 235.89364716 98.67935181 236.11460876 C100.74066576 236.79889934 102.80316237 237.47951834 104.8659668 238.15930176 C109.9845941 239.84691085 115.10121418 241.54057194 120.21789551 243.23406982 C124.55942431 244.67074774 128.9017229 246.1050553 133.24502563 247.53636169 C135.25681144 248.20036949 137.26746201 248.86773285 139.27807617 249.53527832 C145.68633727 251.64834985 152.08289423 253.64642661 158.62182617 255.31652832 C161.16639795 256.04782169 163.55819032 256.97976752 166 258 C170.22987655 259.75692365 174.44650483 261.00118663 178.875 262.15234375 C182.65528709 263.17774662 186.38822627 264.32729374 190.125 265.5 C190.76969238 265.70165771 191.41438477 265.90331543 192.07861328 266.11108398 C200.53377133 268.77431967 208.9187592 271.64732554 217.3046875 274.51953125 C242.81916025 283.24077434 268.37642637 291.80359256 294.04110718 300.07302856 C298.03490808 301.3602241 302.02168861 302.66542894 306 304 C306 304.33 306 304.66 306 305 C156.015 305.495 156.015 305.495 3 306 C27.09 330.09 51.18 354.18 76 379 C74.87517646 386.87376476 74.87517646 386.87376476 73.56054688 390.74072266 C73.26903748 391.60857391 72.97752808 392.47642517 72.67718506 393.37057495 C72.2027597 394.75335129 72.2027597 394.75335129 71.71875 396.1640625 C71.38909241 397.14190704 71.05943481 398.11975159 70.7197876 399.12722778 C70.01550041 401.21533585 69.30866165 403.30258476 68.5994873 405.38903809 C66.75599214 410.8147307 64.93219774 416.2470209 63.109375 421.6796875 C62.57114105 423.28257629 62.57114105 423.28257629 62.02203369 424.91784668 C58.43928303 435.6179928 55.07891478 446.37613855 51.796875 457.171875 C49.97419227 463.15203647 48.00362038 469.07835999 46 475 C45.61714844 476.13695312 45.23429687 477.27390625 44.83984375 478.4453125 C44.54207031 479.32960938 44.24429687 480.21390625 43.9375 481.125 C42.47334924 485.51173295 41.09700435 489.91405332 39.80859375 494.35546875 C39.12224397 496.60019726 38.39747223 498.82282535 37.65136719 501.0480957 C36.00240815 505.98339466 34.38304586 510.92801677 32.76953125 515.875 C32.46179779 516.81784348 32.15406433 517.76068695 31.83700562 518.73210144 C31.17398206 520.76353739 30.511062 522.79500712 29.84823608 524.82650757 C28.79776553 528.04514638 27.74628464 531.26345366 26.69458008 534.48168945 C23.32085695 544.80798212 19.95276279 555.13599792 16.60780334 565.47164917 C15.15345365 569.96437294 13.69568596 574.45598429 12.23764038 578.94750977 C11.54062864 581.09799484 10.84532077 583.24903296 10.15176392 585.40063477 C9.18226975 588.40781564 8.20698113 591.41306085 7.23046875 594.41796875 C6.94674408 595.30332809 6.66301941 596.18868744 6.37069702 597.10087585 C4.89745416 601.6139953 3.26713085 605.8064262 1 610 C0.67 610 0.34 610 0 610 C-0.495 460.51 -0.495 460.51 -1 308 C-24.76 331.76 -48.52 355.52 -73 380 C-77.99876465 379.28589076 -81.82424085 378.55922882 -86.49511719 377.00634766 C-88.36305939 376.39033188 -88.36305939 376.39033188 -90.26873779 375.76187134 C-91.61146228 375.31263784 -92.95417437 374.8633673 -94.296875 374.4140625 C-95.6952168 373.9512565 -97.09375981 373.48905803 -98.49249268 373.0274353 C-102.16581468 371.8137519 -105.83692988 370.59353746 -109.50744629 369.37139893 C-115.3658725 367.4215134 -121.22699638 365.47979411 -127.08927155 363.54151535 C-129.11893306 362.86910182 -131.1472657 362.19279756 -133.17547607 361.51602173 C-139.67823174 359.35557858 -146.18379524 357.32147841 -152.81712341 355.59631348 C-155.41284523 354.88721984 -157.84960029 353.95544305 -160.3125 352.875 C-162.85711411 351.76038126 -164.97623863 351.00361803 -167.73217773 350.58398438 C-171.22002463 349.96067995 -174.32938535 348.96443839 -177.671875 347.7890625 C-179.09620401 347.29391018 -180.52060676 346.79896997 -181.94506836 346.30419922 C-182.72010712 346.03315369 -183.49514587 345.76210815 -184.29367065 345.48284912 C-200.33905524 339.8791547 -216.45911643 334.50712352 -232.60546875 329.203125 C-233.97012331 328.75472574 -233.97012331 328.75472574 -235.36234665 328.29726791 C-244.67286331 325.23864075 -253.9852673 322.18581655 -263.29994488 319.13988495 C-266.8621118 317.97437602 -270.42345284 316.80635752 -273.98464394 315.63787079 C-275.65785186 315.08959967 -277.33145528 314.54253379 -279.00548363 313.99677277 C-287.44453466 311.24541926 -295.82731583 308.48537795 -304 305 C-304 304.67 -304 304.34 -304 304 C-204.67 303.67 -105.34 303.34 -3 303 C-26.76 279.24 -50.52 255.48 -75 231 C-73.15947345 224.25140264 -71.30619649 217.61226378 -69.12109375 210.984375 C-68.84070251 210.12661469 -68.56031128 209.26885437 -68.27142334 208.38510132 C-67.32938706 205.50587395 -66.38340547 202.62795833 -65.4375 199.75 C-64.75736188 197.67308193 -64.07743774 195.59609377 -63.39770508 193.51904297 C-59.00050723 180.09387659 -54.57572486 166.67782694 -50.14872551 153.26246643 C-49.26575207 150.58632261 -48.38312213 147.91006577 -47.50062561 145.23376465 C-47.20844619 144.34770035 -46.91626677 143.46163605 -46.61523342 142.54872131 C-46.02402506 140.75578965 -45.43283664 138.96285142 -44.84166813 137.16990662 C-43.08298368 131.83699837 -41.32137071 126.5050683 -39.55759621 121.17384148 C-38.44057512 117.79568178 -37.32588993 114.41675436 -36.21173859 111.03764725 C-35.69052303 109.45855313 -35.16832229 107.87978378 -34.64504242 106.30137253 C-32.13288124 98.72234357 -29.69325355 91.15408307 -27.65638733 83.43005371 C-26.60270486 79.52914813 -25.35682025 75.69536381 -24.1015625 71.85546875 C-23.82997314 71.01855499 -23.55838379 70.18164124 -23.27856445 69.31936646 C-22.3971579 66.60771832 -21.51139298 63.8975219 -20.625 61.1875 C-20.3219696 60.25811615 -20.01893921 59.3287323 -19.70672607 58.3711853 C-13.33784403 38.84549536 -6.71760559 19.40810483 0 0 Z " fill="#26337B" transform="translate(370,69)"/>
<path d="M0 0 C99.99 0 199.98 0 303 0 C299.90973985 2.06017343 297.32659424 2.99947541 293.80493164 4.14794922 C293.17882524 4.35354713 292.55271883 4.55914505 291.9076395 4.77097321 C289.82652936 5.4531931 287.74336597 6.12890868 285.66015625 6.8046875 C284.19317022 7.28429603 282.72632501 7.7643355 281.25961304 8.24478149 C278.14598411 9.26382058 275.0314766 10.28010883 271.91622925 11.29418945 C267.05012615 12.87830837 262.18609028 14.46870229 257.32250977 16.06054688 C255.71019177 16.58820178 254.09787184 17.11585073 252.48554993 17.64349365 C251.69366083 17.90265312 250.90177174 18.16181259 250.085886 18.42882538 C247.70109697 19.20904502 245.31611643 19.98867651 242.93107605 20.76812744 C232.08866771 24.31198076 221.25459601 27.87951121 210.4375 31.5 C209.78305908 31.71893921 209.12861816 31.93787842 208.4543457 32.16345215 C205.82067762 33.04465655 203.18708677 33.92609001 200.55377197 34.80834961 C194.38538872 36.8740167 188.21226886 38.92536188 182.0390625 40.9765625 C178.90866665 42.01739173 175.77831581 43.05835624 172.64797974 44.09936523 C170.61206798 44.77611636 168.57599943 45.452396 166.5397644 46.12817383 C163.71484814 47.06583233 160.89056383 48.0053718 158.06640625 48.9453125 C157.22240265 49.22492828 156.37839905 49.50454407 155.50881958 49.79263306 C152.41759804 50.82293461 149.36364686 51.85005808 146.3503418 53.0925293 C143.39176527 54.2348404 140.42225001 54.87609266 137.328125 55.57421875 C129.88299629 57.35072409 122.66701119 59.68551028 115.421875 62.14453125 C113.75916565 62.70864212 113.75916565 62.70864212 112.06286621 63.28414917 C107.44301619 64.8580057 102.82652033 66.44140138 98.21240234 68.03198242 C94.80605504 69.2034913 91.39556371 70.36220987 87.984375 71.51953125 C86.93965027 71.88399857 85.89492554 72.24846588 84.81854248 72.62397766 C83.84942932 72.95149521 82.88031616 73.27901276 81.88183594 73.61645508 C81.03296814 73.90861404 80.18410034 74.20077301 79.30950928 74.50178528 C76.69268393 75.0662952 75.50919505 74.86702899 73 74 C71.36774063 72.73967743 71.36774063 72.73967743 69.74761963 71.1151123 C69.12788773 70.50094955 68.50815582 69.8867868 67.86964417 69.25401306 C67.20142136 68.57657547 66.53319855 67.89913788 65.84472656 67.20117188 C65.13213181 66.49062149 64.41953705 65.78007111 63.68534851 65.04798889 C61.32978444 62.69543521 58.98514282 60.33230836 56.640625 57.96875 C55.01024664 56.33531496 53.37927769 54.70246919 51.7477417 53.07019043 C48.3303306 49.64817494 44.91789308 46.22130352 41.50927734 42.79052734 C37.12866142 38.3815843 32.73937254 33.98140678 28.34680557 29.58437347 C24.98013677 26.21355895 21.61630939 22.83992194 18.25353241 19.46522522 C16.63518342 17.84115938 15.01635208 16.21757405 13.39704132 14.59446716 C11.14127779 12.33186937 8.88894356 10.06591745 6.63769531 7.79882812 C5.96137558 7.12139053 5.28505585 6.44395294 4.58824158 5.74598694 C0 1.1146861 0 1.1146861 0 0 Z " fill="#FDFEFE" transform="translate(372,374)"/>
<path d="M0 0 C2.12527766 3.18791649 3.27015062 6.31496744 4.484375 9.90625 C4.73249939 10.62993774 4.98062378 11.35362549 5.23626709 12.09924316 C6.07919226 14.56448289 6.91483002 17.03212296 7.75 19.5 C8.04302002 20.36093262 8.33604004 21.22186523 8.63793945 22.10888672 C15.81952082 43.21277372 22.73798378 64.40533945 29.65392685 85.59746552 C30.79939812 89.10701537 31.94645503 92.61604599 33.09375 96.125 C33.31309456 96.79652603 33.53243912 97.46805206 33.75843048 98.15992737 C36.23172488 105.72589907 38.7605846 113.26445674 41.46875 120.75 C43.34732398 125.94599008 44.82457553 131.12107893 46.08251953 136.5 C48.14578709 144.370943 50.83444455 152.07102548 53.38137817 159.79605103 C54.45130467 163.04187913 55.51513016 166.28965778 56.57788086 169.5378418 C59.91998644 179.73686254 63.2979156 189.92234149 66.7578125 200.08203125 C67.32501184 201.75453672 67.89215245 203.4270621 68.45922852 205.09960938 C69.50483273 208.18208701 70.56451196 211.25922413 71.63256836 214.33398438 C72.10056486 215.70817431 72.56812234 217.08251387 73.03515625 218.45703125 C73.4412915 219.63241455 73.84742676 220.80779785 74.26586914 222.01879883 C75.02323429 225.09435114 75.04080175 226.1092309 74 229 C72.73967743 230.63225937 72.73967743 230.63225937 71.1151123 232.25238037 C70.50094955 232.87211227 69.8867868 233.49184418 69.25401306 234.13035583 C68.57657547 234.79857864 67.89913788 235.46680145 67.20117188 236.15527344 C66.49062149 236.86786819 65.78007111 237.58046295 65.04798889 238.31465149 C62.69543521 240.67021556 60.33230836 243.01485718 57.96875 245.359375 C56.33531496 246.98975336 54.70246919 248.62072231 53.07019043 250.2522583 C49.64817494 253.6696694 46.22130352 257.08210692 42.79052734 260.49072266 C38.3815843 264.87133858 33.98140678 269.26062746 29.58437347 273.65319443 C26.21355895 277.01986323 22.83992194 280.38369061 19.46522522 283.74646759 C17.84115938 285.36481658 16.21757405 286.98364792 14.59446716 288.60295868 C12.33186937 290.85872221 10.06591745 293.11105644 7.79882812 295.36230469 C6.78267174 296.37678429 6.78267174 296.37678429 5.74598694 297.41175842 C1.1146861 302 1.1146861 302 0 302 C0 202.34 0 102.68 0 0 Z " fill="#FEFEFE" transform="translate(371,70)"/>
<path d="M0 0 C0 99 0 198 0 300 C-2.39948656 296.40077015 -3.61358105 292.65809673 -4.984375 288.59375 C-5.2762973 287.73875916 -5.5682196 286.88376831 -5.86898804 286.00286865 C-6.83420113 283.17021048 -7.79241789 280.3352462 -8.75 277.5 C-9.42558849 275.50877888 -10.10120742 273.5175681 -10.77685547 271.52636719 C-16.80582419 253.71902044 -22.64616976 235.8517445 -28.42419434 217.96165466 C-30.45529113 211.67478308 -32.50154346 205.39298418 -34.5546875 199.11328125 C-35.42525862 196.44735486 -36.29563479 193.78136489 -37.16595459 191.11535645 C-37.70775737 189.45699983 -38.2502399 187.79886508 -38.79351807 186.14099121 C-41.62574886 177.49490297 -44.3694238 168.83320978 -46.953125 160.109375 C-49.72311681 150.77216503 -52.75335524 141.53530074 -55.86691284 132.30770874 C-57.39598363 127.77080135 -58.90946112 123.22868118 -60.42578125 118.6875 C-62.15841525 113.50271505 -63.8924411 108.31842018 -65.63427734 103.13671875 C-66.85878242 99.49102555 -68.07147758 95.84161723 -69.27478027 92.18887329 C-69.71273418 90.8662791 -70.15496328 89.54509206 -70.60168457 88.22543335 C-71.21291259 86.41829787 -71.80805627 84.60574583 -72.40234375 82.79296875 C-72.73741943 81.7877417 -73.07249512 80.78251465 -73.41772461 79.74682617 C-74.10848812 76.48821808 -74.08910828 75.16490955 -73 72 C-70.97826395 69.39414722 -68.64483326 67.12976734 -66.29296875 64.82299805 C-65.59217194 64.12001083 -64.89137512 63.41702362 -64.16934204 62.69273376 C-61.85156795 60.3726489 -59.5198306 58.06716242 -57.1875 55.76171875 C-55.57626756 54.15540869 -53.96584494 52.54828594 -52.35620117 50.94038391 C-48.98271304 47.57453635 -45.60286765 44.21525836 -42.21777344 40.86108398 C-37.86763785 36.55060258 -33.52841494 32.22934651 -29.19322205 27.90384197 C-25.06984794 23.79041544 -20.94151032 19.68198654 -16.8125 15.57421875 C-16.01943451 14.78454901 -15.22636902 13.99487926 -14.40927124 13.18128014 C-12.17791203 10.96143381 -9.94309967 8.74513066 -7.70703125 6.5300293 C-6.70490097 5.53193237 -6.70490097 5.53193237 -5.68252563 4.51367188 C-1.11489944 0 -1.11489944 0 0 0 Z " fill="#FDFEFE" transform="translate(370,376)"/>
<path d="M0 0 C1.616642 1.2447052 1.616642 1.2447052 3.2144165 2.84692383 C4.13139313 3.75554672 4.13139313 3.75554672 5.06689453 4.68252563 C6.05520264 5.68465591 6.05520264 5.68465591 7.06347656 6.70703125 C8.11773834 7.75822647 8.11773834 7.75822647 9.19329834 8.83065796 C11.51639762 11.15074705 13.8285725 13.48140629 16.140625 15.8125 C17.74858309 17.42351481 19.35713181 19.03394031 20.96624756 20.64379883 C24.33658063 24.01873616 27.70193948 27.39852841 31.06347656 30.78222656 C35.38355814 35.13063587 39.7123126 39.47027844 44.04434586 43.80677795 C47.36469158 47.13126941 50.68219576 50.45858321 53.9986496 53.78695679 C55.59466992 55.38869389 57.19117255 56.98995053 58.7881546 58.59072876 C61.01278531 60.8221938 63.23398622 63.05701243 65.45410156 65.29296875 C66.12107056 65.9610556 66.78803955 66.62914246 67.47521973 67.31747437 C72 71.88531379 72 71.88531379 72 73 C-27 73 -126 73 -228 73 C-224.39118865 70.59412577 -220.66026956 69.46578729 -216.56640625 68.1640625 C-215.71528763 67.88918503 -214.86416901 67.61430756 -213.98725891 67.33110046 C-212.14633293 66.73697093 -210.30474766 66.14488125 -208.46258545 65.55459595 C-203.5174335 63.96947258 -198.57747291 62.36829816 -193.63671875 60.76953125 C-192.63727234 60.44657578 -191.63782593 60.1236203 -190.60809326 59.7908783 C-182.01447208 57.01181791 -173.44010886 54.17805874 -164.875 51.3125 C-163.45899211 50.83933231 -162.04297633 50.36618825 -160.62695312 49.89306641 C-157.54357145 48.8624466 -154.46043937 47.83108344 -151.37744141 46.79931641 C-140.10745671 43.02789948 -128.83552148 39.26232934 -117.5625 35.5 C-116.33597717 35.09054138 -115.10945435 34.68108276 -113.84576416 34.25921631 C-96.82387645 28.57887692 -79.78479237 22.95727878 -62.69750977 17.4765625 C-61.99648636 17.25114273 -61.29546295 17.02572296 -60.57319641 16.79347229 C-58.73585093 16.20302995 -56.89774561 15.61495348 -55.05957031 15.02709961 C-53.16030835 14.38951622 -51.27556965 13.70409722 -49.42089844 12.9465332 C-46.86096291 11.94563869 -44.36638301 11.31411494 -41.6875 10.703125 C-36.77706146 9.50861268 -31.98041638 8.07978867 -27.1875 6.484375 C-26.18481079 6.15173645 -26.18481079 6.15173645 -25.16186523 5.81237793 C-22.40110983 4.8930619 -19.64235421 3.96822526 -16.88720703 3.03222656 C-14.8444252 2.34038547 -12.79768719 1.66153458 -10.75 0.984375 C-9.54859375 0.57928711 -8.3471875 0.17419922 -7.109375 -0.24316406 C-3.95722992 -1.01041043 -2.94615697 -1.06483269 0 0 Z " fill="#FDFEFE" transform="translate(296,300)"/>
<path d="M0 0 C3.03571166 1.51785583 3.21198984 4.05092527 4.23429871 7.10932922 C4.51147232 7.96657089 4.78864594 8.82381256 5.07421875 9.70703125 C5.36230911 10.58397141 5.65039948 11.46091156 5.94721985 12.36442566 C6.55532071 14.22355181 7.15947315 16.08397332 7.76000977 17.94555664 C8.68163778 20.79437942 9.6221949 23.63645976 10.56445312 26.47851562 C11.15220515 28.28347571 11.73883105 30.08880298 12.32421875 31.89453125 C12.60746506 32.74570023 12.89071136 33.5968692 13.18254089 34.47383118 C13.43643082 35.27113144 13.69032074 36.0684317 13.9519043 36.88989258 C14.1790361 37.58858963 14.40616791 38.28728668 14.6401825 39.00715637 C15.07156154 41.39634248 14.9281745 42.75624555 14 45 C11.3670811 46.66281582 8.84149243 48.05551352 6.05859375 49.421875 C5.23665024 49.83903778 4.41470673 50.25620056 3.56785583 50.68600464 C0.86424644 52.05403823 -1.84881369 53.4020813 -4.5625 54.75 C-6.43727413 55.69333114 -8.31145639 56.63783946 -10.18505859 57.58349609 C-14.90117735 59.95996593 -19.62511854 62.32041458 -24.35125732 64.67687988 C-28.25145784 66.62513775 -32.14328731 68.58985612 -36.03515625 70.5546875 C-48.73768844 76.95770169 -61.48593701 83.24781919 -74.3527832 89.31591797 C-80.57755692 92.26650751 -86.67752693 95.39494612 -92.66430664 98.8046875 C-94.07923785 99.59345313 -95.53639858 100.30570006 -97 101 C-97.66 100.67 -98.32 100.34 -99 100 C-89.46470858 89.25109163 -79.28710184 79.15475115 -69.11490655 69.01351261 C-66.67610927 66.58104936 -64.24022299 64.14567421 -61.80400085 61.71063232 C-57.2093879 57.1191035 -52.61223648 52.53012531 -48.01412219 47.94210315 C-42.77132837 42.71056214 -37.5314398 37.47611524 -32.29176962 32.24144602 C-21.53103124 21.49110578 -10.76672674 10.74434301 0 0 Z " fill="#29357C" transform="translate(281,462)"/>
<path d="M0 0 C0.99 0.495 0.99 0.495 2 1 C1.14450562 1.84763916 1.14450562 1.84763916 0.27172852 2.71240234 C-2.30060675 5.26400355 -4.86909337 7.81944458 -7.4375 10.375 C-8.33533203 11.26445312 -9.23316406 12.15390625 -10.15820312 13.0703125 C-11.01220703 13.92109375 -11.86621094 14.771875 -12.74609375 15.6484375 C-13.93223267 16.82672119 -13.93223267 16.82672119 -15.14233398 18.02880859 C-17.05371018 19.86744302 -17.05371018 19.86744302 -18 22 C-18.66 22 -19.32 22 -20 22 C-20 22.66 -20 23.32 -20 24 C-20.66 24 -21.32 24 -22 24 C-22 24.66 -22 25.32 -22 26 C-22.66 26 -23.32 26 -24 26 C-24 26.66 -24 27.32 -24 28 C-24.66 28 -25.32 28 -26 28 C-26 28.66 -26 29.32 -26 30 C-26.66 30 -27.32 30 -28 30 C-28 30.66 -28 31.32 -28 32 C-28.66 32 -29.32 32 -30 32 C-30.30719971 32.79419342 -30.30719971 32.79419342 -30.62060547 33.60443115 C-32.58231833 37.01130142 -35.30175284 39.57960011 -38.0703125 42.32910156 C-38.69162048 42.95391418 -39.31292847 43.57872681 -39.95306396 44.22247314 C-42.00537694 46.28357967 -44.0649084 48.3372954 -46.125 50.390625 C-47.55253916 51.81951115 -48.97978129 53.24869409 -50.40673828 54.67816162 C-53.39617111 57.67054221 -56.3891901 60.65927687 -59.38476562 63.64550781 C-63.23198948 67.48131679 -67.07013868 71.326061 -70.90567017 75.17355728 C-73.84962911 78.12472656 -76.79831431 81.07113626 -79.74847412 84.01610565 C-81.16618866 85.43248247 -82.58240924 86.85035623 -83.99713135 88.26972198 C-85.96986399 90.24750847 -87.94884983 92.21881229 -89.9296875 94.18847656 C-90.51780212 94.78063965 -91.10591675 95.37280273 -91.71185303 95.98291016 C-95.77146944 100 -95.77146944 100 -98 100 C-99.67629563 95.02084348 -101.34851133 90.04034169 -103.01708984 85.05859375 C-103.584351 83.36681887 -104.15269236 81.67540575 -104.72216797 79.984375 C-105.54424159 77.54262917 -106.36232012 75.09957467 -107.1796875 72.65625 C-107.43185028 71.91008423 -107.68401306 71.16391846 -107.94381714 70.3951416 C-108.1839151 69.67499878 -108.42401306 68.95485596 -108.67138672 68.21289062 C-108.88012421 67.59111938 -109.08886169 66.96934814 -109.30392456 66.32873535 C-110.32437652 62.91479138 -111.15082868 59.46044307 -112 56 C-49.40014648 24.70007324 -49.40014648 24.70007324 -47.07456779 23.53730106 C-45.56956108 22.78478638 -44.06457233 22.03223578 -42.55960274 21.27964687 C-38.87926598 19.43927767 -35.19860157 17.59956923 -31.51730347 15.76112366 C-30.79574066 15.40065948 -30.07417786 15.04019531 -29.33074951 14.66880798 C-27.98008918 13.99409587 -26.62931903 13.31960352 -25.27841187 12.64538574 C-21.55207824 10.78360586 -17.83782409 8.89992901 -14.1328125 6.99609375 C-13.29105469 6.56619141 -12.44929687 6.13628906 -11.58203125 5.69335938 C-9.88639388 4.82667032 -8.19386074 3.95389041 -6.50390625 3.07617188 C-5.68019531 2.65787109 -4.85648438 2.23957031 -4.0078125 1.80859375 C-3.28223145 1.43532959 -2.55665039 1.06206543 -1.80908203 0.67749023 C-1.21208496 0.45391846 -0.61508789 0.23034668 0 0 Z " fill="#27347C" transform="translate(557,185)"/>
<path d="M0 0 C2.84910265 2.03655517 3.7203207 4.28031993 5.19921875 7.44580078 C5.49428314 8.06670593 5.78934753 8.68761108 6.09335327 9.32733154 C6.73701298 10.68462076 7.37516108 12.04453405 8.00848389 13.40667725 C9.74677497 17.14288737 11.52746331 20.8589364 13.30078125 24.57861328 C13.86401596 25.76455582 13.86401596 25.76455582 14.43862915 26.97445679 C18.5519644 35.61861912 22.8153321 44.18656656 27.1015625 52.74603271 C28.34753787 55.23472887 29.58993987 57.72518398 30.83203125 60.21582031 C35.29725265 69.14893146 39.86805674 78.01893129 44.5380249 86.84672546 C47.65076176 92.73417577 50.68354316 98.65620057 53.63671875 104.62548828 C54.06855469 105.49367188 54.50039063 106.36185547 54.9453125 107.25634766 C55.96941388 109.31592932 56.99160082 111.37643163 58.01171875 113.43798828 C55.01171875 113.43798828 55.01171875 113.43798828 53.11207294 111.91307259 C52.39215262 111.19298452 51.6722323 110.47289646 50.93049622 109.73098755 C50.10178513 108.90929077 49.27307404 108.08759399 48.41925049 107.24099731 C47.51366394 106.32776703 46.60807739 105.41453674 45.67504883 104.47363281 C44.70973061 103.51074164 43.7437673 102.5484968 42.77720642 101.58685303 C40.15066546 98.96973603 37.53365592 96.34327377 34.91848588 93.71480036 C32.1846154 90.9696358 29.44305986 88.23216572 26.70256042 85.49362183 C22.10157568 80.89352063 17.50661667 76.2874673 12.9152832 71.67773438 C7.60077901 66.34205537 2.27749217 61.01526681 -3.05072707 55.69328606 C-8.16895103 50.58074892 -13.28149735 45.46257225 -18.39126015 40.34157944 C-20.56934436 38.15884082 -22.74931324 35.97801012 -24.9307766 33.79864883 C-27.49709612 31.23420751 -30.0583899 28.66485077 -32.61581993 26.0915451 C-34.00801748 24.69305391 -35.40515355 23.29948452 -36.80239868 21.90603638 C-37.6226503 21.07869995 -38.44290192 20.25136353 -39.28800964 19.3989563 C-40.00679889 18.67811419 -40.72558813 17.95727207 -41.46615887 17.21458626 C-42.98828125 15.43798828 -42.98828125 15.43798828 -42.98828125 13.43798828 C-25.3287354 7.49376207 -25.3287354 7.49376207 -19.48828125 5.81298828 C-15.24774206 4.57830789 -11.19599214 2.99431157 -7.1171875 1.30517578 C-2.31004626 -0.65296249 -2.31004626 -0.65296249 0 0 Z " fill="#26337B" transform="translate(501.98828125,448.56201171875)"/>
<path d="M0 0 C4.60115879 3.83429899 8.8733142 7.83064002 13.06640625 12.10546875 C14.81004721 13.81388464 16.5933512 15.35416719 18.5 16.875 C19.325 17.57625 20.15 18.2775 21 19 C21 19.66 21 20.32 21 21 C21.66 21 22.32 21 23 21 C23 21.66 23 22.32 23 23 C23.66 23 24.32 23 25 23 C25 23.66 25 24.32 25 25 C25.66 25 26.32 25 27 25 C28.48562717 26.50618935 28.48562717 26.50618935 30.19667053 28.56655884 C33.58353211 32.54675899 37.13846068 36.26252618 40.85327148 39.93505859 C41.49802933 40.57674988 42.14278717 41.21844116 42.80708313 41.87957764 C44.19130311 43.25670466 45.57665219 44.63269756 46.96304131 46.00764084 C49.15490232 48.18197574 51.34308367 50.35995311 53.5302887 52.53897095 C59.74370768 58.72803816 65.96289777 64.91128319 72.1862793 71.09033203 C76.00457371 74.88193001 79.8180527 78.67831538 83.62855721 82.47774124 C85.0808167 83.92377859 86.53497259 85.36791391 87.99102592 86.81013107 C90.01603366 88.81604104 92.03491577 90.8279264 94.05249023 92.84130859 C94.65864166 93.43869843 95.26479309 94.03608826 95.88931274 94.65158081 C100 98.77210088 100 98.77210088 100 101 C96.19589526 102.22811197 92.39135167 103.45485434 88.58642578 104.68041992 C86.66806987 105.2986205 84.75004664 105.91785312 82.83203125 106.53710938 C63.42962822 112.78447998 63.42962822 112.78447998 57 114 C56.48783936 112.96782349 56.48783936 112.96782349 55.96533203 111.91479492 C54.35419932 108.67120965 52.73959601 105.42936262 51.125 102.1875 C50.320625 100.56618164 50.320625 100.56618164 49.5 98.91210938 C46.66535035 93.22632954 43.78575681 87.57218341 40.80317688 81.96247864 C33.35367538 67.94556108 26.29106771 53.73431175 19.20141602 39.53320312 C17.29440015 35.71338944 15.38370406 31.89542967 13.4720068 28.07795715 C11.98904488 25.11563731 10.50797979 22.15237238 9.02749825 19.18881226 C8.32277653 17.77870349 7.61746427 16.36888968 6.91154289 14.9593811 C5.93380228 13.00643286 4.95862504 11.05222598 3.98413086 9.09765625 C3.15334267 7.43488647 3.15334267 7.43488647 2.30577087 5.73852539 C1 3 1 3 0 0 Z " fill="#26337B" transform="translate(182,185)"/>
<path d="M0 0 C4.03216423 1.26329291 7.72609953 2.7526567 11.484375 4.6796875 C13.01191406 5.45505859 13.01191406 5.45505859 14.5703125 6.24609375 C16.67455707 7.3240667 18.7787249 8.40218945 20.8828125 9.48046875 C25.43423882 11.79057556 29.93001562 14.03803304 34.70703125 15.84375 C42.39921777 18.81884113 49.63038457 22.82435382 56.9375 26.625 C58.5145512 27.44093777 60.09178212 28.25652828 61.66918945 29.07177734 C70.41888184 33.5986111 79.1499564 38.16030812 87.85449219 42.7734375 C95.17243917 46.64340665 102.57775292 50.33494558 110 54 C109.38179526 59.53181129 108.0321759 64.50446856 106.27734375 69.77734375 C105.87993736 70.99436729 105.87993736 70.99436729 105.47450256 72.23597717 C104.63425573 74.80496624 103.78601811 77.37123249 102.9375 79.9375 C102.36340063 81.68797676 101.78982749 83.43862621 101.21679688 85.18945312 C99.81727695 89.46165689 98.41058868 93.73143876 97 98 C92.26742566 94.045183 87.78051512 89.92928129 83.42211914 85.56738281 C82.80662201 84.95524429 82.19112488 84.34310577 81.55697632 83.7124176 C79.54708036 81.71193208 77.54089232 79.70778072 75.53515625 77.703125 C74.13275822 76.30394307 72.73028615 74.90483533 71.32774353 73.50579834 C68.4018597 70.58587843 65.47802597 67.66392316 62.55541992 64.74072266 C58.80205879 60.98725927 55.0418288 57.240758 51.27985477 53.49592972 C48.38809553 50.61525184 45.50085499 47.73007824 42.61489677 44.84358978 C41.22935552 43.45923154 39.84218567 42.07650134 38.45338631 40.69541168 C36.52154451 38.77330504 34.59606754 36.84504205 32.67211914 34.91503906 C32.09401993 34.34255936 31.51592072 33.77007965 30.92030334 33.18025208 C27 29.22832481 27 29.22832481 27 27 C25.68 26.34 24.36 25.68 23 25 C23 24.34 23 23.68 23 23 C22.34 23 21.68 23 21 23 C21 22.34 21 21.68 21 21 C20.34 21 19.68 21 19 21 C19 20.34 19 19.68 19 19 C18.34 19 17.68 19 17 19 C17 18.34 17 17.68 17 17 C15.68 16.34 14.36 15.68 13 15 C13 14.34 13 13.68 13 13 C12.43796875 12.7628125 11.8759375 12.525625 11.296875 12.28125 C8.48105958 10.71052303 6.52044584 8.78528536 4.25 6.5 C3.45078125 5.7059375 2.6515625 4.911875 1.828125 4.09375 C0 2 0 2 0 0 Z " fill="#FAFBFD" transform="translate(186,187)"/>
<path d="M0 0 C3.30027875 1.44197958 5.47555514 3.22819177 8.01165771 5.77114868 C8.7996727 6.55641434 9.58768768 7.34167999 10.39958191 8.15074158 C11.25481949 9.01316971 12.11005707 9.87559784 12.99121094 10.76416016 C14.35271019 12.12522133 14.35271019 12.12522133 15.74171448 13.51377869 C18.22730138 15.99879203 20.70667578 18.48992124 23.18498135 20.98219347 C25.77723116 23.58695014 28.37515004 26.18603998 30.97247314 28.78573608 C35.88855432 33.70803215 40.79951523 38.63540403 45.7086575 43.56461942 C51.2984054 49.17672601 56.89383688 54.78315115 62.48975325 60.38910604 C73.99950528 71.91976028 85.50209796 83.45752914 97 95 C96.67 95.66 96.34 96.32 96 97 C95.33581055 96.66266846 94.67162109 96.32533691 93.98730469 95.9777832 C90.91042336 94.41826435 87.83024424 92.86536545 84.75 91.3125 C83.70585938 90.78205078 82.66171875 90.25160156 81.5859375 89.70507812 C75.47096896 86.62872049 69.34697794 83.82216786 62.95800781 81.36010742 C60.61845597 80.28436928 58.70158056 79.20245133 56.56518555 77.80810547 C51.06618123 74.29302567 45.1889705 71.52424455 39.33218575 68.66734123 C37.21566958 67.63366959 35.10272954 66.59300682 32.9907074 65.55018616 C26.99233751 62.58895225 20.9911546 59.63364364 14.97973633 56.69897461 C11.28816604 54.89619261 7.60351037 53.07992395 3.9230175 51.25464058 C2.52247978 50.56335277 1.1193843 49.87722217 -0.28625298 49.19636345 C-2.24355831 48.24772054 -4.1916022 47.28218199 -6.13842773 46.31225586 C-7.24903061 45.76774277 -8.35963348 45.22322968 -9.50389099 44.66221619 C-12 43 -12 43 -12.93383789 41.04512024 C-13.00842455 38.73959079 -12.664283 37.14856348 -11.92016602 34.96582031 C-11.65982071 34.18531311 -11.3994754 33.40480591 -11.13124084 32.60064697 C-10.84172043 31.76821472 -10.55220001 30.93578247 -10.25390625 30.078125 C-9.96394272 29.21813904 -9.67397919 28.35815308 -9.37522888 27.47210693 C-8.44745999 24.72796181 -7.50520249 21.98904645 -6.5625 19.25 C-5.93067963 17.38964902 -5.29980858 15.52897533 -4.66992188 13.66796875 C-3.12426922 9.10816246 -1.56560477 4.55299235 0 0 Z " fill="#FAFBFC" transform="translate(458,464)"/>
<path d="M0 0 C-1.53577738 5.1110689 -3.7121873 9.68963665 -6.11083984 14.43286133 C-6.52411026 15.25808792 -6.93738068 16.08331451 -7.36317444 16.93354797 C-8.72542125 19.65156981 -10.09322874 22.36675438 -11.4609375 25.08203125 C-12.41297562 26.97983156 -13.36459896 28.87783999 -14.31582642 30.77604675 C-16.81960475 35.77031445 -19.32782452 40.76233688 -21.83734131 45.75372314 C-25.84752133 53.73094585 -29.85237456 61.71083812 -33.85454178 69.69208336 C-35.24845801 72.46975436 -36.64512554 75.24602893 -38.04208374 78.02217102 C-38.90494126 79.74105132 -39.76770839 81.459977 -40.63037109 83.17895508 C-41.01492966 83.94133484 -41.39948822 84.7037146 -41.79570007 85.48919678 C-44.03678796 89.96205158 -46.13670877 94.47599921 -48.13366127 99.06327343 C-49.21188955 101.47368554 -50.4402948 103.77051591 -51.75 106.0625 C-52.17796875 106.81660156 -52.6059375 107.57070313 -53.046875 108.34765625 C-53.51867187 109.16556641 -53.51867187 109.16556641 -54 110 C-59.4760843 109.3908448 -64.35506364 108.05951506 -69.55859375 106.27734375 C-70.34774673 106.01240616 -71.13689972 105.74746857 -71.94996643 105.47450256 C-74.44776148 104.63449458 -76.94262845 103.78614657 -79.4375 102.9375 C-81.13978678 102.36337702 -82.84225905 101.78980368 -84.54492188 101.21679688 C-88.69878677 99.81754566 -92.85004818 98.4108123 -97 97 C-93.12945067 92.36869156 -89.11448392 87.97564725 -84.8269043 83.72924805 C-83.95017815 82.8547123 -83.95017815 82.8547123 -83.05574036 81.96250916 C-81.79975785 80.71030221 -80.54262258 79.4592506 -79.28442955 78.20926476 C-77.29437388 76.2320667 -75.30754164 74.25167895 -73.32148743 72.27046204 C-69.11296966 68.07331469 -64.90051312 63.88013434 -60.6875 59.6875 C-55.78658027 54.81017909 -50.88728721 49.93124691 -45.99216652 45.04810524 C-44.03258741 43.09501827 -42.07002786 41.14495987 -40.10734558 39.19499207 C-38.91345807 38.0047349 -37.71970951 36.81433834 -36.52612305 35.6237793 C-35.7040889 34.80949463 -35.7040889 34.80949463 -34.865448 33.97875977 C-32.08589869 31.25213364 -32.08589869 31.25213364 -30 28 C-29.34 28 -28.68 28 -28 28 C-28 27.34 -28 26.68 -28 26 C-27.34 26 -26.68 26 -26 26 C-26 25.34 -26 24.68 -26 24 C-25.34 24 -24.68 24 -24 24 C-24 23.34 -24 22.68 -24 22 C-23.34 22 -22.68 22 -22 22 C-22 21.34 -22 20.68 -22 20 C-21.34 20 -20.68 20 -20 20 C-20 19.34 -20 18.68 -20 18 C-19.34 18 -18.68 18 -18 18 C-17.73574219 17.4112207 -17.47148438 16.82244141 -17.19921875 16.21582031 C-15.95631056 13.91927416 -14.64993519 12.39166834 -12.8125 10.546875 C-12.19632813 9.928125 -11.58015625 9.309375 -10.9453125 8.671875 C-9.98238281 7.72054687 -9.98238281 7.72054687 -9 6.75 C-8.35804688 6.1003125 -7.71609375 5.450625 -7.0546875 4.78125 C-6.43851563 4.16765625 -5.82234375 3.5540625 -5.1875 2.921875 C-4.62417969 2.36081055 -4.06085938 1.79974609 -3.48046875 1.22167969 C-2 0 -2 0 0 0 Z " fill="#FCFDFE" transform="translate(557,189)"/>
<path d="M0 0 C5.89667127 1.21719515 11.60072335 2.71379509 17.31640625 4.6015625 C18.05833725 4.8428891 18.80026825 5.0842157 19.56468201 5.33285522 C21.89858894 6.09298406 24.23055512 6.8588758 26.5625 7.625 C28.15937958 8.14621838 29.75638381 8.66705504 31.35351562 9.1875 C35.23712935 10.45393325 39.11901564 11.72553297 43 13 C41.55258883 16.31851886 39.74697666 18.50034862 37.19088745 21.04962158 C36.39720764 21.84605072 35.60352783 22.64247986 34.78579712 23.46304321 C33.91401825 24.32763153 33.04223938 25.19221985 32.14404297 26.08300781 C31.22691528 27.00042755 30.3097876 27.91784729 29.36486816 28.86306763 C26.8529964 31.37551297 24.33500797 33.88174606 21.81587744 36.38691044 C19.1830938 39.00718777 16.55597647 41.63313362 13.92825317 44.25848389 C8.95283319 49.22768882 3.97233713 54.19177369 -1.01000202 59.1540401 C-6.68256673 64.80424663 -12.34945043 70.46013628 -18.01586366 76.11651087 C-29.67093207 87.7506767 -41.33311532 99.37768345 -53 111 C-53.33 110.34 -53.66 109.68 -54 109 C-53.1706543 106.87133789 -53.1706543 106.87133789 -51.82421875 104.22265625 C-51.07495117 102.73668945 -51.07495117 102.73668945 -50.31054688 101.22070312 C-49.77494141 100.17849609 -49.23933594 99.13628906 -48.6875 98.0625 C-48.19443359 97.08603516 -47.70136719 96.10957031 -47.19335938 95.10351562 C-44.79514922 90.37630339 -42.36058799 85.67039106 -39.87524414 80.98852539 C-32.71894276 67.50326265 -25.84630158 53.88021752 -19.02026367 40.22583008 C-17.37486763 36.93493503 -15.72391165 33.64686182 -14.07166386 30.35940266 C-12.78117203 27.78957001 -11.49434656 25.21791439 -10.2085247 22.64574242 C-9.30976316 20.84994774 -8.4073809 19.0559666 -7.50489807 17.26203918 C-4.67620364 11.58877206 -2.07354268 5.99292698 0 0 Z " fill="#FDFEFE" transform="translate(238,448)"/>
<path d="M0 0 C2.10900699 3.16351048 3.0584157 5.88040844 4.1875 9.5 C4.55230469 10.6446875 4.91710937 11.789375 5.29296875 12.96875 C6 16 6 16 5 19 C0.88111506 13.98010898 0.48788719 10.40141012 1 4 C0.34 4 -0.32 4 -1 4 C-0.67 2.68 -0.34 1.36 0 0 Z " fill="#14A3DE" transform="translate(304,477)"/>
<path d="M0 0 C0.66 0.99 1.32 1.98 2 3 C0.35 5.31 -1.3 7.62 -3 10 C-3.33 9.34 -3.66 8.68 -4 8 C-3.22265625 6.0546875 -3.22265625 6.0546875 -2.0625 3.875 C-1.49208984 2.78832031 -1.49208984 2.78832031 -0.91015625 1.6796875 C-0.60980469 1.12539063 -0.30945313 0.57109375 0 0 Z " fill="#49B8E5" transform="translate(522,259)"/>
</svg>
