<?xml version="1.0" encoding="UTF-8"?>
<svg version="1.1" xmlns="http://www.w3.org/2000/svg" width="315" height="193">
<path d="M0 0 C1.79414787 1.77480396 2.8437269 3.70115436 4.13110352 5.8737793 C5.09206715 7.48124362 6.05567655 9.08763325 7.0599823 10.66838074 C15.69434971 24.28793099 20.10853832 38.78754877 24.49524689 54.20412064 C25.45386116 57.5558797 26.43693449 60.90045475 27.41748047 64.24584961 C28.94734845 69.47566601 30.46333225 74.70923959 31.96826172 79.94628906 C33.67261902 85.87579046 35.40562823 91.79611451 37.16015625 97.7109375 C37.98290984 100.49445635 38.80432667 103.27836718 39.625 106.0625 C39.984729 107.28283936 40.34445801 108.50317871 40.71508789 109.76049805 C41.02824951 110.84113525 41.34141113 111.92177246 41.6640625 113.03515625 C41.92654785 113.9362915 42.1890332 114.83742676 42.45947266 115.76586914 C43 118 43 118 43 121 C46.3 121 49.6 121 53 121 C55.13630377 126.78109959 56.32473642 132.72829592 57.6015625 138.7421875 C57.92290161 140.23697632 57.92290161 140.23697632 58.25073242 141.76196289 C59.04585966 145.46551516 59.83508304 149.17033296 60.625 152.875 C62.39875 161.16625 64.1725 169.4575 66 178 C66.33 159.52 66.66 141.04 67 122 C74.41788824 121.91591814 81.83403238 121.83580653 89.25198364 121.79299927 C92.70693529 121.77195065 96.16148896 121.743864 99.61621094 121.69824219 C103.58784035 121.64612756 107.55931207 121.62699211 111.53125 121.609375 C113.37233337 121.57840729 113.37233337 121.57840729 115.25061035 121.54681396 C123.23751887 121.54473483 128.71618847 122.38947908 134.98828125 127.67578125 C139.49292402 133.24346657 142.63697216 138.50943676 142.27734375 145.9609375 C141.26761535 153.38457446 137.91895211 158.44325072 132 163 C129.68038116 164.27016022 127.51128586 165.12873756 125 166 C131.61469493 173.3823262 138.30146984 180.69251255 145 188 C145.33 166.22 145.66 144.44 146 122 C152.93 122 159.86 122 167 122 C167 145.1 167 168.2 167 192 C159.100625 192.226875 151.20125 192.45375 143.0625 192.6875 C140.5862915 192.78764404 138.11008301 192.88778809 135.55883789 192.9909668 C118.99304101 193.38584537 118.99304101 193.38584537 114.65820312 189.77050781 C112.3700747 186.96111936 110.69306505 184.19556284 109 181 C107.8834097 179.61839274 106.72724052 178.26725706 105.5234375 176.9609375 C104.9975 176.36023438 104.4715625 175.75953125 103.9296875 175.140625 C102.8859423 173.95526613 101.84166397 172.77037649 100.796875 171.5859375 C96.64966748 166.84627176 92.8870279 161.99760729 89 157 C88.67 168.55 88.34 180.1 88 192 C74.47 192 60.94 192 47 192 C42.92262837 175.83613389 38.8727208 159.67033879 35.03491211 143.44793701 C34.67878004 141.9429905 34.32152374 140.43830957 33.96313477 138.93389893 C33.46142331 136.82524893 32.96432947 134.71556719 32.46875 132.60546875 C32.18451172 131.40043701 31.90027344 130.19540527 31.60742188 128.95385742 C31 126 31 126 31 123 C27.7 123 24.4 123 21 123 C20.74357224 121.87326874 20.48714447 120.74653748 20.22294617 119.58566284 C17.80377903 108.96062141 15.37648733 98.33746463 12.94125652 87.71609306 C11.6895821 82.2556613 10.44076587 76.79460874 9.19848633 71.33203125 C7.99921775 66.05906975 6.79243548 60.78787947 5.58045387 55.51782608 C5.11968532 53.50824193 4.66161431 51.49803729 4.20630455 49.48720932 C3.56746586 46.66799874 2.91901786 43.85115921 2.26831055 41.03466797 C1.98994102 39.79064964 1.98994102 39.79064964 1.70594788 38.52149963 C0.64163424 33.96611277 -0.79226967 30.16168316 -3 26 C-3 25.34 -3 24.68 -3 24 C-3.66 24 -4.32 24 -5 24 C-7.07973247 29.92690839 -8.78261183 35.83438948 -10.16064453 41.96044922 C-10.35454773 42.80550522 -10.54845093 43.65056122 -10.74822998 44.52122498 C-11.38055589 47.28145317 -12.00667069 50.04305058 -12.6328125 52.8046875 C-13.0741028 54.73529761 -13.51583141 56.66580758 -13.95797729 58.59622192 C-15.11546108 63.65428355 -16.26787618 68.71348548 -17.41894531 73.77301025 C-19.26690152 81.89184482 -21.12246757 90.00894287 -22.97829819 98.12598038 C-23.62525685 100.95910029 -24.26996645 103.79272482 -24.91433716 106.62643433 C-25.30889157 108.35627317 -25.70349153 110.08610162 -26.09814453 111.81591797 C-26.27685089 112.60450699 -26.45555725 113.39309601 -26.63967896 114.20558167 C-27.32160919 117.18846565 -28.03168087 120.0950426 -29 123 C-32.63 123.33 -36.26 123.66 -40 124 C-40.21075668 124.80766312 -40.42151337 125.61532623 -40.63865662 126.44746399 C-42.62401694 134.05504161 -44.61034459 141.66236585 -46.59776211 149.26940632 C-47.61950239 153.18035988 -48.64086699 157.09141075 -49.66137695 161.00268555 C-50.646045 164.77653388 -51.63169473 168.55012455 -52.61802864 172.32353783 C-52.99435539 173.76395706 -53.37032698 175.20446913 -53.74593925 176.64507484 C-54.27166508 178.66117171 -54.79864716 180.67693624 -55.32592773 182.69262695 C-55.6257103 183.84068314 -55.92549286 184.98873932 -56.23435974 186.17158508 C-56.76478083 188.13105744 -57.35805931 190.07417794 -58 192 C-99.10406677 195.45146722 -99.10406677 195.45146722 -107.63623047 190.10009766 C-112.67941329 185.62957405 -115.91168018 180.26448702 -118.46655273 174.06298828 C-120.79491997 169.41218501 -124.01737471 165.26089326 -127 161 C-127.33 171.23 -127.66 181.46 -128 192 C-134.6 192 -141.2 192 -148 192 C-148 168.57 -148 145.14 -148 121 C-141.4 121 -134.8 121 -128 121 C-127.505 136.345 -127.505 136.345 -127 152 C-125.453125 150.02 -123.90625 148.04 -122.3125 146 C-121.27867613 144.72653791 -120.2448258 143.45309729 -119.2109375 142.1796875 C-116.99399539 139.39423057 -115.09762418 136.5724302 -113.2890625 133.5078125 C-110.42383352 128.95072447 -107.74977879 124.74117578 -103 122 C-94.48187376 120.09848967 -85.59739845 120.99884734 -77 122 C-80.61927325 126.91282396 -84.33204231 131.68812324 -88.3125 136.3125 C-89.26482344 137.43186603 -90.21663754 138.55166557 -91.16796875 139.671875 C-92.56492516 141.31400371 -93.96226556 142.95578481 -95.36181641 144.59570312 C-96.62315935 146.07875369 -97.87431286 147.57045218 -99.125 149.0625 C-99.84945312 149.91972656 -100.57390625 150.77695313 -101.3203125 151.66015625 C-102.97776881 153.96903143 -103.64281066 155.22292738 -104 158 C-102.3563387 160.42737364 -100.71596228 162.54146619 -98.8125 164.75 C-97.70729032 166.07747815 -96.60450554 167.40697818 -95.50390625 168.73828125 C-94.64176514 169.775896 -94.64176514 169.775896 -93.76220703 170.83447266 C-90.81665387 174.45418124 -88.03300803 178.19226316 -85.25 181.9375 C-84.7969046 182.54687408 -84.3438092 183.15624817 -83.87698364 183.78408813 C-82.58439483 185.52253168 -81.29209859 187.26119209 -80 189 C-75.52685009 173.44768241 -71.7146198 157.75281935 -67.92773438 142.02172852 C-67.13702176 138.74163934 -66.34212532 135.46258517 -65.546875 132.18359375 C-65.30523621 131.17340683 -65.06359741 130.16321991 -64.81463623 129.12242126 C-64.5906012 128.1995784 -64.36656616 127.27673553 -64.13574219 126.32592773 C-63.93986511 125.5119603 -63.74398804 124.69799286 -63.54217529 123.85935974 C-63 122 -63 122 -62 121 C-60.14712498 120.92773498 -58.29166122 120.9161878 -56.4375 120.9375 C-55.42558594 120.94652344 -54.41367188 120.95554687 -53.37109375 120.96484375 C-52.58863281 120.97644531 -51.80617188 120.98804687 -51 121 C-50.81975281 119.5232782 -50.81975281 119.5232782 -50.63586426 118.01672363 C-50.03285349 113.81911019 -48.97032217 109.81078834 -47.82617188 105.73242188 C-47.60639679 104.93619415 -47.3866217 104.13996643 -47.16018677 103.3196106 C-46.43526537 100.70107361 -45.70298136 98.08469099 -44.96875 95.46875 C-44.71611893 94.56715652 -44.46348785 93.66556305 -44.20320129 92.73664856 C-42.8630112 87.95850542 -41.51630718 83.18224782 -40.16503906 78.40722656 C-39.0569189 74.48674702 -37.96164345 70.56303696 -36.87792969 66.63574219 C-35.56084653 61.86273776 -34.22173351 57.09641995 -32.86732483 52.33387756 C-32.35924613 50.53418037 -31.85846781 48.73240307 -31.3657074 46.92845154 C-28.1116762 35.04773589 -23.86417805 25.23525341 -17 15 C-15.99923213 13.43100588 -14.9999397 11.8610664 -14.00390625 10.2890625 C-13.19359997 9.06538625 -12.38000699 7.84387742 -11.5625 6.625 C-10.93311523 5.6659375 -10.93311523 5.6659375 -10.29101562 4.6875 C-7.07102709 -0.13991503 -5.76914408 -1.76353252 0 0 Z M88 138 C88 142.95 88 147.9 88 153 C92.54202541 153.08100045 97.08260304 153.14050969 101.625 153.1875 C102.91019531 153.21263672 104.19539063 153.23777344 105.51953125 153.26367188 C106.76347656 153.27333984 108.00742187 153.28300781 109.2890625 153.29296875 C110.43068848 153.3086792 111.57231445 153.32438965 112.74853516 153.34057617 C116.47867126 152.94986136 118.84792299 152.01729445 122 150 C123.3309316 146.60030189 123.3309316 146.60030189 123 143 C120.82946501 140.05427395 119.47817177 139.15939059 116 138 C113.86205475 137.9166196 111.72157991 137.89266253 109.58203125 137.90234375 C108.32841797 137.90556641 107.07480469 137.90878906 105.78320312 137.91210938 C103.81770508 137.92467773 103.81770508 137.92467773 101.8125 137.9375 C100.47721519 137.94251683 99.14192859 137.94707941 97.80664062 137.95117188 C94.5377412 137.96297296 91.26886498 137.98090864 88 138 Z " fill="#2757A7" transform="translate(148,1)"/>
<path d="M0 0 C6.6 0 13.2 0 20 0 C20 17.82 20 35.64 20 54 C13.4 54 6.8 54 0 54 C0 36.18 0 18.36 0 0 Z " fill="#2757A7" transform="translate(133,139)"/>
</svg>
