<?xml version="1.0" encoding="UTF-8" standalone="no"?>
<!-- Created with Inkscape (http://www.inkscape.org/) -->

<svg
   version="1.1"
   id="svg2"
   width="748.10669"
   height="776"
   viewBox="0 0 748.10669 776"
   sodipodi:docname="snu_logo.eps"
   xmlns:inkscape="http://www.inkscape.org/namespaces/inkscape"
   xmlns:sodipodi="http://sodipodi.sourceforge.net/DTD/sodipodi-0.dtd"
   xmlns="http://www.w3.org/2000/svg"
   xmlns:svg="http://www.w3.org/2000/svg">
  <defs
     id="defs6" />
  <sodipodi:namedview
     id="namedview4"
     pagecolor="#ffffff"
     bordercolor="#000000"
     borderopacity="0.25"
     inkscape:showpageshadow="2"
     inkscape:pageopacity="0.0"
     inkscape:pagecheckerboard="0"
     inkscape:deskcolor="#d1d1d1" />
  <g
     id="g8"
     inkscape:groupmode="layer"
     inkscape:label="ink_ext_XXXXXX"
     transform="matrix(1.3333333,0,0,-1.3333333,0,776)">
    <g
       id="g10"
       transform="scale(0.1)">
      <path
         d="M 1309.9,2861.66 H 1126.67 V 2629.8 H 1309.9 Z M 508.898,1107.8 C 773.203,758.66 1238.01,838.379 1238.01,838.379 c 56.48,494.271 -143.5,654.531 -143.5,654.531 -124.307,-262.41 63.51,-579.14 63.51,-579.14 -282.403,260.79 -649.122,194.03 -649.122,194.03 m 482.383,2712.68 -88.91,82.97 c -214.832,-54.58 -371.039,-245.11 -371.039,-245.11 100.797,241.33 46.211,467.24 1.078,587.24 l -64.586,52.97 c -186.469,-353.48 19.992,-741.28 19.992,-741.28 286.731,68.92 432.118,182.14 503.465,263.21 M 1591.22,595.172 c -9.47,153.476 -37.3,265.367 -71.89,354.816 l -176.74,-0.277 C 1390.42,781.891 1499.06,655.422 1499.06,655.422 1175.32,863.52 825.891,734.07 825.891,734.07 1146.94,435.992 1591.22,595.172 1591.22,595.172 M 1547.71,3215.41 V 1202.13 h 997.45 c 112.7,-2.99 228.9,-91.35 228.9,-91.35 v 1610.64 c -604.26,12.97 -725.86,493.99 -725.86,493.99 z m 472.11,-1223.92 h -74.85 v -389.68 h -94.6 v 389.68 h -74.04 v 88.91 h 243.49 z m 470.49,-397.25 c -26.76,0 -59.73,8.11 -81.34,24.05 v 90.25 c 22.43,-15.39 43.77,-25.67 71.88,-25.67 30.27,0 54.59,20.54 54.59,52.16 0,36.77 -29.46,50.82 -55.94,70 -54.59,36.76 -88.1,72.15 -88.1,141.87 0,75.66 43.78,141.06 124.85,141.06 30.54,0 57.84,-8.36 83.77,-23.51 v -92.15 c -19.18,16.49 -42.42,30.54 -68.37,30.54 -29.45,0 -47.83,-17.83 -47.83,-47.01 0,-78.65 144.04,-83.25 144.04,-212.7 0,-84.84 -48.64,-148.89 -137.55,-148.89 m 70.26,1068.54 h 94.59 v -478.61 h -94.59 z m -297.54,0 h 95.4 c 60.26,0 167.82,-6.22 167.82,-137.02 0,-52.69 -20.81,-97.55 -67.56,-123.49 l 82.96,-217.82 h -99.71 l -82.97,220.77 h -1.35 v -220.77 h -94.59 z m 99.72,-1060.97 h -100.8 l -17.83,80.53 h -95.93 l -17.31,-80.53 h -93.77 l 111.08,478.59 h 99.45 z m -118.9,1060.97 v -88.65 h -95.94 v -104.04 h 84.32 v -88.91 h -84.32 v -108.09 h 97.03 v -88.64 H 2053.6 v 477.79 l -132.68,-477.79 h -77.3 l -138.36,478.33 h 101.35 l 57.28,-229.71 c 8.37,-27.03 11.34,-54.59 17.03,-81.62 h 1.34 c 5.14,27.84 7.03,54.87 14.6,82.97 l 57.83,228.36 z m 1619.28,1592.8 -298.89,-325.1 2.98,-519.68 c 0,0 -9.19,-85.66 -27.56,-128.09 h 192.13 l 549.14,549.13 z M 1315.84,1766.39 h -183.22 v -231.6 h 183.22 z m 298.89,2248.4 384.55,-378.33 v 292.66 l -384.55,384.55 z M 1311.51,774.051 c 24.06,0 43.52,19.469 43.52,43.531 0,23.77 -19.46,43.5 -43.52,43.5 -23.78,0 -43.24,-19.73 -43.24,-43.5 0,-24.062 19.46,-43.531 43.24,-43.531 M 615.375,3871.56 c 0,-23.77 19.465,-43.23 43.516,-43.23 24.043,0 43.238,19.46 43.238,43.23 0,24.05 -19.195,43.51 -43.238,43.51 -24.051,0 -43.516,-19.46 -43.516,-43.51 M 1314.22,1091.05 c 1.62,-19.72 5.4,4.32 5.4,4.32 v 282.95 l -46.75,-51.88 c 26.48,-71.35 35.68,-173.77 41.35,-235.39 m 685.06,2400.56 v 59.45 l -283.74,283.75 h -664.81 l 375.37,-343.2 z M 556.742,4299.09 c 0,0 -24.867,154.84 136.735,386.98 H 147.586 c 0,0 23.25,-63.51 409.156,-386.98 M 83.543,3447.29 c -97.5586,-426.99 262.398,-732.08 262.398,-732.08 414.551,274.56 408.614,530.74 408.614,530.74 -280.512,-73.23 -402.657,-421.03 -402.657,-421.03 18.368,384.55 -268.355,622.37 -268.355,622.37 m 321.582,-197.83 c 84.586,375.38 -156.191,659.39 -156.191,659.39 -170.5317,-403.46 131.058,-766.4 131.058,-766.4 456.176,198.36 494.813,451.57 494.813,451.57 -289.153,-23.23 -469.68,-344.56 -469.68,-344.56 m 38.383,-178.9 c 0,23.79 -19.461,43.52 -43.516,43.52 -24.051,0 -43.508,-19.73 -43.508,-43.52 0,-24.05 19.457,-43.5 43.508,-43.5 24.055,0 43.516,19.45 43.516,43.5 M 2667.59,869.461 h 286.18 c 0,0 18.92,124.309 99.72,124.309 H 4242.02 V 3084.89 L 4123.91,3209.2 V 1136.99 h -1064.2 c 0,0 -143.23,-12.42 -255.39,-149.17 0,0 -87.01,130.53 -273.47,142.96 H 1491.5 V 3190.55 L 1363.95,3063 V 993.77 h 1160.41 c 0,0 143.23,-5.95 143.23,-124.309 M 805.086,4712.01 C 507.016,4391.24 666.18,3946.96 666.18,3946.96 c 496.7,30.27 619.39,255.1 619.39,255.1 -279.7,77.03 -559.121,-162.95 -559.121,-162.95 208.09,323.75 78.637,672.9 78.637,672.9 m 1400.924,-2827.25 -10.8,72.43 h -1.35 l -10.27,-72.43 -20.28,-127.3 h 66.76 z M 4951.94,984.852 c 72.42,44.858 141.05,105.928 198.36,189.708 0,0 -157.29,20.54 -341.32,-41.63 z m 302.39,1897.628 c 0,0 -129.98,344.82 -412.38,411.58 0,0 -0.28,-256.46 421.02,-521.3 0,0 352.67,313.48 245.12,738.3 0,0 -281.06,-244.84 -253.76,-628.58 M 4725.47,1853.4 c 0,0 -164.84,-196.46 -12.43,-669.92 0,0 471.57,13.51 662.09,407.78 0,0 -372.39,-6.75 -598.31,-318.34 0,0 121.88,347.81 -51.35,580.48 m 517.5,601.55 c 0,0 -68.36,362.39 -334.82,476.72 0,0 -44.59,-252.41 324.29,-586.16 0,0 401.85,247.27 369.43,684.26 0,0 -319.17,-192.15 -358.9,-574.82 m -332.38,108.64 c 0,0 -87.56,-241.04 217.54,-633.97 0,0 438.6,173.75 482.65,609.92 0,0 -347.81,-133.76 -452.92,-503.72 0,0 -4.88,368.6 -247.27,527.77 m 279.15,-323.76 c 24.05,0 43.53,19.74 43.53,43.79 0,23.78 -19.48,43.25 -43.53,43.25 -24.04,0 -43.51,-19.47 -43.51,-43.25 0,-24.05 19.47,-43.79 43.51,-43.79 m -254.3,-743.69 c 0,24.05 -19.19,43.51 -43.24,43.51 -24.04,0 -43.5,-19.46 -43.5,-43.51 0,-24.05 19.46,-43.5 43.5,-43.5 24.05,0 43.24,19.45 43.24,43.5 M 1260.98,4085.86 h 0.28 c -17.31,-13.78 -138.1,-124.04 -322.139,-146.46 l 62.699,-58.92 658.85,2.97 -204.57,204.3 h -0.28 l -103.23,103.77 c 0,0 -73.5,-93.5 -91.61,-105.66 M 3808,1954.2 h -1.35 l -10,-72.42 -20.27,-127.55 h 66.48 l -24.31,127.55 z m -1373.63,571.02 c 0,34.33 -16.49,62.15 -64.05,59.73 h -12.7 v -127.56 l 16.76,-0.82 c 42.96,0 59.99,29.2 59.99,68.65 m 406.71,208.35 V 1110.78 c 0,0 91.62,91.35 219.7,91.35 h 1006.66 v 2013.28 h -542.91 c 0,0 -154.32,-474.8 -683.45,-481.84 m 121.35,-73.78 H 3057 v -389.67 h 98.91 v -88.65 h -193.48 z m 306.71,-1061.23 -22.69,344.84 h -1.62 l -15.14,-118.11 -40.54,-226.73 h -72.96 l -46.22,229.16 -15.94,106.75 v 8.93 h -1.35 l -14.05,-344.84 h -101.35 l 41.88,478.6 h 124.33 l 46.47,-282.4 h 1.09 l 38.1,282.4 h 127.02 l 50,-478.6 z m 605.35,0 -17.57,80.81 h -95.93 l -17.03,-80.81 h -93.78 l 110.81,478.6 h 99.72 l 114.84,-478.6 z m -287.82,1061.23 h 106.49 l 27.28,-66.74 c 8.11,-23.51 17.84,-48.1 22.71,-72.7 h 1.34 c 5.14,24.6 12.98,48.65 21.63,72.7 l 28.65,66.74 h 102.15 l -102.15,-231.58 109.71,-246.74 h -109.71 l -30.27,75.94 c -8.92,24.32 -14.87,47.56 -21.35,71.61 h -1.09 c -7.02,-24.05 -12.69,-47.29 -20.8,-71.61 l -28.1,-75.94 h -106.49 l 101.35,246.74 z m 25.68,-582.63 v -88.91 h -95.94 v -103.77 h 84.58 v -89.19 h -84.58 v -107.82 h 97.29 v -88.91 h -191.6 v 478.6 z m -243.22,182.41 c 46.21,0 46.21,34.86 46.76,70.27 v 329.95 h 94.58 v -348.86 c 0,-50.81 -5.68,-137.03 -142.15,-137.03 -88.1,0 -140.8,41.08 -140.8,130.53 v 355.36 h 94.59 V 2350.1 c 0,-36.2 -4.6,-90.53 47.02,-90.53 M 1555.28,4366.91 c 0,0 -42.7,-62.42 -205.94,-97.55 l 205.94,-190.53 z m 522.91,-832.88 c 0,-506.44 317.53,-740.19 708.84,-740.19 392.13,0 709.93,232.95 709.93,740.19 v 1443.63 h -1418.5 c 0,0 -0.27,-937.74 -0.27,-1443.63 m 341.85,1022.85 v 213.51 h 665.07 v -305.12 h 219.43 v -219.42 h -213.21 v -97.83 h 213.21 V 3910.2 H 3091.33 V 3196.23 H 2908.1 l -253.21,253.49 -231.6,-231.87 -167.82,167.55 384.28,384.55 198.35,-198.35 v 985.28 z m -948.01,-1118.79 169.45,-149.16 h 382.13 c -18.39,30.25 -12.44,146.2 -12.44,146.2 z M 4546.04,1529.38 c 0,0 -30.82,-32.42 -41.09,-81.62 l 91.89,-95.39 c -5.14,59.46 -20.27,119.99 -50.8,177.01 M 932.91,1139.16 c 141.34,476.97 -28.097,669.11 -28.097,669.11 -167.829,-236.2 -37.84,-581.02 -37.84,-581.02 -232.95,306.19 -605.618,304.03 -605.618,304.03 199.711,-389.97 671.555,-392.12 671.555,-392.12 m -23.512,3160.73 c 494.282,-56.47 653.982,143.78 653.982,143.78 -261.59,124.3 -578.849,-63.52 -578.849,-63.52 261.319,282.68 194.579,649.12 194.579,649.12 C 829.68,4764.99 909.398,4299.89 909.398,4299.89 M 1943.88,804.059 c 23.51,-289.43 344.56,-469.68 344.56,-469.68 -375.1,84.59 -659.38,-156.469 -659.38,-156.469 403.73,-170.25766 766.66,131.051 766.66,131.051 -198.35,456.461 -451.84,495.098 -451.84,495.098 M 684.563,1488.57 c 221.863,444.83 88.64,663.72 88.64,663.72 C 566.453,1948.8 634.84,1586.41 634.84,1586.41 458.359,1928.53 91.1172,1991.22 91.1172,1991.22 220.285,1572.63 684.563,1488.57 684.563,1488.57 m 997.187,-539.941 -61.62,0.551 c -3.52,-273.489 259.71,-488.879 259.71,-488.879 -355.11,148.648 -676.69,-39.442 -676.69,-39.442 368.06,-237.808 777.76,-3.789 777.76,-3.789 -79.73,332.399 -219.72,474.809 -299.16,531.559 M 765.902,742.172 c 0,0 67.555,40.258 165.926,54.859 l -108.91,25.938 -10.539,-13.778 10.539,13.778 L 339.73,314.652 c 0,0 -54.859,-79.453 -2.972,-131.343 0,0 48.644,-39.731 115.926,5.953 l 470.5,411.578 C 875.617,625.422 771.57,711.898 765.902,742.172 M 500.527,1875.57 c 295.911,399.95 202.407,638.57 202.407,638.57 C 464.316,2349.3 468.641,1980.68 468.641,1980.68 354.324,2348.21 3.54688,2473.88 3.54688,2473.88 57.8711,2038.79 500.527,1875.57 500.527,1875.57 m 248.078,2862.12 -572.097,572.1 c 0,0 -239.1721,-171.6 -53.238,-572.1 z m 258.625,208.09 -336.457,339.69 c -208.351,208.08 -455.355,70.8 -455.355,70.8 l 662.633,-659.66 c 44.32,169.16 129.179,249.17 129.179,249.17 M 387.563,2228.23 c 0,-24.05 19.457,-43.5 43.511,-43.5 24.059,0 43.242,19.45 43.242,43.5 0,24.06 -19.183,43.5 -43.242,43.5 -24.054,0 -43.511,-19.44 -43.511,-43.5 m -1.079,60.27 c 360.77,342.66 310.239,593.71 310.239,593.71 C 432.969,2761.42 373.23,2397.67 373.23,2397.67 324.598,2779.52 0.851563,2964.1 0.851563,2964.1 -21.043,2526.31 386.484,2288.5 386.484,2288.5 m 316.727,-842.35 c 0,-24.06 19.449,-43.51 43.5,-43.51 24.055,0 43.508,19.45 43.508,43.51 0,24.05 -19.453,43.51 -43.508,43.51 -24.051,0 -43.5,-19.46 -43.5,-43.51 M 4341.72,811.629 c 24.06,0 43.52,19.453 43.52,43.512 0,24.039 -19.46,43.488 -43.52,43.488 -24.04,0 -43.5,-19.449 -43.5,-43.488 0,-24.059 19.46,-43.512 43.5,-43.512 m 231.07,56.48 -152.96,124.582 c 3.24,-38.921 8.38,-80 15.4,-124.05 0,0 55.13,-6.481 137.56,-0.532 m 427.79,769.631 c 0,0 59.72,363.75 -151.61,562.38 0,0 -128.1,-221.87 104.31,-661.55 0,0 462.11,94.86 581.29,516.44 0,0 -365.9,-71.36 -533.99,-417.27 M 2100.62,424.102 c 0,24.039 -19.45,43.507 -43.51,43.507 -24.05,0 -43.5,-19.468 -43.5,-43.507 0,-24.051 19.45,-43.512 43.5,-43.512 24.06,0 43.51,19.461 43.51,43.512 M 4158.51,686.5 c 0,0 94.32,112.969 140.53,271.859 l -176.74,2.711 c -28.12,-86.75 -49.19,-197.011 -54.33,-337 0,0 381.85,-126.742 687.78,94.59 l -117.84,94.86 c -130.52,7.289 -309.69,-12.161 -479.4,-127.02 m 128.63,704.79 V 1159.41 L 5324.32,299.25 H 5531.6 L 4476.05,1391.29 Z M 2767.85,390.859 V 282.5 c -50,78.629 -245.39,364.551 -466.17,378.602 0,0 75.12,-255.383 405.64,-405.622 0,0 -414.83,-27.308 -584,-254.31984 0,0 361.59,-32.67966 644.53,248.64084 V 73.332 h 109.99 V 262.5 390.859 Z m 183.22,-134.32 C 3280.5,408.961 3353.72,665.152 3353.72,665.152 3097.54,647.051 2877.84,262.5 2877.84,262.5 3164.55,-30.1914 3536.68,6.30859 3536.68,6.30859 3365.88,232.23 2951.07,256.539 2951.07,256.539 m 425.63,90.551 c 0,0 317,188.082 333.47,477.512 0,0 -252.39,-44.602 -439.95,-505.352 0,0 369.7,-292.668 769.38,-113.23 0,0 -289.69,234.57 -662.9,141.07 m 405.63,135.648 c 0,0 246.19,211.332 248.35,475.352 l -87.82,-3.508 c -79.46,-69.73 -195.92,-217.812 -260.52,-517.769 0,0 415.36,-224.051 777.21,22.148 0,0 -325.9,180.508 -677.22,23.777 m -218.09,-41.886 c 0,-24.039 19.46,-43.512 43.52,-43.512 24.05,0 43.5,19.473 43.5,43.512 0,24.058 -19.45,43.519 -43.5,43.519 -24.06,0 -43.52,-19.461 -43.52,-43.519 M 5101.11,3611.32 c 0,0 224.29,415.09 -22.16,777.49 0,0 -180.25,-325.91 -23.52,-677.49 0,0 -239.97,279.42 -528.05,245.63 0,0 87.56,-241.04 573.73,-345.63 m -1055.02,970.43 131.61,136.21 c -112.15,25.95 -322.67,63.5 -492.92,-63.52 0,0 87.55,-99.16 361.31,-72.69 m 875.57,-703.97 c 24.06,0 43.51,19.46 43.51,43.5 0,23.79 -19.45,43.51 -43.51,43.51 -24.05,0 -43.5,-19.72 -43.5,-43.51 0,-24.04 19.45,-43.5 43.5,-43.5 m 297.26,-678.57 c 0,0 292.95,369.95 112.97,769.64 0,0 -234.3,-289.98 -140.8,-663.44 0,0 -187.81,317.26 -477.51,333.75 0,0 44.59,-252.41 505.34,-439.95 m -633.16,2083.27 c 137.01,-68.09 247.53,3.25 247.53,3.25 152.69,74.85 262.95,-28.92 262.95,-28.92 106.48,-83.23 89.18,-192.67 89.18,-192.67 0,-84.06 -24.32,-89.73 -24.32,-89.73 -50.8,-34.86 -38.11,24.06 -38.11,24.06 l 11.62,41.34 c 20,189.43 -149.97,216.74 -149.97,216.74 -180.53,31.63 -225.38,-135.12 -225.38,-135.12 -11.36,-45.95 -12.44,-86.75 -7.3,-122.69 l -225.38,225.37 10.53,-190.51 503.46,-503.19 h 179.98 l -182.68,182.68 c 96.47,-30.26 181.05,-33.51 181.05,-33.51 257.01,15.68 284.03,261.59 284.03,261.59 67.83,256.73 -175.65,464.29 -175.65,464.29 -162.42,139.43 -408.07,150.77 -408.07,150.77 -349.41,40.55 -473.46,263.77 -473.46,263.77 -40.81,-101.61 -30.27,-251.86 -30.27,-251.86 23.24,-231.6 170.26,-285.66 170.26,-285.66 m 571.28,-2154.62 c 0,-24.05 19.47,-43.51 43.51,-43.51 23.79,0 43.52,19.46 43.52,43.51 0,24.05 -19.73,43.51 -43.52,43.51 -24.04,0 -43.51,-19.46 -43.51,-43.51 m -953.68,1623.61 106.48,107.83 c -45.12,152.14 -136.74,335.64 -362.93,444.81 0,0 -9.46,-325.37 256.45,-552.64 m 267,-3006.43 h -183.22 v -231.88 h 183.22 z m 142.15,2297.05 c 80.81,-22.98 179.97,-40.28 301.32,-45.14 0,0 55.13,164.04 31.35,363.47 l -158.63,-151.86 c 17.02,-40.27 38.64,-80.81 65.66,-120.81 0,0 -43.78,35.94 -113.77,74.86 z m -3477.19,494.8 c 0,-24.05 19.46,-43.5 43.51,-43.5 24.04,0 43.51,19.45 43.51,43.5 0,24.06 -19.47,43.52 -43.51,43.52 -24.05,0 -43.51,-19.46 -43.51,-43.52 m 3828.78,-52.43 -469.68,469.7 -421.04,-457.27 451.57,-445.62 z m -997.2,-15.12 -94.58,-112.97 512.38,-512.64 103.77,103.77 z m 494.28,-1589.3 h -183.23 v -231.87 h 183.23 z M 2268.17,5093.59 c 0,0 144.04,-95.12 396.98,79.18 0,0 -313.21,128.64 -396.98,-79.18 m 1632.26,-164.04 c 0,0 -142.43,42.97 -322.14,-18.1 l -0.26,-164.04 c 109.44,2.17 220.52,28.65 421.57,134.86 0,0 -95.12,462.11 -516.42,581.01 0,0 71.06,-365.63 417.25,-533.73 m -1889.26,-204.02 3.52,159.44 c -177.55,52.15 -357,18.1 -357,18.1 341.86,176.47 404.55,543.72 404.55,543.72 -418.59,-128.9 -502.91,-593.18 -502.91,-593.18 193.22,-96.19 343.47,-125.65 451.84,-128.08 m -131.61,-92.42 c -236.45,168.08 -581.29,38.1 -581.29,38.1 306.18,232.95 304.02,605.6 304.02,605.6 -389.94,-199.97 -392.12,-671.54 -392.12,-671.54 476.98,-141.61 669.39,27.84 669.39,27.84 m -27.03,349.95 c 0,-24.04 19.47,-43.51 43.52,-43.51 24.05,0 43.51,19.47 43.51,43.51 0,24.05 -19.46,43.52 -43.51,43.52 -24.05,0 -43.52,-19.47 -43.52,-43.52 m 105.4,45.94 328.07,4.6 c -101.88,61.34 -213.48,59.17 -213.48,59.17 367.25,114.32 472.11,441.86 472.11,441.86 -434.55,-54.32 -598.04,-496.98 -598.04,-496.98 l 11.34,-8.65 m 1751.7,-22.15 c 0,24.05 -19.19,43.51 -43.24,43.51 -24.05,0 -43.51,-19.46 -43.51,-43.51 0,-24.06 19.46,-43.52 43.51,-43.52 24.05,0 43.24,19.46 43.24,43.52 m -230.24,85.92 c 0,0 -111.61,2.17 -213.49,-59.17 l 328.07,-4.6 11.36,8.65 c 0,0 -163.23,442.66 -598.04,496.98 0,0 104.84,-327.54 472.1,-441.86 m -705.33,50.28 c 32.16,0 58.1,26.21 58.1,58.37 0,32.16 -25.94,58.1 -58.1,58.1 -32.16,0 -58.37,-25.94 -58.37,-58.1 0,-32.16 26.21,-58.37 58.37,-58.37 m 509.4,-30.28 c -91.61,204.59 -399.68,64.05 -399.68,64.05 259.44,-164.57 399.68,-64.05 399.68,-64.05"
         style="fill:#2f335d;fill-opacity:1;fill-rule:nonzero;stroke:none"
         id="path12" />
    </g>
  </g>
</svg>
